AsbirSans-TextThin.ufo
<glyph name="exclam" format="2">
  <advance width="554"/>
  <unicode hex="0021"/>
  <outline>
    <contour>
      <point x="254" y="434" type="line"/>
      <point x="300" y="434" type="line"/>
      <point x="300" y="1490" type="line"/>
      <point x="254" y="1490" type="line"/>
    </contour>
    <contour>
      <point x="277" y="-9" type="curve" smooth="yes"/>
      <point x="306" y="-9"/>
      <point x="330" y="15"/>
      <point x="330" y="44" type="curve" smooth="yes"/>
      <point x="330" y="73"/>
      <point x="306" y="97"/>
      <point x="277" y="97" type="curve" smooth="yes"/>
      <point x="248" y="97"/>
      <point x="224" y="73"/>
      <point x="224" y="44" type="curve" smooth="yes"/>
      <point x="224" y="15"/>
      <point x="248" y="-9"/>
    </contour>
  </outline>
</glyph>
<glyph name="numbersign" format="2">
  <advance width="1298"/>
  <unicode hex="0023"/>
  <outline>
    <contour>
      <point x="766" y="0" type="line"/>
      <point x="812" y="0" type="line"/>
      <point x="1056" y="1490" type="line"/>
      <point x="1010" y="1490" type="line"/>
    </contour>
    <contour>
      <point x="46" y="462" type="line"/>
      <point x="1158" y="462" type="line"/>
      <point x="1166" y="510" type="line"/>
      <point x="56" y="510" type="line"/>
    </contour>
    <contour>
      <point x="242" y="0" type="line"/>
      <point x="288" y="0" type="line"/>
      <point x="532" y="1490" type="line"/>
      <point x="486" y="1490" type="line"/>
    </contour>
    <contour>
      <point x="130" y="980" type="line"/>
      <point x="1242" y="980" type="line"/>
      <point x="1250" y="1026" type="line"/>
      <point x="140" y="1026" type="line"/>
    </contour>
  </outline>
</glyph>
<glyph name="ampersand" format="2">
  <advance width="1196"/>
  <unicode hex="0026"/>
  <outline>
    <contour>
      <point x="550" y="-20" type="curve" smooth="yes"/>
      <point x="750" y="-20"/>
      <point x="889" y="77"/>
      <point x="965" y="175" type="curve"/>
      <point x="978" y="192" type="line"/>
      <point x="1043" y="283"/>
      <point x="1094" y="410"/>
      <point x="1114" y="536" type="curve"/>
      <point x="1068" y="542" type="line"/>
      <point x="1017" y="241"/>
      <point x="841" y="26"/>
      <point x="550" y="26" type="curve" smooth="yes"/>
      <point x="340" y="26"/>
      <point x="176" y="180"/>
      <point x="176" y="372" type="curve" smooth="yes"/>
      <point x="176" y="492"/>
      <point x="237" y="580"/>
      <point x="415" y="714" type="curve" smooth="yes"/>
      <point x="633" y="878" type="line" smooth="yes"/>
      <point x="787" y="994"/>
      <point x="846" y="1096"/>
      <point x="846" y="1216" type="curve" smooth="yes"/>
      <point x="846" y="1390"/>
      <point x="721" y="1510"/>
      <point x="552" y="1510" type="curve" smooth="yes"/>
      <point x="376" y="1510"/>
      <point x="236" y="1379"/>
      <point x="236" y="1204" type="curve" smooth="yes"/>
      <point x="236" y="1076"/>
      <point x="310" y="997"/>
      <point x="446" y="824" type="curve" smooth="yes"/>
      <point x="1097" y="0" type="line"/>
      <point x="1156" y="0" type="line"/>
      <point x="483" y="852" type="line" smooth="yes"/>
      <point x="347" y="1024"/>
      <point x="282" y="1094"/>
      <point x="282" y="1204" type="curve" smooth="yes"/>
      <point x="282" y="1353"/>
      <point x="402" y="1464"/>
      <point x="552" y="1464" type="curve" smooth="yes"/>
      <point x="695" y="1464"/>
      <point x="800" y="1365"/>
      <point x="800" y="1217" type="curve" smooth="yes"/>
      <point x="800" y="1110"/>
      <point x="744" y="1019"/>
      <point x="606" y="915" type="curve" smooth="yes"/>
      <point x="386" y="750" type="line" smooth="yes"/>
      <point x="196" y="608"/>
      <point x="130" y="506"/>
      <point x="130" y="372" type="curve" smooth="yes"/>
      <point x="130" y="154"/>
      <point x="314" y="-20"/>
    </contour>
  </outline>
</glyph>
<glyph name="quotesingle" format="2">
  <advance width="563"/>
  <unicode hex="0027"/>
  <outline>
    <contour>
      <point x="261" y="1040" type="line"/>
      <point x="302" y="1040" type="line"/>
      <point x="307" y="1490" type="line"/>
      <point x="256" y="1490" type="line"/>
    </contour>
  </outline>
</glyph>
<glyph name="parenleft" format="2">
  <advance width="646"/>
  <unicode hex="0028"/>
  <outline>
    <contour>
      <point x="238" y="650" type="curve" smooth="yes"/>
      <point x="239" y="339"/>
      <point x="314" y="19"/>
      <point x="454" y="-280" type="curve"/>
      <point x="504" y="-280" type="line"/>
      <point x="360" y="19"/>
      <point x="286" y="336"/>
      <point x="286" y="650" type="curve" smooth="yes"/>
      <point x="286" y="962"/>
      <point x="359" y="1280"/>
      <point x="504" y="1582" type="curve"/>
      <point x="454" y="1582" type="line"/>
      <point x="314" y="1285"/>
      <point x="239" y="965"/>
    </contour>
  </outline>
</glyph>
<glyph name="parenright" format="2">
  <advance width="646"/>
  <unicode hex="0029"/>
  <outline>
    <contour>
      <point x="142" y="-279" type="curve"/>
      <point x="192" y="-279" type="line"/>
      <point x="332" y="20"/>
      <point x="408" y="340"/>
      <point x="408" y="651" type="curve" smooth="yes"/>
      <point x="408" y="966"/>
      <point x="332" y="1286"/>
      <point x="192" y="1583" type="curve"/>
      <point x="142" y="1583" type="line"/>
      <point x="287" y="1281"/>
      <point x="360" y="963"/>
      <point x="360" y="651" type="curve" smooth="yes"/>
      <point x="360" y="337"/>
      <point x="286" y="20"/>
    </contour>
  </outline>
</glyph>
<glyph name="asterisk" format="2">
  <advance width="1024"/>
  <unicode hex="002A"/>
  <outline>
    <contour>
      <point x="488" y="652" type="line"/>
      <point x="536" y="652" type="line"/>
      <point x="536" y="1030" type="line"/>
      <point x="864" y="840" type="line"/>
      <point x="888" y="882" type="line"/>
      <point x="558" y="1070" type="line"/>
      <point x="888" y="1260" type="line"/>
      <point x="864" y="1300" type="line"/>
      <point x="536" y="1112" type="line"/>
      <point x="536" y="1490" type="line"/>
      <point x="488" y="1490" type="line"/>
      <point x="488" y="1112" type="line"/>
      <point x="160" y="1300" type="line"/>
      <point x="136" y="1260" type="line"/>
      <point x="466" y="1070" type="line"/>
      <point x="136" y="882" type="line"/>
      <point x="160" y="840" type="line"/>
      <point x="488" y="1030" type="line"/>
    </contour>
  </outline>
</glyph>
<glyph name="plus" format="2">
  <advance width="1304"/>
  <unicode hex="002B"/>
  <outline>
    <contour>
      <point x="629" y="160" type="line"/>
      <point x="675" y="160" type="line"/>
      <point x="675" y="1004" type="line"/>
      <point x="629" y="1004" type="line"/>
    </contour>
    <contour>
      <point x="230" y="559" type="line"/>
      <point x="1074" y="559" type="line"/>
      <point x="1074" y="605" type="line"/>
      <point x="230" y="605" type="line"/>
    </contour>
  </outline>
</glyph>
<glyph name="hyphen" format="2">
  <advance width="898"/>
  <unicode hex="002D"/>
  <outline>
    <contour>
      <point x="728" y="662" type="line"/>
      <point x="172" y="662" type="line"/>
      <point x="172" y="616" type="line"/>
      <point x="728" y="616" type="line"/>
    </contour>
  </outline>
</glyph>
<glyph name="slash" format="2">
  <advance width="662"/>
  <unicode hex="002F"/>
  <outline>
    <contour>
      <point x="596" y="1560" type="line"/>
      <point x="546" y="1560" type="line"/>
      <point x="66" y="-224" type="line"/>
      <point x="116" y="-224" type="line"/>
    </contour>
  </outline>
</glyph>
<glyph name="zero" format="2">
  <advance width="1210"/>
  <unicode hex="0030"/>
  <anchor x="605" y="745" name="center"/>
  <anchor x="605" y="1490" name="top"/>
  <outline>
    <contour>
      <point x="606" y="-20" type="curve" smooth="yes"/>
      <point x="889" y="-20"/>
      <point x="1062" y="271"/>
      <point x="1062" y="744" type="curve" smooth="yes"/>
      <point x="1062" y="1219"/>
      <point x="889" y="1510"/>
      <point x="606" y="1510" type="curve" smooth="yes"/>
      <point x="321" y="1510"/>
      <point x="148" y="1219"/>
      <point x="148" y="744" type="curve" smooth="yes"/>
      <point x="148" y="271"/>
      <point x="321" y="-20"/>
    </contour>
    <contour>
      <point x="606" y="26" type="curve" smooth="yes"/>
      <point x="351" y="26"/>
      <point x="194" y="297"/>
      <point x="194" y="744" type="curve" smooth="yes"/>
      <point x="194" y="1193"/>
      <point x="351" y="1464"/>
      <point x="606" y="1464" type="curve" smooth="yes"/>
      <point x="859" y="1464"/>
      <point x="1016" y="1193"/>
      <point x="1016" y="744" type="curve" smooth="yes"/>
      <point x="1016" y="297"/>
      <point x="859" y="26"/>
    </contour>
  </outline>
</glyph>
<glyph name="one" format="2">
  <advance width="744"/>
  <unicode hex="0031"/>
  <outline>
    <contour>
      <point x="466" y="0" type="line"/>
      <point x="512" y="0" type="line"/>
      <point x="512" y="1490" type="line"/>
      <point x="472" y="1490" type="line"/>
      <point x="435" y="1304"/>
      <point x="269" y="1244"/>
      <point x="140" y="1244" type="curve" smooth="yes"/>
      <point x="138" y="1244" type="line"/>
      <point x="138" y="1198" type="line"/>
      <point x="246" y="1198"/>
      <point x="390" y="1237"/>
      <point x="469" y="1359" type="curve"/>
      <point x="466" y="1361" type="line"/>
    </contour>
  </outline>
</glyph>
<glyph name="two" format="2">
  <advance width="1272"/>
  <unicode hex="0032"/>
  <anchor x="731" y="637" name="cross"/>
  <anchor x="636" y="1490" name="top"/>
  <outline>
    <contour>
      <point x="190" y="0" type="line"/>
      <point x="1088" y="0" type="line"/>
      <point x="1088" y="46" type="line"/>
      <point x="262" y="46" type="line"/>
      <point x="262" y="52" type="line"/>
      <point x="702" y="574" type="line" smooth="yes"/>
      <point x="930" y="844"/>
      <point x="1000" y="961"/>
      <point x="1000" y="1126" type="curve" smooth="yes"/>
      <point x="1000" y="1347"/>
      <point x="835" y="1510"/>
      <point x="610" y="1510" type="curve" smooth="yes"/>
      <point x="378" y="1510"/>
      <point x="216" y="1333"/>
      <point x="216" y="1118" type="curve"/>
      <point x="262" y="1118" type="line"/>
      <point x="262" y="1307"/>
      <point x="404" y="1464"/>
      <point x="610" y="1464" type="curve" smooth="yes"/>
      <point x="809" y="1464"/>
      <point x="954" y="1321"/>
      <point x="954" y="1126" type="curve" smooth="yes"/>
      <point x="954" y="977"/>
      <point x="890" y="867"/>
      <point x="666" y="602" type="curve" smooth="yes"/>
      <point x="190" y="38" type="line"/>
    </contour>
  </outline>
</glyph>
<glyph name="three" format="2">
  <advance width="1192"/>
  <unicode hex="0033"/>
  <anchor x="602" y="1490" name="top"/>
  <outline>
    <contour>
      <point x="602" y="-20" type="curve" smooth="yes"/>
      <point x="863" y="-20"/>
      <point x="1044" y="158"/>
      <point x="1044" y="386" type="curve" smooth="yes"/>
      <point x="1044" y="576"/>
      <point x="919" y="719"/>
      <point x="724" y="768" type="curve"/>
      <point x="724" y="774" type="line"/>
      <point x="893" y="822"/>
      <point x="1000" y="954"/>
      <point x="1000" y="1128" type="curve" smooth="yes"/>
      <point x="1000" y="1347"/>
      <point x="833" y="1510"/>
      <point x="600" y="1510" type="curve" smooth="yes"/>
      <point x="365" y="1510"/>
      <point x="195" y="1347"/>
      <point x="194" y="1118" type="curve"/>
      <point x="242" y="1118" type="line"/>
      <point x="242" y="1321"/>
      <point x="391" y="1464"/>
      <point x="600" y="1464" type="curve" smooth="yes"/>
      <point x="809" y="1464"/>
      <point x="954" y="1320"/>
      <point x="954" y="1128" type="curve" smooth="yes"/>
      <point x="954" y="922"/>
      <point x="782" y="791"/>
      <point x="558" y="792" type="curve" smooth="yes"/>
      <point x="536" y="792" type="line"/>
      <point x="536" y="744" type="line"/>
      <point x="558" y="744" type="line" smooth="yes"/>
      <point x="813" y="744"/>
      <point x="998" y="601"/>
      <point x="998" y="386" type="curve" smooth="yes"/>
      <point x="998" y="188"/>
      <point x="839" y="26"/>
      <point x="602" y="26" type="curve" smooth="yes"/>
      <point x="379" y="26"/>
      <point x="207" y="172"/>
      <point x="206" y="372" type="curve"/>
      <point x="160" y="372" type="line"/>
      <point x="160" y="145"/>
      <point x="351" y="-20"/>
    </contour>
  </outline>
</glyph>
<glyph name="five" format="2">
  <advance width="1130"/>
  <unicode hex="0035"/>
  <outline>
    <contour>
      <point x="540" y="-20" type="curve" smooth="yes"/>
      <point x="798" y="-20"/>
      <point x="982" y="186"/>
      <point x="982" y="462" type="curve" smooth="yes"/>
      <point x="982" y="751"/>
      <point x="777" y="940"/>
      <point x="538" y="940" type="curve" smooth="yes"/>
      <point x="418" y="940"/>
      <point x="318" y="895"/>
      <point x="244" y="826" type="curve"/>
      <point x="238" y="826" type="line"/>
      <point x="314" y="1442" type="line"/>
      <point x="934" y="1442" type="line"/>
      <point x="934" y="1490" type="line"/>
      <point x="272" y="1490" type="line"/>
      <point x="186" y="786" type="line"/>
      <point x="256" y="774" type="line"/>
      <point x="324" y="844"/>
      <point x="420" y="894"/>
      <point x="538" y="894" type="curve" smooth="yes"/>
      <point x="751" y="894"/>
      <point x="936" y="727"/>
      <point x="936" y="462" type="curve" smooth="yes"/>
      <point x="936" y="215"/>
      <point x="775" y="26"/>
      <point x="540" y="26" type="curve" smooth="yes"/>
      <point x="332" y="26"/>
      <point x="194" y="169"/>
      <point x="194" y="372" type="curve"/>
      <point x="148" y="372" type="line"/>
      <point x="148" y="143"/>
      <point x="309" y="-20"/>
    </contour>
  </outline>
</glyph>
<glyph name="six" format="2">
  <advance width="1156"/>
  <unicode hex="0036"/>
  <outline>
    <contour>
      <point x="590" y="-20" type="curve" smooth="yes"/>
      <point x="840" y="-20"/>
      <point x="1008" y="198"/>
      <point x="1008" y="446" type="curve" smooth="yes"/>
      <point x="1008" y="710"/>
      <point x="815" y="910"/>
      <point x="582" y="910" type="curve" smooth="yes"/>
      <point x="409" y="910"/>
      <point x="247" y="803"/>
      <point x="200" y="654" type="curve"/>
      <point x="194" y="654" type="line"/>
      <point x="194" y="1177"/>
      <point x="333" y="1464"/>
      <point x="604" y="1464" type="curve" smooth="yes"/>
      <point x="800" y="1464"/>
      <point x="922" y="1321"/>
      <point x="936" y="1118" type="curve"/>
      <point x="982" y="1118" type="line"/>
      <point x="968" y="1350"/>
      <point x="826" y="1510"/>
      <point x="604" y="1510" type="curve" smooth="yes"/>
      <point x="246" y="1510"/>
      <point x="148" y="1076"/>
      <point x="148" y="674" type="curve" smooth="yes"/>
      <point x="148" y="207"/>
      <point x="337" y="-20"/>
    </contour>
    <contour>
      <point x="590" y="26" type="curve" smooth="yes"/>
      <point x="406" y="26"/>
      <point x="267" y="163"/>
      <point x="218" y="424" type="curve" smooth="yes"/>
      <point x="174" y="658"/>
      <point x="351" y="864"/>
      <point x="578" y="864" type="curve" smooth="yes"/>
      <point x="794" y="864"/>
      <point x="962" y="681"/>
      <point x="962" y="446" type="curve" smooth="yes"/>
      <point x="962" y="215"/>
      <point x="805" y="26"/>
    </contour>
  </outline>
</glyph>
<glyph name="seven" format="2">
  <advance width="1120"/>
  <unicode hex="0037"/>
  <outline>
    <contour>
      <point x="235" y="0" type="line"/>
      <point x="284" y="0" type="line"/>
      <point x="992" y="1442" type="line"/>
      <point x="992" y="1490" type="line"/>
      <point x="128" y="1490" type="line"/>
      <point x="128" y="1444" type="line"/>
      <point x="939" y="1444" type="line"/>
      <point x="939" y="1438" type="line"/>
    </contour>
  </outline>
</glyph>
<glyph name="eight" format="2">
  <advance width="1222"/>
  <unicode hex="0038"/>
  <outline>
    <contour>
      <point x="610" y="-20" type="curve" smooth="yes"/>
      <point x="867" y="-20"/>
      <point x="1074" y="160"/>
      <point x="1074" y="384" type="curve" smooth="yes"/>
      <point x="1074" y="561"/>
      <point x="942" y="728"/>
      <point x="760" y="768" type="curve"/>
      <point x="760" y="774" type="line"/>
      <point x="916" y="826"/>
      <point x="1024" y="969"/>
      <point x="1024" y="1132" type="curve" smooth="yes"/>
      <point x="1024" y="1345"/>
      <point x="836" y="1510"/>
      <point x="610" y="1510" type="curve" smooth="yes"/>
      <point x="382" y="1510"/>
      <point x="198" y="1343"/>
      <point x="198" y="1132" type="curve" smooth="yes"/>
      <point x="198" y="968"/>
      <point x="308" y="827"/>
      <point x="462" y="774" type="curve"/>
      <point x="462" y="768" type="line"/>
      <point x="279" y="726"/>
      <point x="148" y="561"/>
      <point x="148" y="384" type="curve" smooth="yes"/>
      <point x="148" y="160"/>
      <point x="355" y="-20"/>
    </contour>
    <contour>
      <point x="610" y="26" type="curve" smooth="yes"/>
      <point x="379" y="26"/>
      <point x="194" y="189"/>
      <point x="194" y="386" type="curve" smooth="yes"/>
      <point x="194" y="585"/>
      <point x="378" y="748"/>
      <point x="610" y="748" type="curve" smooth="yes"/>
      <point x="843" y="748"/>
      <point x="1026" y="585"/>
      <point x="1026" y="386" type="curve" smooth="yes"/>
      <point x="1026" y="189"/>
      <point x="843" y="26"/>
    </contour>
    <contour>
      <point x="610" y="788" type="curve" smooth="yes"/>
      <point x="409" y="788"/>
      <point x="244" y="946"/>
      <point x="244" y="1132" type="curve" smooth="yes"/>
      <point x="244" y="1318"/>
      <point x="409" y="1464"/>
      <point x="610" y="1464" type="curve" smooth="yes"/>
      <point x="812" y="1464"/>
      <point x="978" y="1318"/>
      <point x="978" y="1132" type="curve" smooth="yes"/>
      <point x="978" y="946"/>
      <point x="812" y="788"/>
    </contour>
  </outline>
</glyph>
<glyph name="nine" format="2">
  <advance width="1156"/>
  <unicode hex="0039"/>
  <outline>
    <contour>
      <point x="552" y="-20" type="curve" smooth="yes"/>
      <point x="913" y="-20"/>
      <point x="1008" y="416"/>
      <point x="1008" y="818" type="curve" smooth="yes"/>
      <point x="1008" y="1286"/>
      <point x="820" y="1510"/>
      <point x="566" y="1510" type="curve" smooth="yes"/>
      <point x="317" y="1510"/>
      <point x="148" y="1295"/>
      <point x="148" y="1048" type="curve" smooth="yes"/>
      <point x="148" y="783"/>
      <point x="340" y="582"/>
      <point x="576" y="582" type="curve" smooth="yes"/>
      <point x="747" y="582"/>
      <point x="910" y="689"/>
      <point x="956" y="838" type="curve"/>
      <point x="962" y="838" type="line"/>
      <point x="962" y="314"/>
      <point x="823" y="26"/>
      <point x="552" y="26" type="curve" smooth="yes"/>
      <point x="357" y="26"/>
      <point x="235" y="172"/>
      <point x="220" y="376" type="curve"/>
      <point x="174" y="376" type="line"/>
      <point x="189" y="143"/>
      <point x="331" y="-20"/>
    </contour>
    <contour>
      <point x="578" y="628" type="curve" smooth="yes"/>
      <point x="363" y="628"/>
      <point x="194" y="812"/>
      <point x="194" y="1048" type="curve" smooth="yes"/>
      <point x="194" y="1277"/>
      <point x="351" y="1463"/>
      <point x="566" y="1464" type="curve" smooth="yes"/>
      <point x="750" y="1463"/>
      <point x="890" y="1329"/>
      <point x="940" y="1068" type="curve" smooth="yes"/>
      <point x="983" y="835"/>
      <point x="805" y="628"/>
    </contour>
  </outline>
</glyph>
<glyph name="less" format="2">
  <advance width="1304"/>
  <unicode hex="003C"/>
  <outline>
    <contour>
      <point x="214" y="558" type="line"/>
      <point x="1010" y="40" type="line"/>
      <point x="1010" y="96" type="line"/>
      <point x="256" y="584" type="line"/>
      <point x="266" y="570" type="line"/>
      <point x="266" y="594" type="line"/>
      <point x="256" y="578" type="line"/>
      <point x="1010" y="1068" type="line"/>
      <point x="1010" y="1122" type="line"/>
      <point x="214" y="606" type="line"/>
    </contour>
  </outline>
</glyph>
<glyph name="equal" format="2">
  <advance width="1304"/>
  <unicode hex="003D"/>
  <outline>
    <contour>
      <point x="306" y="754" type="line"/>
      <point x="998" y="754" type="line"/>
      <point x="998" y="800" type="line"/>
      <point x="306" y="800" type="line"/>
    </contour>
    <contour>
      <point x="306" y="364" type="line"/>
      <point x="998" y="364" type="line"/>
      <point x="998" y="410" type="line"/>
      <point x="306" y="410" type="line"/>
    </contour>
  </outline>
</glyph>
<glyph name="greater" format="2">
  <advance width="1304"/>
  <unicode hex="003E"/>
  <outline>
    <contour>
      <point x="1090" y="558" type="line"/>
      <point x="1090" y="606" type="line"/>
      <point x="294" y="1122" type="line"/>
      <point x="294" y="1068" type="line"/>
      <point x="1046" y="578" type="line"/>
      <point x="1038" y="594" type="line"/>
      <point x="1038" y="570" type="line"/>
      <point x="1046" y="584" type="line"/>
      <point x="294" y="96" type="line"/>
      <point x="294" y="40" type="line"/>
    </contour>
  </outline>
</glyph>
<glyph name="question" format="2">
  <advance width="980"/>
  <unicode hex="003F"/>
  <outline>
    <contour>
      <point x="424" y="442" type="line"/>
      <point x="472" y="442" type="line"/>
      <point x="472" y="544" type="line" smooth="yes"/>
      <point x="472" y="662"/>
      <point x="510" y="723"/>
      <point x="648" y="824" type="curve" smooth="yes"/>
      <point x="807" y="937"/>
      <point x="864" y="1023"/>
      <point x="864" y="1146" type="curve" smooth="yes"/>
      <point x="864" y="1356"/>
      <point x="699" y="1510"/>
      <point x="486" y="1510" type="curve" smooth="yes"/>
      <point x="263" y="1510"/>
      <point x="96" y="1341"/>
      <point x="96" y="1118" type="curve"/>
      <point x="142" y="1118" type="line"/>
      <point x="142" y="1315"/>
      <point x="288" y="1464"/>
      <point x="486" y="1464" type="curve" smooth="yes"/>
      <point x="673" y="1464"/>
      <point x="818" y="1331"/>
      <point x="818" y="1146" type="curve" smooth="yes"/>
      <point x="818" y="1041"/>
      <point x="770" y="965"/>
      <point x="622" y="862" type="curve" smooth="yes"/>
      <point x="473" y="756"/>
      <point x="424" y="678"/>
      <point x="424" y="544" type="curve" smooth="yes"/>
    </contour>
    <contour>
      <point x="448" y="-9" type="curve" smooth="yes"/>
      <point x="477" y="-9"/>
      <point x="501" y="15"/>
      <point x="501" y="44" type="curve" smooth="yes"/>
      <point x="501" y="73"/>
      <point x="477" y="97"/>
      <point x="448" y="97" type="curve" smooth="yes"/>
      <point x="419" y="97"/>
      <point x="395" y="73"/>
      <point x="395" y="44" type="curve" smooth="yes"/>
      <point x="395" y="15"/>
      <point x="419" y="-9"/>
    </contour>
  </outline>
</glyph>
<glyph name="at" format="2">
  <advance width="2010"/>
  <unicode hex="0040"/>
  <outline>
    <contour>
      <point x="1006" y="-396" type="curve" smooth="yes"/>
      <point x="1175" y="-396"/>
      <point x="1338" y="-343"/>
      <point x="1478" y="-244" type="curve"/>
      <point x="1448" y="-206" type="line"/>
      <point x="1317" y="-300"/>
      <point x="1166" y="-350"/>
      <point x="1006" y="-350" type="curve" smooth="yes"/>
      <point x="558" y="-350"/>
      <point x="194" y="38"/>
      <point x="194" y="518" type="curve" smooth="yes"/>
      <point x="194" y="998"/>
      <point x="558" y="1386"/>
      <point x="1006" y="1386" type="curve" smooth="yes"/>
      <point x="1451" y="1386"/>
      <point x="1816" y="998"/>
      <point x="1816" y="518" type="curve" smooth="yes"/>
      <point x="1816" y="279"/>
      <point x="1684" y="102"/>
      <point x="1506" y="102" type="curve" smooth="yes"/>
      <point x="1419" y="102"/>
      <point x="1396" y="137"/>
      <point x="1396" y="280" type="curve" smooth="yes"/>
      <point x="1396" y="986" type="line"/>
      <point x="1350" y="986" type="line"/>
      <point x="1350" y="754" type="line"/>
      <point x="1344" y="754" type="line"/>
      <point x="1274" y="902"/>
      <point x="1140" y="1000"/>
      <point x="986" y="1000" type="curve" smooth="yes"/>
      <point x="756" y="1000"/>
      <point x="573" y="785"/>
      <point x="573" y="518" type="curve" smooth="yes"/>
      <point x="573" y="250"/>
      <point x="756" y="34"/>
      <point x="986" y="34" type="curve" smooth="yes"/>
      <point x="1140" y="34"/>
      <point x="1274" y="134"/>
      <point x="1344" y="280" type="curve"/>
      <point x="1350" y="280" type="line"/>
      <point x="1350" y="113"/>
      <point x="1390" y="56"/>
      <point x="1506" y="56" type="curve" smooth="yes"/>
      <point x="1713" y="56"/>
      <point x="1862" y="253"/>
      <point x="1862" y="518" type="curve" smooth="yes"/>
      <point x="1862" y="1024"/>
      <point x="1477" y="1432"/>
      <point x="1006" y="1432" type="curve" smooth="yes"/>
      <point x="532" y="1432"/>
      <point x="148" y="1024"/>
      <point x="148" y="518" type="curve" smooth="yes"/>
      <point x="148" y="15"/>
      <point x="532" y="-396"/>
    </contour>
    <contour>
      <point x="986" y="80" type="curve" smooth="yes"/>
      <point x="785" y="80"/>
      <point x="619" y="276"/>
      <point x="619" y="518" type="curve" smooth="yes"/>
      <point x="619" y="759"/>
      <point x="785" y="954"/>
      <point x="986" y="954" type="curve" smooth="yes"/>
      <point x="1186" y="954"/>
      <point x="1350" y="759"/>
      <point x="1350" y="518" type="curve" smooth="yes"/>
      <point x="1350" y="275"/>
      <point x="1187" y="80"/>
    </contour>
  </outline>
</glyph>
<glyph name="A" format="2">
  <advance width="1310"/>
  <unicode hex="0041"/>
  <anchor x="655" y="0" name="bottom"/>
  <anchor x="1244" y="0" name="ogonek"/>
  <anchor x="566" y="1490" name="tonos"/>
  <anchor x="655" y="1490" name="top"/>
  <outline>
    <contour>
      <point x="66" y="0" type="line"/>
      <point x="115" y="0" type="line"/>
      <point x="545" y="1154" type="line" smooth="yes"/>
      <point x="585" y="1261"/>
      <point x="624" y="1367"/>
      <point x="663" y="1474" type="curve"/>
      <point x="645" y="1474" type="line"/>
      <point x="684" y="1367"/>
      <point x="723" y="1261"/>
      <point x="763" y="1154" type="curve" smooth="yes"/>
      <point x="1195" y="0" type="line"/>
      <point x="1244" y="0" type="line"/>
      <point x="686" y="1490" type="line"/>
      <point x="623" y="1490" type="line"/>
    </contour>
    <contour>
      <point x="285" y="496" type="line"/>
      <point x="1025" y="496" type="line"/>
      <point x="1025" y="542" type="line"/>
      <point x="285" y="542" type="line"/>
    </contour>
  </outline>
</glyph>
<glyph name="B" format="2">
  <advance width="1310"/>
  <unicode hex="0042"/>
  <anchor x="636" y="0" name="bottom"/>
  <anchor x="294" y="390" name="cross"/>
  <anchor x="618" y="1490" name="top"/>
  <anchor x="230" y="1490" name="topl"/>
  <outline>
    <contour>
      <point x="232" y="0" type="line"/>
      <point x="746" y="0" type="line" smooth="yes"/>
      <point x="1002" y="0"/>
      <point x="1152" y="151"/>
      <point x="1152" y="382" type="curve" smooth="yes"/>
      <point x="1152" y="588"/>
      <point x="1016" y="740"/>
      <point x="868" y="754" type="curve"/>
      <point x="868" y="760" type="line"/>
      <point x="1012" y="796"/>
      <point x="1094" y="936"/>
      <point x="1094" y="1112" type="curve" smooth="yes"/>
      <point x="1094" y="1346"/>
      <point x="946" y="1490"/>
      <point x="696" y="1490" type="curve" smooth="yes"/>
      <point x="232" y="1490" type="line"/>
    </contour>
    <contour>
      <point x="278" y="46" type="line"/>
      <point x="278" y="734" type="line"/>
      <point x="746" y="734" type="line" smooth="yes"/>
      <point x="956" y="734"/>
      <point x="1106" y="588"/>
      <point x="1106" y="382" type="curve" smooth="yes"/>
      <point x="1106" y="180"/>
      <point x="964" y="46"/>
      <point x="746" y="46" type="curve" smooth="yes"/>
    </contour>
    <contour>
      <point x="278" y="780" type="line"/>
      <point x="278" y="1444" type="line"/>
      <point x="696" y="1444" type="line" smooth="yes"/>
      <point x="913" y="1444"/>
      <point x="1048" y="1323"/>
      <point x="1048" y="1112" type="curve" smooth="yes"/>
      <point x="1048" y="934"/>
      <point x="949" y="780"/>
      <point x="746" y="780" type="curve" smooth="yes"/>
    </contour>
  </outline>
</glyph>
<glyph name="C" format="2">
  <advance width="1480"/>
  <unicode hex="0043"/>
  <anchor x="766" y="0" name="cedilla"/>
  <anchor x="760" y="745" name="center"/>
  <anchor x="766" y="1490" name="top"/>
  <anchor x="1336" y="1024" name="topr"/>
  <outline>
    <contour>
      <point x="766" y="-20" type="curve" smooth="yes"/>
      <point x="1116" y="-20"/>
      <point x="1299" y="256"/>
      <point x="1336" y="466" type="curve"/>
      <point x="1289" y="466" type="line"/>
      <point x="1249" y="263"/>
      <point x="1074" y="26"/>
      <point x="766" y="26" type="curve" smooth="yes"/>
      <point x="460" y="26"/>
      <point x="194" y="276"/>
      <point x="194" y="744" type="curve" smooth="yes"/>
      <point x="194" y="1207"/>
      <point x="460" y="1464"/>
      <point x="766" y="1464" type="curve" smooth="yes"/>
      <point x="1075" y="1464"/>
      <point x="1249" y="1228"/>
      <point x="1289" y="1024" type="curve"/>
      <point x="1336" y="1024" type="line"/>
      <point x="1299" y="1236"/>
      <point x="1116" y="1510"/>
      <point x="766" y="1510" type="curve" smooth="yes"/>
      <point x="399" y="1510"/>
      <point x="148" y="1201"/>
      <point x="148" y="744" type="curve" smooth="yes"/>
      <point x="148" y="288"/>
      <point x="399" y="-20"/>
    </contour>
  </outline>
</glyph>
<glyph name="D" format="2">
  <advance width="1462"/>
  <unicode hex="0044"/>
  <anchor x="590" y="0" name="bottom"/>
  <anchor x="384" y="745" name="cross"/>
  <anchor x="632" y="1490" name="top"/>
  <anchor x="232" y="1490" name="topl"/>
  <outline>
    <contour>
      <point x="622" y="0" type="line" smooth="yes"/>
      <point x="1060" y="0"/>
      <point x="1314" y="275"/>
      <point x="1314" y="750" type="curve" smooth="yes"/>
      <point x="1314" y="1214"/>
      <point x="1071" y="1490"/>
      <point x="660" y="1490" type="curve" smooth="yes"/>
      <point x="256" y="1490" type="line"/>
      <point x="256" y="1444" type="line"/>
      <point x="660" y="1444" type="line" smooth="yes"/>
      <point x="1047" y="1444"/>
      <point x="1268" y="1185"/>
      <point x="1268" y="750" type="curve" smooth="yes"/>
      <point x="1268" y="309"/>
      <point x="1036" y="46"/>
      <point x="622" y="46" type="curve" smooth="yes"/>
      <point x="256" y="46" type="line"/>
      <point x="256" y="0" type="line"/>
    </contour>
    <contour>
      <point x="278" y="1490" type="line"/>
      <point x="232" y="1490" type="line"/>
      <point x="232" y="0" type="line"/>
      <point x="278" y="0" type="line"/>
    </contour>
  </outline>
</glyph>
<glyph name="E" format="2">
  <advance width="1196"/>
  <unicode hex="0045"/>
  <anchor x="640" y="0" name="bottom"/>
  <anchor x="640" y="0" name="cedilla"/>
  <anchor x="1048" y="0" name="ogonek"/>
  <anchor x="232" y="1490" name="tonos"/>
  <anchor x="640" y="1490" name="top"/>
  <outline>
    <contour>
      <point x="232" y="0" type="line"/>
      <point x="1048" y="0" type="line"/>
      <point x="1048" y="46" type="line"/>
      <point x="278" y="46" type="line"/>
      <point x="278" y="722" type="line"/>
      <point x="984" y="722" type="line"/>
      <point x="984" y="768" type="line"/>
      <point x="278" y="768" type="line"/>
      <point x="278" y="1444" type="line"/>
      <point x="1026" y="1444" type="line"/>
      <point x="1026" y="1490" type="line"/>
      <point x="232" y="1490" type="line"/>
    </contour>
  </outline>
</glyph>
<glyph name="F" format="2">
  <advance width="1196"/>
  <unicode hex="0046"/>
  <anchor x="255" y="0" name="bottom"/>
  <anchor x="255" y="410" name="cross"/>
  <anchor x="232" y="0" name="lfthook"/>
  <anchor x="632" y="1490" name="top"/>
  <outline>
    <contour>
      <point x="232" y="0" type="line"/>
      <point x="278" y="0" type="line"/>
      <point x="278" y="722" type="line"/>
      <point x="960" y="722" type="line"/>
      <point x="960" y="768" type="line"/>
      <point x="278" y="768" type="line"/>
      <point x="278" y="1444" type="line"/>
      <point x="1030" y="1444" type="line"/>
      <point x="1030" y="1490" type="line"/>
      <point x="232" y="1490" type="line"/>
    </contour>
  </outline>
</glyph>
<glyph name="G" format="2">
  <advance width="1536"/>
  <unicode hex="0047"/>
  <anchor x="756" y="0" name="bottom"/>
  <anchor x="1060" y="354" name="cross"/>
  <anchor x="756" y="1490" name="top"/>
  <anchor x="1336" y="1024" name="topr"/>
  <outline>
    <contour>
      <point x="770" y="-20" type="curve" smooth="yes"/>
      <point x="1119" y="-20"/>
      <point x="1334" y="236"/>
      <point x="1334" y="628" type="curve" smooth="yes"/>
      <point x="1334" y="636" type="line"/>
      <point x="1303" y="636" type="line"/>
      <point x="1303" y="262"/>
      <point x="1095" y="26"/>
      <point x="770" y="26" type="curve" smooth="yes"/>
      <point x="419" y="26"/>
      <point x="194" y="319"/>
      <point x="194" y="744" type="curve" smooth="yes"/>
      <point x="194" y="1175"/>
      <point x="423" y="1464"/>
      <point x="766" y="1464" type="curve" smooth="yes"/>
      <point x="1071" y="1464"/>
      <point x="1254" y="1227"/>
      <point x="1289" y="1024" type="curve"/>
      <point x="1336" y="1024" type="line"/>
      <point x="1300" y="1236"/>
      <point x="1113" y="1510"/>
      <point x="766" y="1510" type="curve" smooth="yes"/>
      <point x="396" y="1510"/>
      <point x="148" y="1203"/>
      <point x="148" y="744" type="curve" smooth="yes"/>
      <point x="148" y="289"/>
      <point x="393" y="-20"/>
    </contour>
    <contour>
      <point x="1308" y="0" type="line"/>
      <point x="1346" y="0" type="line"/>
      <point x="1346" y="672" type="line"/>
      <point x="784" y="672" type="line"/>
      <point x="784" y="626" type="line"/>
      <point x="1312" y="626" type="line"/>
      <point x="1304" y="459" type="line"/>
    </contour>
  </outline>
</glyph>
<glyph name="H" format="2">
  <advance width="1504"/>
  <unicode hex="0048"/>
  <anchor x="752" y="0" name="bottom"/>
  <anchor x="255" y="0" name="cedilla"/>
  <anchor x="1272" y="0" name="cyrtic"/>
  <anchor x="1226" y="0" name="lfthook"/>
  <anchor x="1272" y="0" name="right"/>
  <anchor x="232" y="1490" name="tonos"/>
  <anchor x="752" y="1490" name="top"/>
  <outline>
    <contour>
      <point x="232" y="0" type="line"/>
      <point x="278" y="0" type="line"/>
      <point x="278" y="738" type="line"/>
      <point x="1226" y="738" type="line"/>
      <point x="1226" y="0" type="line"/>
      <point x="1272" y="0" type="line"/>
      <point x="1272" y="1490" type="line"/>
      <point x="1226" y="1490" type="line"/>
      <point x="1226" y="784" type="line"/>
      <point x="278" y="784" type="line"/>
      <point x="278" y="1490" type="line"/>
      <point x="232" y="1490" type="line"/>
    </contour>
  </outline>
</glyph>
<glyph name="J" format="2">
  <advance width="1144"/>
  <unicode hex="004A"/>
  <anchor x="920" y="884" name="cross"/>
  <anchor x="920" y="1490" name="top"/>
  <outline>
    <contour>
      <point x="552" y="-20" type="curve" smooth="yes"/>
      <point x="793" y="-20"/>
      <point x="944" y="140"/>
      <point x="944" y="396" type="curve" smooth="yes"/>
      <point x="944" y="1490" type="line"/>
      <point x="898" y="1490" type="line"/>
      <point x="898" y="396" type="line" smooth="yes"/>
      <point x="898" y="167"/>
      <point x="768" y="26"/>
      <point x="552" y="26" type="curve" smooth="yes"/>
      <point x="336" y="26"/>
      <point x="206" y="167"/>
      <point x="206" y="396" type="curve" smooth="yes"/>
      <point x="206" y="464" type="line"/>
      <point x="160" y="464" type="line"/>
      <point x="160" y="396" type="line" smooth="yes"/>
      <point x="160" y="140"/>
      <point x="311" y="-20"/>
    </contour>
  </outline>
</glyph>
<glyph name="K" format="2">
  <advance width="1224"/>
  <unicode hex="004B"/>
  <anchor x="662" y="0" name="bottom"/>
  <anchor x="662" y="1490" name="top"/>
  <outline>
    <contour>
      <point x="273" y="536" type="line"/>
      <point x="533" y="817" type="line"/>
      <point x="545" y="828" type="line"/>
      <point x="1158" y="1490" type="line"/>
      <point x="1097" y="1490" type="line"/>
      <point x="598" y="952" type="line" smooth="yes"/>
      <point x="478" y="823"/>
      <point x="378" y="713"/>
      <point x="258" y="584" type="curve"/>
    </contour>
    <contour>
      <point x="232" y="0" type="line"/>
      <point x="278" y="0" type="line"/>
      <point x="278" y="560" type="line"/>
      <point x="278" y="592" type="line"/>
      <point x="278" y="960" type="line"/>
      <point x="278" y="1490" type="line"/>
      <point x="232" y="1490" type="line"/>
    </contour>
    <contour>
      <point x="1101" y="0" type="line"/>
      <point x="1156" y="0" type="line"/>
      <point x="550" y="852" type="line"/>
      <point x="513" y="826" type="line"/>
    </contour>
  </outline>
</glyph>
<glyph name="L" format="2">
  <advance width="1152"/>
  <unicode hex="004C"/>
  <anchor x="628" y="0" name="bottom"/>
  <anchor x="384" y="745" name="cross"/>
  <anchor x="606" y="748" name="dot"/>
  <anchor x="626" y="1490" name="raccent"/>
  <anchor x="256" y="1490" name="top"/>
  <outline>
    <contour>
      <point x="232" y="0" type="line"/>
      <point x="1024" y="0" type="line"/>
      <point x="1024" y="46" type="line"/>
      <point x="280" y="46" type="line"/>
      <point x="280" y="1490" type="line"/>
      <point x="232" y="1490" type="line"/>
    </contour>
  </outline>
</glyph>
<glyph name="M" format="2">
  <advance width="1832"/>
  <unicode hex="004D"/>
  <anchor x="916" y="0" name="bottom"/>
  <anchor x="1568" y="0" name="cyrtic"/>
  <anchor x="916" y="1490" name="top"/>
  <outline>
    <contour>
      <point x="232" y="0" type="line"/>
      <point x="278" y="0" type="line"/>
      <point x="278" y="1136" type="line" smooth="yes"/>
      <point x="278" y="1243"/>
      <point x="277" y="1357"/>
      <point x="277" y="1464" type="curve"/>
      <point x="263" y="1464" type="line"/>
      <point x="308" y="1351"/>
      <point x="354" y="1243"/>
      <point x="400" y="1136" type="curve" smooth="yes"/>
      <point x="893" y="0" type="line"/>
      <point x="939" y="0" type="line"/>
      <point x="1432" y="1136" type="line" smooth="yes"/>
      <point x="1478" y="1243"/>
      <point x="1524" y="1351"/>
      <point x="1569" y="1464" type="curve"/>
      <point x="1555" y="1464" type="line"/>
      <point x="1555" y="1357"/>
      <point x="1554" y="1243"/>
      <point x="1554" y="1136" type="curve" smooth="yes"/>
      <point x="1554" y="0" type="line"/>
      <point x="1600" y="0" type="line"/>
      <point x="1600" y="1490" type="line"/>
      <point x="1536" y="1490" type="line"/>
      <point x="1022" y="304" type="line" smooth="yes"/>
      <point x="983" y="213"/>
      <point x="943" y="119"/>
      <point x="904" y="24" type="curve"/>
      <point x="928" y="24" type="line"/>
      <point x="889" y="119"/>
      <point x="850" y="213"/>
      <point x="811" y="304" type="curve" smooth="yes"/>
      <point x="296" y="1490" type="line"/>
      <point x="232" y="1490" type="line"/>
    </contour>
  </outline>
</glyph>
<glyph name="N" format="2">
  <advance width="1580"/>
  <unicode hex="004E"/>
  <anchor x="790" y="0" name="bottom"/>
  <anchor x="232" y="0" name="lfthook"/>
  <anchor x="1348" y="0" name="lfthook2"/>
  <anchor x="790" y="1490" name="top"/>
  <outline>
    <contour>
      <point x="232" y="0" type="line"/>
      <point x="278" y="0" type="line"/>
      <point x="278" y="1129" type="line" smooth="yes"/>
      <point x="278" y="1233"/>
      <point x="274" y="1337"/>
      <point x="274" y="1441" type="curve"/>
      <point x="260" y="1441" type="line"/>
      <point x="336" y="1337"/>
      <point x="407" y="1233"/>
      <point x="483" y="1129" type="curve" smooth="yes"/>
      <point x="1304" y="0" type="line"/>
      <point x="1348" y="0" type="line"/>
      <point x="1348" y="1490" type="line"/>
      <point x="1302" y="1490" type="line"/>
      <point x="1302" y="359" type="line" smooth="yes"/>
      <point x="1302" y="255"/>
      <point x="1306" y="152"/>
      <point x="1306" y="48" type="curve"/>
      <point x="1321" y="48" type="line"/>
      <point x="1246" y="152"/>
      <point x="1174" y="255"/>
      <point x="1099" y="359" type="curve" smooth="yes"/>
      <point x="276" y="1490" type="line"/>
      <point x="232" y="1490" type="line"/>
    </contour>
  </outline>
</glyph>
<glyph name="O" format="2">
  <advance width="1530"/>
  <unicode hex="004F"/>
  <anchor x="766" y="0" name="bottom"/>
  <anchor x="766" y="745" name="center"/>
  <anchor x="1382" y="744" name="ogonek"/>
  <anchor x="286" y="1490" name="tonos"/>
  <anchor x="766" y="1490" name="top"/>
  <anchor x="766" y="1510" name="tophorn"/>
  <outline>
    <contour>
      <point x="766" y="-20" type="curve" smooth="yes"/>
      <point x="1132" y="-20"/>
      <point x="1382" y="289"/>
      <point x="1382" y="744" type="curve" smooth="yes"/>
      <point x="1382" y="1200"/>
      <point x="1132" y="1510"/>
      <point x="766" y="1510" type="curve" smooth="yes"/>
      <point x="398" y="1510"/>
      <point x="148" y="1199"/>
      <point x="148" y="744" type="curve" smooth="yes"/>
      <point x="148" y="291"/>
      <point x="397" y="-20"/>
    </contour>
    <contour>
      <point x="766" y="26" type="curve" smooth="yes"/>
      <point x="423" y="26"/>
      <point x="194" y="320"/>
      <point x="194" y="744" type="curve" smooth="yes"/>
      <point x="194" y="1175"/>
      <point x="428" y="1464"/>
      <point x="766" y="1464" type="curve" smooth="yes"/>
      <point x="1104" y="1464"/>
      <point x="1336" y="1172"/>
      <point x="1336" y="744" type="curve" smooth="yes"/>
      <point x="1336" y="317"/>
      <point x="1104" y="26"/>
    </contour>
  </outline>
</glyph>
<glyph name="P" format="2">
  <advance width="1242"/>
  <unicode hex="0050"/>
  <anchor x="190" y="1490" name="tonos"/>
  <anchor x="638" y="1490" name="top"/>
  <anchor x="232" y="1490" name="topl"/>
  <outline>
    <contour>
      <point x="232" y="0" type="line"/>
      <point x="278" y="0" type="line"/>
      <point x="278" y="1444" type="line"/>
      <point x="670" y="1444" type="line" smooth="yes"/>
      <point x="892" y="1444"/>
      <point x="1050" y="1281"/>
      <point x="1050" y="1054" type="curve" smooth="yes"/>
      <point x="1050" y="826"/>
      <point x="892" y="666"/>
      <point x="670" y="666" type="curve" smooth="yes"/>
      <point x="256" y="666" type="line"/>
      <point x="256" y="620" type="line"/>
      <point x="670" y="620" type="line" smooth="yes"/>
      <point x="919" y="620"/>
      <point x="1096" y="799"/>
      <point x="1096" y="1054" type="curve" smooth="yes"/>
      <point x="1096" y="1308"/>
      <point x="919" y="1490"/>
      <point x="670" y="1490" type="curve" smooth="yes"/>
      <point x="232" y="1490" type="line"/>
    </contour>
  </outline>
</glyph>
<glyph name="Q" format="2">
  <advance width="1530"/>
  <unicode hex="0051"/>
  <anchor x="766" y="0" name="bottom"/>
  <anchor x="766" y="745" name="center"/>
  <anchor x="1382" y="744" name="ogonek"/>
  <anchor x="286" y="1490" name="tonos"/>
  <anchor x="766" y="1490" name="top"/>
  <anchor x="766" y="1510" name="tophorn"/>
  <outline>
    <contour>
      <point x="824" y="466" type="line"/>
      <point x="1082" y="122" type="line"/>
      <point x="1092" y="110" type="line"/>
      <point x="1280" y="-140" type="line"/>
      <point x="1338" y="-140" type="line"/>
      <point x="1132" y="134" type="line"/>
      <point x="1122" y="146" type="line"/>
      <point x="882" y="466" type="line"/>
    </contour>
    <component base="O"/>
  </outline>
</glyph>
<glyph name="R" format="2">
  <advance width="1260"/>
  <unicode hex="0052"/>
  <anchor x="646" y="0" name="bottom"/>
  <anchor x="626" y="1490" name="top"/>
  <outline>
    <contour>
      <point x="232" y="0" type="line"/>
      <point x="278" y="0" type="line"/>
      <point x="278" y="1444" type="line"/>
      <point x="670" y="1444" type="line" smooth="yes"/>
      <point x="892" y="1444"/>
      <point x="1050" y="1293"/>
      <point x="1050" y="1064" type="curve" smooth="yes"/>
      <point x="1050" y="838"/>
      <point x="892" y="688"/>
      <point x="670" y="688" type="curve" smooth="yes"/>
      <point x="256" y="688" type="line"/>
      <point x="256" y="642" type="line"/>
      <point x="670" y="642" type="line" smooth="yes"/>
      <point x="919" y="642"/>
      <point x="1096" y="811"/>
      <point x="1096" y="1064" type="curve" smooth="yes"/>
      <point x="1096" y="1320"/>
      <point x="919" y="1490"/>
      <point x="670" y="1490" type="curve" smooth="yes"/>
      <point x="232" y="1490" type="line"/>
    </contour>
    <contour>
      <point x="1114" y="0" type="line"/>
      <point x="1166" y="0" type="line"/>
      <point x="800" y="678" type="line"/>
      <point x="748" y="678" type="line"/>
    </contour>
  </outline>
</glyph>
<glyph name="S" format="2">
  <advance width="1254"/>
  <unicode hex="0053"/>
  <anchor x="628" y="0" name="bottom"/>
  <anchor x="628" y="0" name="cedilla"/>
  <anchor x="628" y="1490" name="top"/>
  <outline>
    <contour>
      <point x="622" y="-24" type="curve" smooth="yes"/>
      <point x="905" y="-24"/>
      <point x="1096" y="145"/>
      <point x="1096" y="378" type="curve" smooth="yes"/>
      <point x="1096" y="561"/>
      <point x="979" y="677"/>
      <point x="722" y="756" type="curve" smooth="yes"/>
      <point x="552" y="808" type="line" smooth="yes"/>
      <point x="339" y="873"/>
      <point x="238" y="977"/>
      <point x="238" y="1128" type="curve" smooth="yes"/>
      <point x="238" y="1324"/>
      <point x="407" y="1466"/>
      <point x="634" y="1466" type="curve" smooth="yes"/>
      <point x="865" y="1466"/>
      <point x="1015" y="1321"/>
      <point x="1030" y="1118" type="curve"/>
      <point x="1076" y="1118" type="line"/>
      <point x="1062" y="1347"/>
      <point x="889" y="1512"/>
      <point x="634" y="1512" type="curve" smooth="yes"/>
      <point x="380" y="1512"/>
      <point x="192" y="1348"/>
      <point x="192" y="1128" type="curve" smooth="yes"/>
      <point x="192" y="956"/>
      <point x="307" y="835"/>
      <point x="542" y="762" type="curve" smooth="yes"/>
      <point x="710" y="710" type="line" smooth="yes"/>
      <point x="951" y="635"/>
      <point x="1050" y="538"/>
      <point x="1050" y="378" type="curve" smooth="yes"/>
      <point x="1050" y="167"/>
      <point x="879" y="24"/>
      <point x="622" y="24" type="curve" smooth="yes"/>
      <point x="377" y="24"/>
      <point x="218" y="156"/>
      <point x="204" y="350" type="curve"/>
      <point x="158" y="350" type="line"/>
      <point x="172" y="130"/>
      <point x="351" y="-24"/>
    </contour>
  </outline>
</glyph>
<glyph name="T" format="2">
  <advance width="1262"/>
  <unicode hex="0054"/>
  <anchor x="631" y="0" name="bottom"/>
  <anchor x="654" y="0" name="bottomr"/>
  <anchor x="631" y="0" name="cedilla"/>
  <anchor x="630" y="768" name="cross"/>
  <anchor x="654" y="0" name="cyrtic"/>
  <anchor x="642" y="0" name="right"/>
  <anchor x="630" y="1490" name="top"/>
  <outline>
    <contour>
      <point x="128" y="1444" type="line"/>
      <point x="608" y="1444" type="line"/>
      <point x="608" y="0" type="line"/>
      <point x="654" y="0" type="line"/>
      <point x="654" y="1444" type="line"/>
      <point x="1134" y="1444" type="line"/>
      <point x="1134" y="1490" type="line"/>
      <point x="128" y="1490" type="line"/>
    </contour>
  </outline>
</glyph>
<glyph name="U" format="2">
  <advance width="1472"/>
  <unicode hex="0055"/>
  <anchor x="736" y="0" name="bottom"/>
  <anchor x="1272" y="504" name="ogonek"/>
  <anchor x="798" y="0" name="right"/>
  <anchor x="1224" y="1490" name="rtophorn"/>
  <anchor x="736" y="1490" name="top"/>
  <outline>
    <contour>
      <point x="736" y="-22" type="curve" smooth="yes"/>
      <point x="1042" y="-22"/>
      <point x="1272" y="201"/>
      <point x="1272" y="504" type="curve" smooth="yes"/>
      <point x="1272" y="1490" type="line"/>
      <point x="1226" y="1490" type="line"/>
      <point x="1226" y="504" type="line" smooth="yes"/>
      <point x="1226" y="228"/>
      <point x="1017" y="24"/>
      <point x="736" y="24" type="curve" smooth="yes"/>
      <point x="455" y="24"/>
      <point x="246" y="228"/>
      <point x="246" y="504" type="curve" smooth="yes"/>
      <point x="246" y="1490" type="line"/>
      <point x="200" y="1490" type="line"/>
      <point x="200" y="504" type="line" smooth="yes"/>
      <point x="200" y="202"/>
      <point x="431" y="-22"/>
    </contour>
  </outline>
</glyph>
<glyph name="V" format="2">
  <advance width="1310"/>
  <unicode hex="0056"/>
  <anchor x="655" y="0" name="bottom"/>
  <anchor x="655" y="1490" name="top"/>
  <outline>
    <contour>
      <point x="624" y="0" type="line"/>
      <point x="687" y="0" type="line"/>
      <point x="1244" y="1490" type="line"/>
      <point x="1195" y="1490" type="line"/>
      <point x="765" y="336" type="line" smooth="yes"/>
      <point x="725" y="229"/>
      <point x="686" y="123"/>
      <point x="647" y="16" type="curve"/>
      <point x="665" y="16" type="line"/>
      <point x="626" y="123"/>
      <point x="587" y="229"/>
      <point x="547" y="336" type="curve" smooth="yes"/>
      <point x="115" y="1490" type="line"/>
      <point x="66" y="1490" type="line"/>
    </contour>
  </outline>
</glyph>
<glyph name="W" format="2">
  <advance width="1902"/>
  <unicode hex="0057"/>
  <anchor x="951" y="0" name="bottom"/>
  <anchor x="951" y="1490" name="top"/>
  <outline>
    <contour>
      <point x="488" y="0" type="line"/>
      <point x="558" y="0" type="line"/>
      <point x="859" y="1104" type="line" smooth="yes"/>
      <point x="892" y="1227"/>
      <point x="925" y="1349"/>
      <point x="956" y="1472" type="curve"/>
      <point x="946" y="1472" type="line"/>
      <point x="977" y="1349"/>
      <point x="1010" y="1227"/>
      <point x="1043" y="1104" type="curve" smooth="yes"/>
      <point x="1344" y="0" type="line"/>
      <point x="1414" y="0" type="line"/>
      <point x="1836" y="1490" type="line"/>
      <point x="1788" y="1490" type="line"/>
      <point x="1466" y="352" type="line" smooth="yes"/>
      <point x="1434" y="240"/>
      <point x="1404" y="128"/>
      <point x="1374" y="16" type="curve"/>
      <point x="1384" y="16" type="line"/>
      <point x="1356" y="128"/>
      <point x="1326" y="240"/>
      <point x="1296" y="352" type="curve" smooth="yes"/>
      <point x="986" y="1490" type="line"/>
      <point x="916" y="1490" type="line"/>
      <point x="606" y="352" type="line" smooth="yes"/>
      <point x="576" y="240"/>
      <point x="546" y="128"/>
      <point x="518" y="16" type="curve"/>
      <point x="528" y="16" type="line"/>
      <point x="498" y="128"/>
      <point x="468" y="240"/>
      <point x="436" y="352" type="curve" smooth="yes"/>
      <point x="114" y="1490" type="line"/>
      <point x="66" y="1490" type="line"/>
    </contour>
  </outline>
</glyph>
<glyph name="X" format="2">
  <advance width="1270"/>
  <unicode hex="0058"/>
  <anchor x="635" y="0" name="bottom"/>
  <anchor x="635" y="756" name="cross"/>
  <anchor x="1178" y="0" name="cyrtic"/>
  <anchor x="635" y="1490" name="top"/>
  <outline>
    <contour>
      <point x="66" y="0" type="line"/>
      <point x="122" y="0" type="line"/>
      <point x="478" y="496" type="line" smooth="yes"/>
      <point x="535" y="575"/>
      <point x="589" y="654"/>
      <point x="645" y="738" type="curve"/>
      <point x="625" y="738" type="line"/>
      <point x="681" y="654"/>
      <point x="736" y="575"/>
      <point x="793" y="496" type="curve" smooth="yes"/>
      <point x="1148" y="0" type="line"/>
      <point x="1204" y="0" type="line"/>
      <point x="651" y="773" type="line"/>
      <point x="651" y="739" type="line"/>
      <point x="1188" y="1490" type="line"/>
      <point x="1132" y="1490" type="line"/>
      <point x="798" y="1024" type="line" smooth="yes"/>
      <point x="739" y="942"/>
      <point x="682" y="862"/>
      <point x="625" y="775" type="curve"/>
      <point x="646" y="775" type="line"/>
      <point x="589" y="862"/>
      <point x="531" y="942"/>
      <point x="472" y="1024" type="curve" smooth="yes"/>
      <point x="138" y="1490" type="line"/>
      <point x="82" y="1490" type="line"/>
      <point x="619" y="741" type="line"/>
      <point x="619" y="773" type="line"/>
    </contour>
  </outline>
</glyph>
<glyph name="Y" format="2">
  <advance width="1312"/>
  <unicode hex="0059"/>
  <anchor x="656" y="0" name="bottom"/>
  <anchor x="656" y="438" name="cross"/>
  <anchor x="680" y="0" name="ogonek"/>
  <anchor x="66" y="1490" name="tonos"/>
  <anchor x="656" y="1490" name="top"/>
  <outline>
    <contour>
      <point x="634" y="0" type="line"/>
      <point x="680" y="0" type="line"/>
      <point x="680" y="706" type="line"/>
      <point x="1246" y="1490" type="line"/>
      <point x="1190" y="1490" type="line"/>
      <point x="831" y="992" type="line" smooth="yes"/>
      <point x="769" y="907"/>
      <point x="709" y="821"/>
      <point x="648" y="736" type="curve"/>
      <point x="666" y="736" type="line"/>
      <point x="605" y="821"/>
      <point x="545" y="907"/>
      <point x="483" y="992" type="curve" smooth="yes"/>
      <point x="122" y="1490" type="line"/>
      <point x="66" y="1490" type="line"/>
      <point x="634" y="706" type="line"/>
    </contour>
  </outline>
</glyph>
<glyph name="Z" format="2">
  <advance width="1244"/>
  <unicode hex="005A"/>
  <anchor x="620" y="0" name="bottom"/>
  <anchor x="1090" y="0" name="bottomr"/>
  <anchor x="620" y="744" name="cross"/>
  <anchor x="620" y="1490" name="top"/>
  <outline>
    <contour>
      <point x="154" y="0" type="line"/>
      <point x="1090" y="0" type="line"/>
      <point x="1090" y="46" type="line"/>
      <point x="502" y="46" type="line" smooth="yes"/>
      <point x="398" y="46"/>
      <point x="293" y="46"/>
      <point x="189" y="46" type="curve"/>
      <point x="199" y="28" type="line"/>
      <point x="247" y="104"/>
      <point x="294" y="180"/>
      <point x="342" y="256" type="curve" smooth="yes"/>
      <point x="1086" y="1442" type="line"/>
      <point x="1086" y="1490" type="line"/>
      <point x="160" y="1490" type="line"/>
      <point x="160" y="1442" type="line"/>
      <point x="725" y="1442" type="line" smooth="yes"/>
      <point x="834" y="1442"/>
      <point x="942" y="1442"/>
      <point x="1051" y="1442" type="curve"/>
      <point x="1041" y="1460" type="line"/>
      <point x="991" y="1381"/>
      <point x="942" y="1301"/>
      <point x="892" y="1222" type="curve" smooth="yes"/>
      <point x="154" y="46" type="line"/>
    </contour>
  </outline>
</glyph>
<glyph name="bracketleft" format="2">
  <advance width="646"/>
  <unicode hex="005B"/>
  <anchor x="279" y="651" name="cross"/>
  <outline>
    <contour>
      <point x="256" y="-280" type="line"/>
      <point x="488" y="-280" type="line"/>
      <point x="488" y="-234" type="line"/>
      <point x="302" y="-234" type="line"/>
      <point x="302" y="1536" type="line"/>
      <point x="488" y="1536" type="line"/>
      <point x="488" y="1582" type="line"/>
      <point x="256" y="1582" type="line"/>
    </contour>
  </outline>
</glyph>
<glyph name="backslash" format="2">
  <advance width="660"/>
  <unicode hex="005C"/>
  <outline>
    <contour>
      <point x="546" y="-224" type="line"/>
      <point x="594" y="-224" type="line"/>
      <point x="114" y="1560" type="line"/>
      <point x="66" y="1560" type="line"/>
    </contour>
  </outline>
</glyph>
<glyph name="bracketright" format="2">
  <advance width="646"/>
  <unicode hex="005D"/>
  <anchor x="367" y="651" name="cross"/>
  <outline>
    <contour>
      <point x="158" y="-280" type="line"/>
      <point x="390" y="-280" type="line"/>
      <point x="390" y="1582" type="line"/>
      <point x="158" y="1582" type="line"/>
      <point x="158" y="1534" type="line"/>
      <point x="344" y="1534" type="line"/>
      <point x="344" y="-234" type="line"/>
      <point x="158" y="-234" type="line"/>
    </contour>
  </outline>
</glyph>
<glyph name="asciicircum" format="2">
  <advance width="820"/>
  <unicode hex="005E"/>
  <outline>
    <contour>
      <point x="396" y="1414" type="line"/>
      <point x="396" y="1368" type="line"/>
      <point x="424" y="1368" type="line"/>
      <point x="424" y="1414" type="line"/>
    </contour>
    <contour>
      <point x="96" y="814" type="line"/>
      <point x="148" y="814" type="line"/>
      <point x="422" y="1396" type="line"/>
      <point x="398" y="1396" type="line"/>
      <point x="672" y="814" type="line"/>
      <point x="724" y="814" type="line"/>
      <point x="428" y="1442" type="line"/>
      <point x="392" y="1442" type="line"/>
    </contour>
  </outline>
</glyph>
<glyph name="underscore" format="2">
  <advance width="884"/>
  <unicode hex="005F"/>
  <anchor x="442" y="243" name="_bottom"/>
  <outline>
    <contour>
      <point x="884" y="0" type="line"/>
      <point x="0" y="0" type="line"/>
      <point x="0" y="-46" type="line"/>
      <point x="884" y="-46" type="line"/>
    </contour>
  </outline>
</glyph>
<glyph name="a" format="2">
  <advance width="1190"/>
  <unicode hex="0061"/>
  <anchor x="600" y="0" name="bottom"/>
  <anchor x="992" y="0" name="bottomr"/>
  <anchor x="992" y="0" name="ogonek"/>
  <anchor x="582" y="1118" name="top"/>
  <anchor x="992" y="1118" name="topr"/>
  <outline>
    <contour>
      <point x="562" y="-24" type="curve" smooth="yes"/>
      <point x="740" y="-24"/>
      <point x="879" y="95"/>
      <point x="940" y="280" type="curve"/>
      <point x="946" y="280" type="line"/>
      <point x="946" y="0" type="line"/>
      <point x="992" y="0" type="line"/>
      <point x="992" y="1118" type="line"/>
      <point x="946" y="1118" type="line"/>
      <point x="946" y="832" type="line"/>
      <point x="940" y="832" type="line"/>
      <point x="881" y="1018"/>
      <point x="739" y="1134"/>
      <point x="562" y="1134" type="curve" smooth="yes"/>
      <point x="300" y="1134"/>
      <point x="130" y="884"/>
      <point x="130" y="556" type="curve" smooth="yes"/>
      <point x="130" y="225"/>
      <point x="297" y="-24"/>
    </contour>
    <contour>
      <point x="562" y="22" type="curve" smooth="yes"/>
      <point x="324" y="22"/>
      <point x="176" y="253"/>
      <point x="176" y="556" type="curve" smooth="yes"/>
      <point x="176" y="858"/>
      <point x="326" y="1088"/>
      <point x="562" y="1088" type="curve" smooth="yes"/>
      <point x="797" y="1088"/>
      <point x="946" y="858"/>
      <point x="946" y="556" type="curve" smooth="yes"/>
      <point x="946" y="253"/>
      <point x="799" y="22"/>
    </contour>
  </outline>
</glyph>
<glyph name="b" format="2">
  <advance width="1190"/>
  <unicode hex="0062"/>
  <anchor x="630" y="0" name="bottom"/>
  <anchor x="244" y="1304" name="cross"/>
  <anchor x="630" y="1304" name="top"/>
  <anchor x="198" y="1490" name="topbar"/>
  <outline>
    <contour>
      <point x="630" y="-24" type="curve" smooth="yes"/>
      <point x="893" y="-24"/>
      <point x="1060" y="225"/>
      <point x="1060" y="556" type="curve" smooth="yes"/>
      <point x="1060" y="884"/>
      <point x="891" y="1134"/>
      <point x="630" y="1134" type="curve" smooth="yes"/>
      <point x="452" y="1134"/>
      <point x="307" y="1018"/>
      <point x="250" y="832" type="curve"/>
      <point x="244" y="832" type="line"/>
      <point x="244" y="1490" type="line"/>
      <point x="198" y="1490" type="line"/>
      <point x="198" y="0" type="line"/>
      <point x="244" y="0" type="line"/>
      <point x="244" y="280" type="line"/>
      <point x="250" y="280" type="line"/>
      <point x="309" y="94"/>
      <point x="450" y="-24"/>
    </contour>
    <contour>
      <point x="630" y="22" type="curve" smooth="yes"/>
      <point x="392" y="22"/>
      <point x="244" y="253"/>
      <point x="244" y="556" type="curve" smooth="yes"/>
      <point x="244" y="858"/>
      <point x="394" y="1088"/>
      <point x="630" y="1088" type="curve" smooth="yes"/>
      <point x="865" y="1088"/>
      <point x="1014" y="858"/>
      <point x="1014" y="556" type="curve" smooth="yes"/>
      <point x="1014" y="253"/>
      <point x="866" y="22"/>
    </contour>
  </outline>
</glyph>
<glyph name="e" format="2">
  <advance width="1172"/>
  <unicode hex="0065"/>
  <anchor x="590" y="0" name="bottom"/>
  <anchor x="594" y="0" name="cedilla"/>
  <anchor x="1004" y="198" name="ogonek"/>
  <anchor x="590" y="1118" name="top"/>
  <outline>
    <contour>
      <point x="616" y="-24" type="curve" smooth="yes"/>
      <point x="834" y="-24"/>
      <point x="954" y="113"/>
      <point x="1004" y="198" type="curve"/>
      <point x="966" y="224" type="line"/>
      <point x="925" y="157"/>
      <point x="823" y="22"/>
      <point x="616" y="22" type="curve" smooth="yes"/>
      <point x="335" y="22"/>
      <point x="176" y="268"/>
      <point x="176" y="562" type="curve" smooth="yes"/>
      <point x="176" y="568" type="line" smooth="yes"/>
      <point x="176" y="864"/>
      <point x="364" y="1088"/>
      <point x="594" y="1088" type="curve" smooth="yes"/>
      <point x="831" y="1088"/>
      <point x="1005" y="864"/>
      <point x="1005" y="584" type="curve"/>
      <point x="1025" y="604" type="line"/>
      <point x="154" y="604" type="line"/>
      <point x="154" y="558" type="line"/>
      <point x="1050" y="558" type="line"/>
      <point x="1050" y="584" type="line" smooth="yes"/>
      <point x="1050" y="898"/>
      <point x="855" y="1134"/>
      <point x="594" y="1134" type="curve" smooth="yes"/>
      <point x="329" y="1134"/>
      <point x="130" y="884"/>
      <point x="130" y="556" type="curve" smooth="yes"/>
      <point x="130" y="227"/>
      <point x="324" y="-24"/>
    </contour>
  </outline>
</glyph>
<glyph name="f" format="2">
  <advance width="602"/>
  <unicode hex="0066"/>
  <anchor x="251" y="0" name="bottom"/>
  <anchor x="251" y="768" name="cross"/>
  <anchor x="348" y="1552" name="top"/>
  <outline>
    <contour>
      <point x="548" y="1118" type="line"/>
      <point x="10" y="1118" type="line"/>
      <point x="10" y="1072" type="line"/>
      <point x="548" y="1072" type="line"/>
    </contour>
    <component base="_part.f_base" xOffset="-66"/>
  </outline>
</glyph>
<glyph name="g" format="2">
  <advance width="1190"/>
  <unicode hex="0067"/>
  <anchor x="562" y="-436" name="bottom"/>
  <anchor x="968" y="558" name="cross"/>
  <anchor x="596" y="1118" name="top"/>
  <anchor x="992" y="1118" name="topr"/>
  <outline>
    <contour>
      <point x="576" y="-442" type="curve" smooth="yes"/>
      <point x="834" y="-442"/>
      <point x="992" y="-299"/>
      <point x="992" y="-24" type="curve" smooth="yes"/>
      <point x="992" y="1118" type="line"/>
      <point x="946" y="1118" type="line"/>
      <point x="946" y="832" type="line"/>
      <point x="940" y="832" type="line"/>
      <point x="879" y="1018"/>
      <point x="742" y="1134"/>
      <point x="562" y="1134" type="curve" smooth="yes"/>
      <point x="297" y="1134"/>
      <point x="130" y="887"/>
      <point x="130" y="556" type="curve" smooth="yes"/>
      <point x="130" y="227"/>
      <point x="300" y="0"/>
      <point x="562" y="0" type="curve" smooth="yes"/>
      <point x="727" y="0"/>
      <point x="881" y="93"/>
      <point x="940" y="280" type="curve"/>
      <point x="946" y="280" type="line"/>
      <point x="946" y="-24" type="line" smooth="yes"/>
      <point x="946" y="-274"/>
      <point x="809" y="-396"/>
      <point x="576" y="-396" type="curve" smooth="yes"/>
      <point x="408" y="-396"/>
      <point x="274" y="-332"/>
      <point x="224" y="-200" type="curve"/>
      <point x="180" y="-218" type="line"/>
      <point x="237" y="-367"/>
      <point x="388" y="-442"/>
    </contour>
    <contour>
      <point x="562" y="46" type="curve" smooth="yes"/>
      <point x="326" y="46"/>
      <point x="176" y="253"/>
      <point x="176" y="556" type="curve" smooth="yes"/>
      <point x="176" y="858"/>
      <point x="324" y="1088"/>
      <point x="562" y="1088" type="curve" smooth="yes"/>
      <point x="799" y="1088"/>
      <point x="946" y="858"/>
      <point x="946" y="556" type="curve" smooth="yes"/>
      <point x="946" y="242"/>
      <point x="794" y="46"/>
    </contour>
  </outline>
</glyph>
<glyph name="h" format="2">
  <advance width="1196"/>
  <unicode hex="0068"/>
  <anchor x="598" y="0" name="bottom"/>
  <anchor x="221" y="0" name="cedilla"/>
  <anchor x="244" y="1304" name="cross"/>
  <anchor x="952" y="0" name="lfthook"/>
  <anchor x="221" y="1490" name="top"/>
  <outline>
    <contour>
      <point x="244" y="750" type="line" smooth="yes"/>
      <point x="244" y="946"/>
      <point x="400" y="1088"/>
      <point x="608" y="1088" type="curve" smooth="yes"/>
      <point x="811" y="1088"/>
      <point x="952" y="953"/>
      <point x="952" y="750" type="curve" smooth="yes"/>
      <point x="952" y="0" type="line"/>
      <point x="998" y="0" type="line"/>
      <point x="998" y="750" type="line" smooth="yes"/>
      <point x="998" y="979"/>
      <point x="837" y="1134"/>
      <point x="608" y="1134" type="curve" smooth="yes"/>
      <point x="438" y="1134"/>
      <point x="280" y="1049"/>
      <point x="232" y="878" type="curve"/>
      <point x="244" y="878" type="line"/>
      <point x="244" y="1490" type="line"/>
      <point x="198" y="1490" type="line"/>
      <point x="198" y="0" type="line"/>
      <point x="244" y="0" type="line"/>
    </contour>
  </outline>
</glyph>
<glyph name="k" format="2">
  <advance width="998"/>
  <unicode hex="006B"/>
  <anchor x="538" y="0" name="bottom"/>
  <anchor x="221" y="1490" name="top"/>
  <outline>
    <contour>
      <point x="232" y="450" type="line"/>
      <point x="396" y="610" type="line"/>
      <point x="402" y="616" type="line"/>
      <point x="910" y="1118" type="line"/>
      <point x="844" y="1118" type="line"/>
      <point x="250" y="531" type="line"/>
      <point x="232" y="531" type="line"/>
    </contour>
    <contour>
      <point x="198" y="0" type="line"/>
      <point x="244" y="0" type="line"/>
      <point x="244" y="1490" type="line"/>
      <point x="198" y="1490" type="line"/>
    </contour>
    <contour>
      <point x="869" y="0" type="line"/>
      <point x="928" y="0" type="line"/>
      <point x="413" y="645" type="line"/>
      <point x="378" y="616" type="line"/>
    </contour>
  </outline>
</glyph>
<glyph name="l" format="2">
  <advance width="442"/>
  <unicode hex="006C"/>
  <anchor x="222" y="0" name="bottom"/>
  <anchor x="244" y="0" name="bottomr"/>
  <anchor x="244" y="745" name="centerr"/>
  <anchor x="222" y="768" name="cross"/>
  <anchor x="382" y="1490" name="raccent"/>
  <anchor x="221" y="1490" name="top"/>
  <outline>
    <contour>
      <point x="244" y="1490" type="line"/>
      <point x="198" y="1490" type="line"/>
      <point x="198" y="0" type="line"/>
      <point x="244" y="0" type="line"/>
    </contour>
  </outline>
</glyph>
<glyph name="m" format="2">
  <advance width="1774"/>
  <unicode hex="006D"/>
  <anchor x="887" y="0" name="bottom"/>
  <anchor x="1530" y="0" name="lfthook"/>
  <anchor x="887" y="1118" name="top"/>
  <outline>
    <contour>
      <point x="198" y="0" type="line"/>
      <point x="244" y="0" type="line"/>
      <point x="244" y="750" type="line" smooth="yes"/>
      <point x="244" y="947"/>
      <point x="388" y="1088"/>
      <point x="576" y="1088" type="curve" smooth="yes"/>
      <point x="751" y="1088"/>
      <point x="864" y="966"/>
      <point x="864" y="750" type="curve" smooth="yes"/>
      <point x="864" y="0" type="line"/>
      <point x="910" y="0" type="line"/>
      <point x="910" y="750" type="line" smooth="yes"/>
      <point x="910" y="966"/>
      <point x="1055" y="1088"/>
      <point x="1236" y="1088" type="curve" smooth="yes"/>
      <point x="1416" y="1088"/>
      <point x="1530" y="966"/>
      <point x="1530" y="750" type="curve" smooth="yes"/>
      <point x="1530" y="0" type="line"/>
      <point x="1576" y="0" type="line"/>
      <point x="1576" y="750" type="line" smooth="yes"/>
      <point x="1576" y="987"/>
      <point x="1445" y="1134"/>
      <point x="1236" y="1134" type="curve" smooth="yes"/>
      <point x="1060" y="1134"/>
      <point x="917" y="1025"/>
      <point x="879" y="838" type="curve"/>
      <point x="897" y="838" type="line"/>
      <point x="868" y="1025"/>
      <point x="741" y="1134"/>
      <point x="576" y="1134" type="curve" smooth="yes"/>
      <point x="428" y="1134"/>
      <point x="274" y="1051"/>
      <point x="228" y="854" type="curve"/>
      <point x="244" y="854" type="line"/>
      <point x="244" y="1118" type="line"/>
      <point x="198" y="1118" type="line"/>
    </contour>
  </outline>
</glyph>
<glyph name="n" format="2">
  <advance width="1196"/>
  <unicode hex="006E"/>
  <anchor x="598" y="0" name="bottom"/>
  <anchor x="998" y="0" name="bottomr"/>
  <anchor x="198" y="0" name="lfthook"/>
  <anchor x="600" y="1118" name="top"/>
  <anchor x="244" y="1118" name="topr"/>
  <outline>
    <contour>
      <point x="244" y="750" type="line" smooth="yes"/>
      <point x="244" y="946"/>
      <point x="400" y="1088"/>
      <point x="608" y="1088" type="curve" smooth="yes"/>
      <point x="811" y="1088"/>
      <point x="952" y="953"/>
      <point x="952" y="750" type="curve" smooth="yes"/>
      <point x="952" y="0" type="line"/>
      <point x="998" y="0" type="line"/>
      <point x="998" y="750" type="line" smooth="yes"/>
      <point x="998" y="979"/>
      <point x="837" y="1134"/>
      <point x="608" y="1134" type="curve" smooth="yes"/>
      <point x="438" y="1134"/>
      <point x="280" y="1049"/>
      <point x="232" y="878" type="curve"/>
      <point x="244" y="878" type="line"/>
      <point x="244" y="1118" type="line"/>
      <point x="198" y="1118" type="line"/>
      <point x="198" y="0" type="line"/>
      <point x="244" y="0" type="line"/>
    </contour>
  </outline>
</glyph>
<glyph name="o" format="2">
  <advance width="1186"/>
  <unicode hex="006F"/>
  <anchor x="594" y="0" name="bottom"/>
  <anchor x="594" y="559" name="center"/>
  <anchor x="1056" y="556" name="ogonek"/>
  <anchor x="594" y="1118" name="top"/>
  <anchor x="594" y="1134" name="tophorn"/>
  <outline>
    <contour>
      <point x="594" y="-24" type="curve" smooth="yes"/>
      <point x="857" y="-24"/>
      <point x="1056" y="226"/>
      <point x="1056" y="556" type="curve" smooth="yes"/>
      <point x="1056" y="884"/>
      <point x="856" y="1134"/>
      <point x="594" y="1134" type="curve" smooth="yes"/>
      <point x="330" y="1134"/>
      <point x="130" y="885"/>
      <point x="130" y="556" type="curve" smooth="yes"/>
      <point x="130" y="226"/>
      <point x="330" y="-24"/>
    </contour>
    <contour>
      <point x="594" y="22" type="curve" smooth="yes"/>
      <point x="356" y="22"/>
      <point x="176" y="252"/>
      <point x="176" y="556" type="curve" smooth="yes"/>
      <point x="176" y="857"/>
      <point x="358" y="1088"/>
      <point x="594" y="1088" type="curve" smooth="yes"/>
      <point x="830" y="1088"/>
      <point x="1010" y="858"/>
      <point x="1010" y="556" type="curve" smooth="yes"/>
      <point x="1010" y="252"/>
      <point x="831" y="22"/>
    </contour>
  </outline>
</glyph>
<glyph name="p" format="2">
  <advance width="1190"/>
  <unicode hex="0070"/>
  <anchor x="222" y="-418" name="bottom"/>
  <anchor x="222" y="-162" name="cross"/>
  <anchor x="628" y="1118" name="top"/>
  <anchor x="244" y="1118" name="topr"/>
  <outline>
    <contour>
      <point x="198" y="-418" type="line"/>
      <point x="244" y="-418" type="line"/>
      <point x="244" y="280" type="line"/>
      <point x="250" y="280" type="line"/>
      <point x="309" y="94"/>
      <point x="450" y="-24"/>
      <point x="630" y="-24" type="curve" smooth="yes"/>
      <point x="893" y="-24"/>
      <point x="1060" y="225"/>
      <point x="1060" y="556" type="curve" smooth="yes"/>
      <point x="1060" y="884"/>
      <point x="891" y="1134"/>
      <point x="630" y="1134" type="curve" smooth="yes"/>
      <point x="452" y="1134"/>
      <point x="307" y="1018"/>
      <point x="250" y="832" type="curve"/>
      <point x="244" y="832" type="line"/>
      <point x="244" y="1118" type="line"/>
      <point x="198" y="1118" type="line"/>
    </contour>
    <contour>
      <point x="630" y="22" type="curve" smooth="yes"/>
      <point x="392" y="22"/>
      <point x="244" y="253"/>
      <point x="244" y="556" type="curve" smooth="yes"/>
      <point x="244" y="858"/>
      <point x="394" y="1088"/>
      <point x="630" y="1088" type="curve" smooth="yes"/>
      <point x="865" y="1088"/>
      <point x="1014" y="858"/>
      <point x="1014" y="556" type="curve" smooth="yes"/>
      <point x="1014" y="253"/>
      <point x="866" y="22"/>
    </contour>
  </outline>
</glyph>
<glyph name="r" format="2">
  <advance width="666"/>
  <unicode hex="0072"/>
  <anchor x="222" y="0" name="bottom"/>
  <anchor x="244" y="0" name="bottomr"/>
  <anchor x="222" y="536" name="cross"/>
  <anchor x="428" y="1118" name="top"/>
  <outline>
    <contour>
      <point x="198" y="0" type="line"/>
      <point x="244" y="0" type="line"/>
      <point x="244" y="750" type="line" smooth="yes"/>
      <point x="244" y="945"/>
      <point x="387" y="1086"/>
      <point x="584" y="1086" type="curve" smooth="yes"/>
      <point x="596" y="1086"/>
      <point x="601" y="1086"/>
      <point x="608" y="1086" type="curve"/>
      <point x="608" y="1132" type="line"/>
      <point x="596" y="1132"/>
      <point x="596" y="1132"/>
      <point x="584" y="1132" type="curve" smooth="yes"/>
      <point x="431" y="1132"/>
      <point x="303" y="1056"/>
      <point x="250" y="940" type="curve"/>
      <point x="244" y="940" type="line"/>
      <point x="244" y="1118" type="line"/>
      <point x="198" y="1118" type="line"/>
    </contour>
  </outline>
</glyph>
<glyph name="s" format="2">
  <advance width="1010"/>
  <unicode hex="0073"/>
  <anchor x="518" y="0" name="bottom"/>
  <anchor x="516" y="0" name="cedilla"/>
  <anchor x="136" y="256" name="rthook"/>
  <anchor x="518" y="1118" name="top"/>
  <outline>
    <contour>
      <point x="504" y="-24" type="curve" smooth="yes"/>
      <point x="722" y="-24"/>
      <point x="876" y="100"/>
      <point x="876" y="282" type="curve" smooth="yes"/>
      <point x="876" y="420"/>
      <point x="787" y="518"/>
      <point x="624" y="559" type="curve" smooth="yes"/>
      <point x="448" y="603" type="line" smooth="yes"/>
      <point x="297" y="641"/>
      <point x="224" y="724"/>
      <point x="224" y="840" type="curve" smooth="yes"/>
      <point x="224" y="989"/>
      <point x="345" y="1088"/>
      <point x="524" y="1088" type="curve" smooth="yes"/>
      <point x="677" y="1088"/>
      <point x="775" y="1015"/>
      <point x="820" y="870" type="curve"/>
      <point x="866" y="882" type="line"/>
      <point x="812" y="1049"/>
      <point x="696" y="1134"/>
      <point x="524" y="1134" type="curve" smooth="yes"/>
      <point x="320" y="1134"/>
      <point x="178" y="1016"/>
      <point x="178" y="840" type="curve" smooth="yes"/>
      <point x="178" y="701"/>
      <point x="268" y="601"/>
      <point x="440" y="558" type="curve" smooth="yes"/>
      <point x="614" y="514" type="line" smooth="yes"/>
      <point x="757" y="478"/>
      <point x="830" y="398"/>
      <point x="830" y="282" type="curve" smooth="yes"/>
      <point x="830" y="127"/>
      <point x="697" y="22"/>
      <point x="504" y="22" type="curve" smooth="yes"/>
      <point x="326" y="22"/>
      <point x="215" y="108"/>
      <point x="182" y="267" type="curve"/>
      <point x="136" y="256" type="line"/>
      <point x="175" y="78"/>
      <point x="305" y="-24"/>
    </contour>
  </outline>
</glyph>
<glyph name="t" format="2">
  <advance width="516"/>
  <unicode hex="0074"/>
  <anchor x="334" y="0" name="bottom"/>
  <anchor x="334" y="0" name="cedilla"/>
  <anchor x="476" y="4" name="lfthook"/>
  <anchor x="221" y="1384" name="top"/>
  <anchor x="386" y="1562" name="raccent"/>
  <outline>
    <contour>
      <point x="476" y="1118" type="line"/>
      <point x="221" y="1118" type="line"/>
      <point x="221" y="1072" type="line"/>
      <point x="476" y="1072" type="line"/>
    </contour>
    <component base="_part.t_base" xOffset="-70"/>
  </outline>
</glyph>
<glyph name="u" format="2">
  <advance width="1196"/>
  <unicode hex="0075"/>
  <anchor x="598" y="0" name="bottom"/>
  <anchor x="998" y="0" name="ogonek"/>
  <anchor x="952" y="1118" name="rtophorn"/>
  <anchor x="598" y="1118" name="top"/>
  <outline>
    <contour>
      <point x="588" y="-16" type="curve" smooth="yes"/>
      <point x="758" y="-16"/>
      <point x="916" y="69"/>
      <point x="964" y="240" type="curve"/>
      <point x="952" y="240" type="line"/>
      <point x="952" y="0" type="line"/>
      <point x="998" y="0" type="line"/>
      <point x="998" y="1118" type="line"/>
      <point x="952" y="1118" type="line"/>
      <point x="952" y="368" type="line" smooth="yes"/>
      <point x="952" y="172"/>
      <point x="796" y="30"/>
      <point x="588" y="30" type="curve" smooth="yes"/>
      <point x="385" y="30"/>
      <point x="244" y="165"/>
      <point x="244" y="368" type="curve" smooth="yes"/>
      <point x="244" y="1118" type="line"/>
      <point x="198" y="1118" type="line"/>
      <point x="198" y="368" type="line" smooth="yes"/>
      <point x="198" y="139"/>
      <point x="359" y="-16"/>
    </contour>
  </outline>
</glyph>
<glyph name="v" format="2">
  <advance width="1114"/>
  <unicode hex="0076"/>
  <anchor x="557" y="0" name="bottom"/>
  <anchor x="557" y="1118" name="top"/>
  <outline>
    <contour>
      <point x="527" y="0" type="line"/>
      <point x="587" y="0" type="line"/>
      <point x="1014" y="1118" type="line"/>
      <point x="966" y="1118" type="line"/>
      <point x="667" y="336" type="line" smooth="yes"/>
      <point x="628" y="235"/>
      <point x="592" y="131"/>
      <point x="551" y="30" type="curve"/>
      <point x="563" y="30" type="line"/>
      <point x="522" y="131"/>
      <point x="486" y="235"/>
      <point x="447" y="336" type="curve" smooth="yes"/>
      <point x="148" y="1118" type="line"/>
      <point x="100" y="1118" type="line"/>
    </contour>
  </outline>
</glyph>
<glyph name="w" format="2">
  <advance width="1656"/>
  <unicode hex="0077"/>
  <anchor x="828" y="0" name="bottom"/>
  <anchor x="828" y="1118" name="top"/>
  <outline>
    <contour>
      <point x="415" y="0" type="line"/>
      <point x="479" y="0" type="line"/>
      <point x="762" y="864" type="line" smooth="yes"/>
      <point x="788" y="944"/>
      <point x="812" y="1018"/>
      <point x="837" y="1098" type="curve"/>
      <point x="819" y="1098" type="line"/>
      <point x="844" y="1018"/>
      <point x="868" y="944"/>
      <point x="894" y="864" type="curve" smooth="yes"/>
      <point x="1177" y="0" type="line"/>
      <point x="1241" y="0" type="line"/>
      <point x="1567" y="1118" type="line"/>
      <point x="1520" y="1118" type="line"/>
      <point x="1278" y="288" type="line" smooth="yes"/>
      <point x="1252" y="197"/>
      <point x="1229" y="115"/>
      <point x="1204" y="24" type="curve"/>
      <point x="1214" y="24" type="line"/>
      <point x="1186" y="115"/>
      <point x="1160" y="198"/>
      <point x="1130" y="288" type="curve" smooth="yes"/>
      <point x="858" y="1118" type="line"/>
      <point x="798" y="1118" type="line"/>
      <point x="526" y="288" type="line" smooth="yes"/>
      <point x="496" y="198"/>
      <point x="470" y="115"/>
      <point x="442" y="24" type="curve"/>
      <point x="452" y="24" type="line"/>
      <point x="427" y="115"/>
      <point x="404" y="197"/>
      <point x="378" y="288" type="curve" smooth="yes"/>
      <point x="136" y="1118" type="line"/>
      <point x="89" y="1118" type="line"/>
    </contour>
  </outline>
</glyph>
<glyph name="x" format="2">
  <advance width="1024"/>
  <unicode hex="0078"/>
  <anchor x="512" y="0" name="bottom"/>
  <anchor x="933" y="0" name="cyrtic"/>
  <anchor x="834" y="0" name="right"/>
  <anchor x="512" y="1118" name="top"/>
  <outline>
    <contour>
      <point x="60" y="0" type="line"/>
      <point x="117" y="0" type="line"/>
      <point x="388" y="368" type="line" smooth="yes"/>
      <point x="434" y="430"/>
      <point x="477" y="491"/>
      <point x="523" y="553" type="curve"/>
      <point x="501" y="553" type="line"/>
      <point x="546" y="491"/>
      <point x="589" y="430"/>
      <point x="635" y="368" type="curve" smooth="yes"/>
      <point x="907" y="0" type="line"/>
      <point x="964" y="0" type="line"/>
      <point x="528" y="589" type="line"/>
      <point x="528" y="555" type="line"/>
      <point x="945" y="1118" type="line"/>
      <point x="888" y="1118" type="line"/>
      <point x="653" y="800" type="line" smooth="yes"/>
      <point x="602" y="730"/>
      <point x="552" y="661"/>
      <point x="501" y="591" type="curve"/>
      <point x="523" y="591" type="line"/>
      <point x="472" y="661"/>
      <point x="422" y="730"/>
      <point x="371" y="800" type="curve" smooth="yes"/>
      <point x="136" y="1118" type="line"/>
      <point x="79" y="1118" type="line"/>
      <point x="496" y="555" type="line"/>
      <point x="496" y="589" type="line"/>
    </contour>
  </outline>
</glyph>
<glyph name="y" format="2">
  <advance width="1114"/>
  <unicode hex="0079"/>
  <anchor x="758" y="0" name="bottom"/>
  <anchor x="586" y="0" name="ogonek"/>
  <anchor x="556" y="1118" name="top"/>
  <outline>
    <contour>
      <point x="134" y="-398" type="line"/>
      <point x="177" y="-417"/>
      <point x="221" y="-426"/>
      <point x="258" y="-426" type="curve" smooth="yes"/>
      <point x="368" y="-426"/>
      <point x="452" y="-352"/>
      <point x="506" y="-212" type="curve" smooth="yes"/>
      <point x="1014" y="1118" type="line"/>
      <point x="965" y="1118" type="line"/>
      <point x="666" y="336" type="line" smooth="yes"/>
      <point x="625" y="229"/>
      <point x="588" y="123"/>
      <point x="549" y="16" type="curve"/>
      <point x="561" y="16" type="line"/>
      <point x="525" y="123"/>
      <point x="488" y="229"/>
      <point x="447" y="336" type="curve" smooth="yes"/>
      <point x="150" y="1118" type="line"/>
      <point x="100" y="1118" type="line"/>
      <point x="532" y="-14" type="line"/>
      <point x="463" y="-195" type="line" smooth="yes"/>
      <point x="402" y="-356"/>
      <point x="300" y="-417"/>
      <point x="162" y="-362" type="curve" smooth="yes"/>
      <point x="152" y="-358" type="line"/>
    </contour>
  </outline>
</glyph>
<glyph name="z" format="2">
  <advance width="1072"/>
  <unicode hex="007A"/>
  <anchor x="504" y="0" name="bottom"/>
  <anchor x="914" y="0" name="bottomr"/>
  <anchor x="520" y="558" name="cross"/>
  <anchor x="520" y="1118" name="top"/>
  <outline>
    <contour>
      <point x="158" y="0" type="line"/>
      <point x="914" y="0" type="line"/>
      <point x="914" y="46" type="line"/>
      <point x="216" y="46" type="line"/>
      <point x="216" y="52" type="line"/>
      <point x="884" y="1070" type="line"/>
      <point x="884" y="1118" type="line"/>
      <point x="200" y="1118" type="line"/>
      <point x="200" y="1072" type="line"/>
      <point x="827" y="1072" type="line"/>
      <point x="827" y="1066" type="line"/>
      <point x="158" y="46" type="line"/>
    </contour>
  </outline>
</glyph>
<glyph name="braceleft" format="2">
  <advance width="810"/>
  <unicode hex="007B"/>
  <outline>
    <contour>
      <point x="172" y="629" type="line"/>
      <point x="366" y="629"/>
      <point x="434" y="698"/>
      <point x="434" y="889" type="curve" smooth="yes"/>
      <point x="434" y="1271" type="line" smooth="yes"/>
      <point x="434" y="1457"/>
      <point x="500" y="1536"/>
      <point x="652" y="1536" type="curve"/>
      <point x="652" y="1582" type="line"/>
      <point x="472" y="1582"/>
      <point x="388" y="1482"/>
      <point x="388" y="1271" type="curve" smooth="yes"/>
      <point x="388" y="889" type="line" smooth="yes"/>
      <point x="388" y="723"/>
      <point x="340" y="675"/>
      <point x="172" y="675" type="curve"/>
    </contour>
    <contour>
      <point x="652" y="-280" type="curve"/>
      <point x="652" y="-234" type="line"/>
      <point x="500" y="-234"/>
      <point x="434" y="-154"/>
      <point x="434" y="31" type="curve" smooth="yes"/>
      <point x="434" y="413" type="line" smooth="yes"/>
      <point x="434" y="604"/>
      <point x="366" y="675"/>
      <point x="172" y="675" type="curve"/>
      <point x="172" y="629" type="line"/>
      <point x="340" y="629"/>
      <point x="388" y="579"/>
      <point x="388" y="413" type="curve" smooth="yes"/>
      <point x="388" y="31" type="line" smooth="yes"/>
      <point x="388" y="-179"/>
      <point x="472" y="-280"/>
    </contour>
    <contour>
      <point x="172" y="629" type="line"/>
      <point x="328" y="629" type="line"/>
      <point x="328" y="675" type="line"/>
      <point x="172" y="675" type="line"/>
    </contour>
  </outline>
</glyph>
<glyph name="bar" format="2">
  <advance width="558"/>
  <unicode hex="007C"/>
  <outline>
    <contour>
      <point x="302" y="1970" type="line"/>
      <point x="256" y="1970" type="line"/>
      <point x="256" y="-480" type="line"/>
      <point x="302" y="-480" type="line"/>
    </contour>
  </outline>
</glyph>
<glyph name="braceright" format="2">
  <advance width="810"/>
  <unicode hex="007D"/>
  <outline>
    <contour>
      <point x="638" y="629" type="curve"/>
      <point x="638" y="675" type="line"/>
      <point x="470" y="675"/>
      <point x="422" y="723"/>
      <point x="422" y="889" type="curve" smooth="yes"/>
      <point x="422" y="1271" type="line" smooth="yes"/>
      <point x="422" y="1482"/>
      <point x="338" y="1582"/>
      <point x="158" y="1582" type="curve"/>
      <point x="158" y="1536" type="line"/>
      <point x="310" y="1536"/>
      <point x="376" y="1457"/>
      <point x="376" y="1271" type="curve" smooth="yes"/>
      <point x="376" y="889" type="line" smooth="yes"/>
      <point x="376" y="698"/>
      <point x="444" y="629"/>
    </contour>
    <contour>
      <point x="158" y="-280" type="line"/>
      <point x="338" y="-280"/>
      <point x="422" y="-179"/>
      <point x="422" y="31" type="curve" smooth="yes"/>
      <point x="422" y="413" type="line" smooth="yes"/>
      <point x="422" y="579"/>
      <point x="470" y="629"/>
      <point x="638" y="629" type="curve"/>
      <point x="638" y="675" type="line"/>
      <point x="444" y="675"/>
      <point x="376" y="604"/>
      <point x="376" y="413" type="curve" smooth="yes"/>
      <point x="376" y="31" type="line" smooth="yes"/>
      <point x="376" y="-154"/>
      <point x="310" y="-234"/>
      <point x="158" y="-234" type="curve"/>
    </contour>
    <contour>
      <point x="638" y="629" type="line"/>
      <point x="638" y="675" type="line"/>
      <point x="482" y="675" type="line"/>
      <point x="482" y="629" type="line"/>
    </contour>
  </outline>
</glyph>
<glyph name="asciitilde" format="2">
  <advance width="1304"/>
  <unicode hex="007E"/>
  <outline>
    <contour>
      <point x="192" y="488" type="curve"/>
      <point x="238" y="482" type="line"/>
      <point x="252" y="577"/>
      <point x="338" y="644"/>
      <point x="454" y="642" type="curve" smooth="yes"/>
      <point x="539" y="642"/>
      <point x="595" y="604"/>
      <point x="654" y="564" type="curve" smooth="yes"/>
      <point x="713" y="525"/>
      <point x="772" y="484"/>
      <point x="858" y="482" type="curve" smooth="yes"/>
      <point x="981" y="482"/>
      <point x="1081" y="561"/>
      <point x="1112" y="674" type="curve"/>
      <point x="1064" y="686" type="line"/>
      <point x="1041" y="594"/>
      <point x="960" y="530"/>
      <point x="858" y="530" type="curve" smooth="yes"/>
      <point x="787" y="530"/>
      <point x="738" y="564"/>
      <point x="680" y="602" type="curve" smooth="yes"/>
      <point x="621" y="642"/>
      <point x="553" y="690"/>
      <point x="454" y="690" type="curve" smooth="yes"/>
      <point x="316" y="690"/>
      <point x="209" y="607"/>
    </contour>
  </outline>
</glyph>
<glyph name="exclamdown" format="2">
  <advance width="554"/>
  <unicode hex="00A1"/>
  <outline>
    <contour>
      <point x="254" y="-365" type="line"/>
      <point x="300" y="-365" type="line"/>
      <point x="300" y="691" type="line"/>
      <point x="254" y="691" type="line"/>
    </contour>
    <contour>
      <point x="277" y="1028" type="curve" smooth="yes"/>
      <point x="306" y="1028"/>
      <point x="330" y="1052"/>
      <point x="330" y="1081" type="curve" smooth="yes"/>
      <point x="330" y="1110"/>
      <point x="306" y="1134"/>
      <point x="277" y="1134" type="curve" smooth="yes"/>
      <point x="248" y="1134"/>
      <point x="224" y="1110"/>
      <point x="224" y="1081" type="curve" smooth="yes"/>
      <point x="224" y="1052"/>
      <point x="248" y="1028"/>
    </contour>
  </outline>
</glyph>
<glyph name="cent" format="2">
  <advance width="1095"/>
  <unicode hex="00A2"/>
  <anchor x="594" y="190" name="bottom"/>
  <anchor x="594" y="190" name="cedilla"/>
  <anchor x="594" y="749" name="center"/>
  <anchor x="594" y="1308" name="top"/>
  <anchor x="970" y="1089" name="topr"/>
  <outline>
    <contour>
      <point x="559" y="0" type="line"/>
      <point x="605" y="0" type="line"/>
      <point x="605" y="1490" type="line"/>
      <point x="559" y="1490" type="line"/>
    </contour>
    <component base="c" yOffset="190"/>
  </outline>
</glyph>
<glyph name="sterling" format="2">
  <advance width="1223"/>
  <unicode hex="00A3"/>
  <outline>
    <contour>
      <point x="138" y="8" type="line"/>
      <point x="294" y="8"/>
      <point x="381" y="124"/>
      <point x="371" y="317" type="curve" smooth="yes"/>
      <point x="334" y="1057" type="line" smooth="yes"/>
      <point x="322" y="1299"/>
      <point x="469" y="1460"/>
      <point x="690" y="1460" type="curve" smooth="yes"/>
      <point x="882" y="1460"/>
      <point x="1010" y="1342"/>
      <point x="1030" y="1168" type="curve"/>
      <point x="1076" y="1173" type="line"/>
      <point x="1053" y="1370"/>
      <point x="905" y="1506"/>
      <point x="690" y="1506" type="curve" smooth="yes"/>
      <point x="440" y="1506"/>
      <point x="275" y="1320"/>
      <point x="288" y="1055" type="curve" smooth="yes"/>
      <point x="325" y="315" type="line" smooth="yes"/>
      <point x="334" y="142"/>
      <point x="268" y="46"/>
      <point x="138" y="46" type="curve"/>
    </contour>
    <contour>
      <point x="130" y="0" type="line"/>
      <point x="874" y="0" type="line" smooth="yes"/>
      <point x="1011" y="0"/>
      <point x="1079" y="68"/>
      <point x="1079" y="205" type="curve" smooth="yes"/>
      <point x="1079" y="252" type="line"/>
      <point x="1033" y="252" type="line"/>
      <point x="1033" y="205" type="line" smooth="yes"/>
      <point x="1033" y="93"/>
      <point x="986" y="46"/>
      <point x="874" y="46" type="curve" smooth="yes"/>
      <point x="130" y="46" type="line"/>
    </contour>
    <contour>
      <point x="130" y="722" type="line"/>
      <point x="915" y="722" type="line"/>
      <point x="915" y="768" type="line"/>
      <point x="130" y="768" type="line"/>
    </contour>
  </outline>
</glyph>
<glyph name="yen" format="2">
  <advance width="1070"/>
  <unicode hex="00A5"/>
  <outline>
    <contour>
      <point x="96" y="1490" type="line"/>
      <point x="44" y="1490" type="line"/>
      <point x="506" y="642" type="line"/>
      <point x="558" y="642" type="line"/>
    </contour>
    <contour>
      <point x="512" y="642" type="line"/>
      <point x="564" y="642" type="line"/>
      <point x="1026" y="1490" type="line"/>
      <point x="974" y="1490" type="line"/>
    </contour>
    <contour>
      <point x="558" y="692" type="line"/>
      <point x="512" y="692" type="line"/>
      <point x="512" y="0" type="line"/>
      <point x="558" y="0" type="line"/>
    </contour>
    <contour>
      <point x="908" y="666" type="line"/>
      <point x="162" y="666" type="line"/>
      <point x="162" y="620" type="line"/>
      <point x="908" y="620" type="line"/>
    </contour>
    <contour>
      <point x="908" y="488" type="line"/>
      <point x="162" y="488" type="line"/>
      <point x="162" y="442" type="line"/>
      <point x="908" y="442" type="line"/>
    </contour>
  </outline>
</glyph>
<glyph name="brokenbar" format="2">
  <advance width="382"/>
  <unicode hex="00A6"/>
  <outline>
    <contour>
      <point x="168" y="386" type="line"/>
      <point x="168" y="-280" type="line"/>
      <point x="214" y="-280" type="line"/>
      <point x="214" y="386" type="line"/>
    </contour>
    <contour>
      <point x="214" y="1490" type="line"/>
      <point x="168" y="1490" type="line"/>
      <point x="168" y="826" type="line"/>
      <point x="214" y="826" type="line"/>
    </contour>
  </outline>
</glyph>
<glyph name="section" format="2">
  <advance width="1114"/>
  <unicode hex="00A7"/>
  <outline>
    <contour>
      <point x="556" y="-302" type="curve" smooth="yes"/>
      <point x="754" y="-302"/>
      <point x="908" y="-185"/>
      <point x="908" y="0" type="curve" smooth="yes"/>
      <point x="908" y="114"/>
      <point x="845" y="181"/>
      <point x="703" y="270" type="curve"/>
      <point x="705" y="270" type="line"/>
      <point x="840" y="246"/>
      <point x="966" y="335"/>
      <point x="966" y="500" type="curve" smooth="yes"/>
      <point x="966" y="635"/>
      <point x="871" y="706"/>
      <point x="630" y="852" type="curve" smooth="yes"/>
      <point x="508" y="926" type="line" smooth="yes"/>
      <point x="346" y="1024"/>
      <point x="282" y="1083"/>
      <point x="282" y="1198" type="curve" smooth="yes"/>
      <point x="282" y="1347"/>
      <point x="391" y="1460"/>
      <point x="563" y="1460" type="curve" smooth="yes"/>
      <point x="735" y="1460"/>
      <point x="811" y="1348"/>
      <point x="850" y="1198" type="curve"/>
      <point x="894" y="1210" type="line"/>
      <point x="850" y="1378"/>
      <point x="759" y="1506"/>
      <point x="563" y="1506" type="curve" smooth="yes"/>
      <point x="365" y="1506"/>
      <point x="236" y="1373"/>
      <point x="236" y="1198" type="curve" smooth="yes"/>
      <point x="236" y="1070"/>
      <point x="315" y="1003"/>
      <point x="409" y="934" type="curve"/>
      <point x="408" y="931" type="line"/>
      <point x="283" y="944"/>
      <point x="148" y="869"/>
      <point x="148" y="704" type="curve" smooth="yes"/>
      <point x="148" y="569"/>
      <point x="247" y="494"/>
      <point x="488" y="348" type="curve" smooth="yes"/>
      <point x="612" y="273" type="line" smooth="yes"/>
      <point x="828" y="143"/>
      <point x="862" y="90"/>
      <point x="862" y="0" type="curve" smooth="yes"/>
      <point x="862" y="-161"/>
      <point x="727" y="-256"/>
      <point x="556" y="-256" type="curve" smooth="yes"/>
      <point x="395" y="-256"/>
      <point x="272" y="-173"/>
      <point x="221" y="23" type="curve"/>
      <point x="176" y="12" type="line"/>
      <point x="232" y="-203"/>
      <point x="372" y="-302"/>
    </contour>
    <contour>
      <point x="610" y="328" type="curve" smooth="yes"/>
      <point x="508" y="390" type="line" smooth="yes"/>
      <point x="284" y="526"/>
      <point x="194" y="591"/>
      <point x="194" y="704" type="curve" smooth="yes"/>
      <point x="194" y="857"/>
      <point x="356" y="965"/>
      <point x="517" y="867" type="curve" smooth="yes"/>
      <point x="614" y="808" type="line" smooth="yes"/>
      <point x="838" y="672"/>
      <point x="920" y="613"/>
      <point x="920" y="500" type="curve" smooth="yes"/>
      <point x="920" y="347"/>
      <point x="767" y="233"/>
    </contour>
  </outline>
</glyph>
<glyph name="copyright" format="2">
  <advance width="1872"/>
  <unicode hex="00A9"/>
  <outline>
    <contour>
      <point x="526" y="744" type="curve" smooth="yes"/>
      <point x="525" y="506"/>
      <point x="719" y="312"/>
      <point x="958" y="312" type="curve" smooth="yes"/>
      <point x="1129" y="312"/>
      <point x="1263" y="413"/>
      <point x="1318" y="558" type="curve"/>
      <point x="1266" y="558" type="line"/>
      <point x="1215" y="439"/>
      <point x="1103" y="360"/>
      <point x="958" y="360" type="curve" smooth="yes"/>
      <point x="745" y="360"/>
      <point x="572" y="532"/>
      <point x="572" y="744" type="curve" smooth="yes"/>
      <point x="572" y="959"/>
      <point x="745" y="1130"/>
      <point x="958" y="1130" type="curve" smooth="yes"/>
      <point x="1103" y="1130"/>
      <point x="1215" y="1050"/>
      <point x="1266" y="930" type="curve"/>
      <point x="1318" y="930" type="line"/>
      <point x="1263" y="1076"/>
      <point x="1129" y="1176"/>
      <point x="958" y="1176" type="curve" smooth="yes"/>
      <point x="719" y="1176"/>
      <point x="525" y="983"/>
    </contour>
    <component base="circlewhite"/>
  </outline>
</glyph>
<glyph name="ordfeminine" format="2">
  <advance width="866"/>
  <unicode hex="00AA"/>
  <anchor x="426" y="656" name="bottom"/>
  <anchor x="710" y="656" name="ogonek"/>
  <anchor x="423" y="1495" name="top"/>
  <outline>
    <contour>
      <point x="363" y="638" type="curve" smooth="yes"/>
      <point x="497" y="638"/>
      <point x="606" y="711"/>
      <point x="660" y="819" type="curve"/>
      <point x="665" y="819" type="line"/>
      <point x="665" y="656" type="line"/>
      <point x="710" y="656" type="line"/>
      <point x="710" y="1252" type="line" smooth="yes"/>
      <point x="710" y="1408"/>
      <point x="592" y="1506"/>
      <point x="417" y="1506" type="curve" smooth="yes"/>
      <point x="276" y="1506"/>
      <point x="157" y="1442"/>
      <point x="113" y="1334" type="curve"/>
      <point x="156" y="1317" type="line"/>
      <point x="193" y="1408"/>
      <point x="292" y="1463"/>
      <point x="417" y="1463" type="curve" smooth="yes"/>
      <point x="568" y="1463"/>
      <point x="665" y="1380"/>
      <point x="665" y="1254" type="curve" smooth="yes"/>
      <point x="665" y="1209" type="line" smooth="yes"/>
      <point x="665" y="1144"/>
      <point x="553" y="1133"/>
      <point x="425" y="1119" type="curve" smooth="yes"/>
      <point x="161" y="1090"/>
      <point x="87" y="1007"/>
      <point x="87" y="884" type="curve" smooth="yes"/>
      <point x="87" y="727"/>
      <point x="214" y="638"/>
    </contour>
    <contour>
      <point x="365" y="682" type="curve" smooth="yes"/>
      <point x="234" y="682"/>
      <point x="133" y="762"/>
      <point x="133" y="883" type="curve" smooth="yes"/>
      <point x="133" y="989"/>
      <point x="209" y="1052"/>
      <point x="436" y="1077" type="curve" smooth="yes"/>
      <point x="537" y="1088"/>
      <point x="623" y="1103"/>
      <point x="665" y="1133" type="curve"/>
      <point x="665" y="1008" type="line" smooth="yes"/>
      <point x="665" y="816"/>
      <point x="533" y="682"/>
    </contour>
  </outline>
</glyph>
<glyph name="logicalnot" format="2">
  <advance width="1304"/>
  <unicode hex="00AC"/>
  <outline>
    <contour>
      <point x="938" y="315" type="line"/>
      <point x="984" y="315" type="line"/>
      <point x="984" y="689" type="line"/>
      <point x="268" y="689" type="line"/>
      <point x="268" y="643" type="line"/>
      <point x="938" y="643" type="line"/>
    </contour>
  </outline>
</glyph>
<glyph name="registered" format="2">
  <advance width="1364"/>
  <unicode hex="00AE"/>
  <outline>
    <contour>
      <point x="682" y="346" type="curve" smooth="yes"/>
      <point x="1004" y="346"/>
      <point x="1264" y="607"/>
      <point x="1264" y="928" type="curve" smooth="yes"/>
      <point x="1264" y="1249"/>
      <point x="1004" y="1510"/>
      <point x="682" y="1510" type="curve" smooth="yes"/>
      <point x="361" y="1510"/>
      <point x="100" y="1249"/>
      <point x="100" y="928" type="curve" smooth="yes"/>
      <point x="100" y="607"/>
      <point x="361" y="346"/>
    </contour>
    <contour>
      <point x="682" y="392" type="curve" smooth="yes"/>
      <point x="387" y="392"/>
      <point x="148" y="632"/>
      <point x="148" y="928" type="curve" smooth="yes"/>
      <point x="148" y="1224"/>
      <point x="387" y="1464"/>
      <point x="682" y="1464" type="curve" smooth="yes"/>
      <point x="979" y="1464"/>
      <point x="1218" y="1224"/>
      <point x="1218" y="928" type="curve" smooth="yes"/>
      <point x="1218" y="632"/>
      <point x="979" y="392"/>
    </contour>
    <contour>
      <point x="863" y="666" type="line"/>
      <point x="917" y="666" type="line"/>
      <point x="783" y="908" type="line"/>
      <point x="733" y="908" type="line"/>
    </contour>
    <contour>
      <point x="493" y="666" type="line"/>
      <point x="539" y="666" type="line"/>
      <point x="539" y="1156" type="line"/>
      <point x="721" y="1156" type="line" smooth="yes"/>
      <point x="806" y="1156"/>
      <point x="847" y="1114"/>
      <point x="847" y="1042" type="curve" smooth="yes"/>
      <point x="847" y="972"/>
      <point x="806" y="926"/>
      <point x="721" y="926" type="curve" smooth="yes"/>
      <point x="517" y="926" type="line"/>
      <point x="517" y="880" type="line"/>
      <point x="723" y="880" type="line" smooth="yes"/>
      <point x="833" y="880"/>
      <point x="895" y="950"/>
      <point x="895" y="1042" type="curve" smooth="yes"/>
      <point x="895" y="1136"/>
      <point x="833" y="1202"/>
      <point x="723" y="1202" type="curve" smooth="yes"/>
      <point x="493" y="1202" type="line"/>
    </contour>
  </outline>
</glyph>
<glyph name="degree" format="2">
  <advance width="930"/>
  <unicode hex="00B0"/>
  <outline>
    <contour>
      <point x="466" y="904" type="curve" smooth="yes"/>
      <point x="633" y="905"/>
      <point x="768" y="1040"/>
      <point x="768" y="1208" type="curve" smooth="yes"/>
      <point x="768" y="1375"/>
      <point x="633" y="1510"/>
      <point x="466" y="1510" type="curve" smooth="yes"/>
      <point x="298" y="1510"/>
      <point x="162" y="1375"/>
      <point x="162" y="1208" type="curve" smooth="yes"/>
      <point x="162" y="1040"/>
      <point x="298" y="905"/>
    </contour>
    <contour>
      <point x="466" y="952" type="curve" smooth="yes"/>
      <point x="324" y="951"/>
      <point x="210" y="1065"/>
      <point x="210" y="1208" type="curve" smooth="yes"/>
      <point x="210" y="1349"/>
      <point x="324" y="1464"/>
      <point x="466" y="1464" type="curve" smooth="yes"/>
      <point x="607" y="1464"/>
      <point x="722" y="1349"/>
      <point x="722" y="1208" type="curve" smooth="yes"/>
      <point x="722" y="1065"/>
      <point x="607" y="951"/>
    </contour>
  </outline>
</glyph>
<glyph name="plusminus" format="2">
  <advance width="1304"/>
  <unicode hex="00B1"/>
  <outline>
    <contour>
      <point x="230" y="140" type="line"/>
      <point x="1074" y="140" type="line"/>
      <point x="1074" y="186" type="line"/>
      <point x="230" y="186" type="line"/>
    </contour>
    <contour>
      <point x="230" y="698" type="line"/>
      <point x="1074" y="698" type="line"/>
      <point x="1074" y="744" type="line"/>
      <point x="230" y="744" type="line"/>
    </contour>
    <contour>
      <point x="628" y="326" type="line"/>
      <point x="674" y="326" type="line"/>
      <point x="674" y="1118" type="line"/>
      <point x="628" y="1118" type="line"/>
    </contour>
  </outline>
</glyph>
<glyph name="two.sups" format="2">
  <advance width="879"/>
  <unicode hex="00B2"/>
  <anchor x="503" y="1249" name="cross"/>
  <anchor x="436" y="1683" name="top"/>
  <outline>
    <contour>
      <point x="144" y="916" type="line"/>
      <point x="740" y="916" type="line"/>
      <point x="740" y="961" type="line"/>
      <point x="216" y="961" type="line"/>
      <point x="216" y="966" type="line"/>
      <point x="483" y="1207" type="line" smooth="yes"/>
      <point x="637" y="1346"/>
      <point x="682" y="1408"/>
      <point x="682" y="1494" type="curve" smooth="yes"/>
      <point x="682" y="1608"/>
      <point x="572" y="1694"/>
      <point x="424" y="1694" type="curve" smooth="yes"/>
      <point x="270" y="1694"/>
      <point x="161" y="1603"/>
      <point x="161" y="1487" type="curve"/>
      <point x="209" y="1487" type="line"/>
      <point x="209" y="1577"/>
      <point x="296" y="1649"/>
      <point x="423" y="1649" type="curve" smooth="yes"/>
      <point x="544" y="1649"/>
      <point x="635" y="1585"/>
      <point x="635" y="1494" type="curve" smooth="yes"/>
      <point x="635" y="1424"/>
      <point x="594" y="1372"/>
      <point x="455" y="1242" type="curve" smooth="yes"/>
      <point x="144" y="951" type="line"/>
    </contour>
  </outline>
</glyph>
<glyph name="three.sups" format="2">
  <advance width="832"/>
  <unicode hex="00B3"/>
  <anchor x="422" y="1683" name="top"/>
  <outline>
    <contour>
      <point x="422" y="906" type="curve" smooth="yes"/>
      <point x="595" y="906"/>
      <point x="717" y="998"/>
      <point x="717" y="1117" type="curve" smooth="yes"/>
      <point x="717" y="1217"/>
      <point x="636" y="1288"/>
      <point x="514" y="1310" type="curve"/>
      <point x="514" y="1315" type="line"/>
      <point x="618" y="1339"/>
      <point x="687" y="1404"/>
      <point x="687" y="1494" type="curve" smooth="yes"/>
      <point x="687" y="1605"/>
      <point x="579" y="1694"/>
      <point x="422" y="1694" type="curve" smooth="yes"/>
      <point x="266" y="1694"/>
      <point x="150" y="1611"/>
      <point x="148" y="1493" type="curve"/>
      <point x="197" y="1493" type="line"/>
      <point x="198" y="1586"/>
      <point x="293" y="1649"/>
      <point x="421" y="1649" type="curve" smooth="yes"/>
      <point x="550" y="1649"/>
      <point x="639" y="1583"/>
      <point x="639" y="1493" type="curve" smooth="yes"/>
      <point x="639" y="1395"/>
      <point x="534" y="1333"/>
      <point x="395" y="1333" type="curve" smooth="yes"/>
      <point x="369" y="1333" type="line"/>
      <point x="369" y="1288" type="line"/>
      <point x="395" y="1288" type="line" smooth="yes"/>
      <point x="557" y="1288"/>
      <point x="669" y="1219"/>
      <point x="669" y="1118" type="curve" smooth="yes"/>
      <point x="669" y="1024"/>
      <point x="568" y="951"/>
      <point x="421" y="951" type="curve" smooth="yes"/>
      <point x="284" y="951"/>
      <point x="177" y="1015"/>
      <point x="175" y="1105" type="curve"/>
      <point x="126" y="1105" type="line"/>
      <point x="127" y="988"/>
      <point x="255" y="906"/>
    </contour>
  </outline>
</glyph>
<glyph name="micro" format="2">
  <advance width="1200"/>
  <unicode hex="00B5"/>
  <outline>
    <contour>
      <point x="198" y="-418" type="line"/>
      <point x="244" y="-418" type="line"/>
      <point x="244" y="368" type="line"/>
      <point x="208" y="368" type="line"/>
      <point x="208" y="86"/>
      <point x="432" y="-16"/>
      <point x="598" y="-16" type="curve" smooth="yes"/>
      <point x="764" y="-16"/>
      <point x="988" y="86"/>
      <point x="988" y="368" type="curve"/>
      <point x="952" y="368" type="line"/>
      <point x="952" y="198" type="line" smooth="yes"/>
      <point x="952" y="62"/>
      <point x="1013" y="0"/>
      <point x="1136" y="0" type="curve" smooth="yes"/>
      <point x="1160" y="0" type="line"/>
      <point x="1160" y="46" type="line"/>
      <point x="1136" y="46" type="line" smooth="yes"/>
      <point x="1040" y="46"/>
      <point x="998" y="89"/>
      <point x="998" y="198" type="curve" smooth="yes"/>
      <point x="998" y="1118" type="line"/>
      <point x="952" y="1118" type="line"/>
      <point x="952" y="368" type="line" smooth="yes"/>
      <point x="952" y="175"/>
      <point x="801" y="30"/>
      <point x="598" y="30" type="curve" smooth="yes"/>
      <point x="395" y="30"/>
      <point x="244" y="175"/>
      <point x="244" y="368" type="curve" smooth="yes"/>
      <point x="244" y="1118" type="line"/>
      <point x="198" y="1118" type="line"/>
    </contour>
  </outline>
</glyph>
<glyph name="paragraph" format="2">
  <advance width="1140"/>
  <unicode hex="00B6"/>
  <outline>
    <contour>
      <point x="900" y="1442" type="line"/>
      <point x="900" y="1490" type="line"/>
      <point x="638" y="1490" type="line" smooth="yes"/>
      <point x="320" y="1490"/>
      <point x="146" y="1289"/>
      <point x="146" y="1022" type="curve" smooth="yes"/>
      <point x="146" y="751"/>
      <point x="320" y="552"/>
      <point x="638" y="552" type="curve" smooth="yes"/>
      <point x="722" y="552" type="line"/>
      <point x="722" y="1442" type="line"/>
    </contour>
    <contour>
      <point x="862" y="0" type="line"/>
      <point x="908" y="0" type="line"/>
      <point x="908" y="1490" type="line"/>
      <point x="862" y="1490" type="line"/>
    </contour>
  </outline>
</glyph>
<glyph name="one.sups" format="2">
  <advance width="544"/>
  <unicode hex="00B9"/>
  <outline>
    <contour>
      <point x="379" y="1683" type="line"/>
      <point x="314" y="1683" type="line"/>
      <point x="109" y="1561" type="line"/>
      <point x="109" y="1506" type="line"/>
      <point x="324" y="1636" type="line"/>
      <point x="331" y="1636" type="line"/>
      <point x="331" y="916" type="line"/>
      <point x="379" y="916" type="line"/>
    </contour>
  </outline>
</glyph>
<glyph name="ordmasculine" format="2">
  <advance width="951"/>
  <unicode hex="00BA"/>
  <anchor x="476" y="656" name="bottom"/>
  <anchor x="476" y="1075" name="center"/>
  <anchor x="849" y="1073" name="ogonek"/>
  <anchor x="476" y="1495" name="top"/>
  <anchor x="476" y="1506" name="tophorn"/>
  <outline>
    <contour>
      <point x="476" y="638" type="curve" smooth="yes"/>
      <point x="689" y="638"/>
      <point x="849" y="824"/>
      <point x="849" y="1073" type="curve" smooth="yes"/>
      <point x="849" y="1320"/>
      <point x="689" y="1506"/>
      <point x="476" y="1506" type="curve" smooth="yes"/>
      <point x="263" y="1506"/>
      <point x="102" y="1321"/>
      <point x="102" y="1073" type="curve" smooth="yes"/>
      <point x="102" y="825"/>
      <point x="262" y="638"/>
    </contour>
    <contour>
      <point x="476" y="682" type="curve" smooth="yes"/>
      <point x="287" y="682"/>
      <point x="148" y="852"/>
      <point x="148" y="1073" type="curve" smooth="yes"/>
      <point x="148" y="1292"/>
      <point x="289" y="1462"/>
      <point x="476" y="1462" type="curve" smooth="yes"/>
      <point x="664" y="1462"/>
      <point x="803" y="1292"/>
      <point x="803" y="1073" type="curve" smooth="yes"/>
      <point x="803" y="852"/>
      <point x="665" y="682"/>
    </contour>
  </outline>
</glyph>
<glyph name="AE" format="2">
  <advance width="1962"/>
  <unicode hex="00C6"/>
  <anchor x="1254" y="1490" name="top"/>
  <outline>
    <contour>
      <point x="66" y="0" type="line"/>
      <point x="118" y="0" type="line"/>
      <point x="854" y="1444" type="line"/>
      <point x="1000" y="1444" type="line"/>
      <point x="1000" y="0" type="line"/>
      <point x="1814" y="0" type="line"/>
      <point x="1814" y="46" type="line"/>
      <point x="1046" y="46" type="line"/>
      <point x="1046" y="722" type="line"/>
      <point x="1750" y="722" type="line"/>
      <point x="1750" y="768" type="line"/>
      <point x="1046" y="768" type="line"/>
      <point x="1046" y="1444" type="line"/>
      <point x="1792" y="1444" type="line"/>
      <point x="1792" y="1490" type="line"/>
      <point x="826" y="1490" type="line"/>
    </contour>
    <contour>
      <point x="356" y="504" type="line"/>
      <point x="1024" y="504" type="line"/>
      <point x="1024" y="550" type="line"/>
      <point x="356" y="550" type="line"/>
    </contour>
  </outline>
</glyph>
<glyph name="multiply" format="2">
  <advance width="1304"/>
  <unicode hex="00D7"/>
  <outline>
    <contour>
      <point x="1047" y="154" type="line"/>
      <point x="1079" y="188" type="line"/>
      <point x="259" y="1008" type="line"/>
      <point x="225" y="976" type="line"/>
    </contour>
    <contour>
      <point x="259" y="154" type="line"/>
      <point x="1079" y="976" type="line"/>
      <point x="1047" y="1008" type="line"/>
      <point x="225" y="188" type="line"/>
    </contour>
  </outline>
</glyph>
<glyph name="Thorn" format="2">
  <advance width="1210"/>
  <unicode hex="00DE"/>
  <outline>
    <contour>
      <point x="210" y="1490" type="line"/>
      <point x="210" y="0" type="line"/>
      <point x="256" y="0" type="line"/>
      <point x="256" y="1490" type="line"/>
    </contour>
    <contour>
      <point x="236" y="1132" type="line"/>
      <point x="236" y="1086" type="line"/>
      <point x="614" y="1086" type="line" smooth="yes"/>
      <point x="855" y="1086"/>
      <point x="1002" y="958"/>
      <point x="1002" y="745" type="curve" smooth="yes"/>
      <point x="1002" y="529"/>
      <point x="860" y="408"/>
      <point x="614" y="408" type="curve" smooth="yes"/>
      <point x="236" y="408" type="line"/>
      <point x="236" y="362" type="line"/>
      <point x="614" y="362" type="line" smooth="yes"/>
      <point x="886" y="362"/>
      <point x="1048" y="504"/>
      <point x="1048" y="745" type="curve" smooth="yes"/>
      <point x="1048" y="983"/>
      <point x="880" y="1132"/>
      <point x="614" y="1132" type="curve" smooth="yes"/>
    </contour>
  </outline>
</glyph>
<glyph name="germandbls" format="2">
  <advance width="1178"/>
  <unicode hex="00DF"/>
  <outline>
    <contour>
      <point x="232" y="0" type="line"/>
      <point x="278" y="0" type="line"/>
      <point x="278" y="1152" type="line" smooth="yes"/>
      <point x="278" y="1348"/>
      <point x="395" y="1464"/>
      <point x="592" y="1464" type="curve" smooth="yes"/>
      <point x="789" y="1464"/>
      <point x="906" y="1348"/>
      <point x="906" y="1152" type="curve" smooth="yes"/>
      <point x="906" y="928"/>
      <point x="758" y="791"/>
      <point x="514" y="791" type="curve" smooth="yes"/>
      <point x="492" y="791" type="line"/>
      <point x="492" y="749" type="line"/>
      <point x="514" y="749" type="line" smooth="yes"/>
      <point x="796" y="749"/>
      <point x="974" y="606"/>
      <point x="974" y="386" type="curve" smooth="yes"/>
      <point x="974" y="182"/>
      <point x="820" y="46"/>
      <point x="588" y="46" type="curve" smooth="yes"/>
      <point x="486" y="46" type="line"/>
      <point x="486" y="0" type="line"/>
      <point x="588" y="0" type="line" smooth="yes"/>
      <point x="846" y="0"/>
      <point x="1020" y="156"/>
      <point x="1020" y="386" type="curve" smooth="yes"/>
      <point x="1020" y="590"/>
      <point x="881" y="737"/>
      <point x="672" y="771" type="curve"/>
      <point x="672" y="775" type="line"/>
      <point x="854" y="823"/>
      <point x="952" y="960"/>
      <point x="952" y="1152" type="curve" smooth="yes"/>
      <point x="952" y="1373"/>
      <point x="814" y="1510"/>
      <point x="592" y="1510" type="curve" smooth="yes"/>
      <point x="370" y="1510"/>
      <point x="232" y="1373"/>
      <point x="232" y="1152" type="curve" smooth="yes"/>
    </contour>
  </outline>
</glyph>
<glyph name="ae" format="2">
  <advance width="1874"/>
  <unicode hex="00E6"/>
  <anchor x="904" y="1118" name="top"/>
  <outline>
    <contour>
      <point x="452" y="-24" type="curve" smooth="yes"/>
      <point x="706" y="-24"/>
      <point x="874" y="174"/>
      <point x="874" y="459" type="curve"/>
      <point x="878" y="467" type="line"/>
      <point x="878" y="802" type="line" smooth="yes"/>
      <point x="878" y="992"/>
      <point x="742" y="1134"/>
      <point x="516" y="1134" type="curve" smooth="yes"/>
      <point x="341" y="1134"/>
      <point x="195" y="1047"/>
      <point x="142" y="908" type="curve"/>
      <point x="186" y="890" type="line"/>
      <point x="233" y="1015"/>
      <point x="358" y="1088"/>
      <point x="516" y="1088" type="curve" smooth="yes"/>
      <point x="707" y="1088"/>
      <point x="832" y="975"/>
      <point x="832" y="802" type="curve" smooth="yes"/>
      <point x="832" y="478" type="line" smooth="yes"/>
      <point x="832" y="202"/>
      <point x="682" y="22"/>
      <point x="452" y="22" type="curve" smooth="yes"/>
      <point x="278" y="22"/>
      <point x="156" y="134"/>
      <point x="156" y="294" type="curve" smooth="yes"/>
      <point x="156" y="474"/>
      <point x="308" y="558"/>
      <point x="580" y="558" type="curve" smooth="yes"/>
      <point x="1752" y="558" type="line"/>
      <point x="1752" y="584" type="line" smooth="yes"/>
      <point x="1752" y="898"/>
      <point x="1557" y="1134"/>
      <point x="1296" y="1134" type="curve" smooth="yes"/>
      <point x="1042" y="1134"/>
      <point x="848" y="904"/>
      <point x="833" y="596" type="curve"/>
      <point x="833" y="515" type="line"/>
      <point x="848" y="206"/>
      <point x="1038" y="-24"/>
      <point x="1318" y="-24" type="curve" smooth="yes"/>
      <point x="1536" y="-24"/>
      <point x="1656" y="113"/>
      <point x="1706" y="198" type="curve"/>
      <point x="1668" y="224" type="line"/>
      <point x="1627" y="157"/>
      <point x="1525" y="22"/>
      <point x="1318" y="22" type="curve" smooth="yes"/>
      <point x="1037" y="22"/>
      <point x="878" y="268"/>
      <point x="878" y="562" type="curve" smooth="yes"/>
      <point x="878" y="568" type="line" smooth="yes"/>
      <point x="878" y="864"/>
      <point x="1066" y="1088"/>
      <point x="1296" y="1088" type="curve" smooth="yes"/>
      <point x="1533" y="1088"/>
      <point x="1707" y="864"/>
      <point x="1707" y="584" type="curve"/>
      <point x="1727" y="604" type="line"/>
      <point x="580" y="604" type="line" smooth="yes"/>
      <point x="279" y="604"/>
      <point x="110" y="504"/>
      <point x="110" y="294" type="curve" smooth="yes"/>
      <point x="110" y="91"/>
      <point x="268" y="-24"/>
    </contour>
  </outline>
</glyph>
<glyph name="eth" format="2">
  <advance width="1214"/>
  <unicode hex="00F0"/>
  <outline>
    <contour>
      <point x="980" y="1462" type="line"/>
      <point x="968" y="1506" type="line"/>
      <point x="398" y="1248" type="line"/>
      <point x="410" y="1202" type="line"/>
    </contour>
    <contour>
      <point x="608" y="-24" type="curve" smooth="yes"/>
      <point x="876" y="-23"/>
      <point x="1084" y="200"/>
      <point x="1084" y="548" type="curve" smooth="yes"/>
      <point x="1082" y="961"/>
      <point x="833" y="1367"/>
      <point x="430" y="1582" type="curve"/>
      <point x="414" y="1536" type="line"/>
      <point x="706" y="1377"/>
      <point x="912" y="1119"/>
      <point x="1006" y="820" type="curve"/>
      <point x="998" y="820" type="line"/>
      <point x="908" y="980"/>
      <point x="775" y="1062"/>
      <point x="608" y="1062" type="curve" smooth="yes"/>
      <point x="340" y="1062"/>
      <point x="130" y="824"/>
      <point x="130" y="520" type="curve" smooth="yes"/>
      <point x="130" y="215"/>
      <point x="340" y="-23"/>
    </contour>
    <contour>
      <point x="608" y="24" type="curve" smooth="yes"/>
      <point x="367" y="23"/>
      <point x="178" y="241"/>
      <point x="178" y="520" type="curve" smooth="yes"/>
      <point x="178" y="796"/>
      <point x="368" y="1016"/>
      <point x="608" y="1016" type="curve" smooth="yes"/>
      <point x="849" y="1016"/>
      <point x="1038" y="797"/>
      <point x="1038" y="520" type="curve" smooth="yes"/>
      <point x="1038" y="241"/>
      <point x="849" y="23"/>
    </contour>
  </outline>
</glyph>
<glyph name="divide" format="2">
  <advance width="1304"/>
  <unicode hex="00F7"/>
  <outline>
    <contour>
      <point x="1074" y="605" type="line"/>
      <point x="230" y="605" type="line"/>
      <point x="230" y="559" type="line"/>
      <point x="1074" y="559" type="line"/>
    </contour>
    <contour>
      <point x="652" y="198" type="curve" smooth="yes"/>
      <point x="681" y="198"/>
      <point x="704" y="221"/>
      <point x="704" y="250" type="curve" smooth="yes"/>
      <point x="704" y="279"/>
      <point x="681" y="302"/>
      <point x="652" y="302" type="curve" smooth="yes"/>
      <point x="623" y="302"/>
      <point x="600" y="279"/>
      <point x="600" y="250" type="curve" smooth="yes"/>
      <point x="600" y="221"/>
      <point x="623" y="198"/>
    </contour>
    <contour>
      <point x="652" y="862" type="curve" smooth="yes"/>
      <point x="681" y="861"/>
      <point x="704" y="884"/>
      <point x="704" y="914" type="curve" smooth="yes"/>
      <point x="704" y="943"/>
      <point x="681" y="966"/>
      <point x="652" y="966" type="curve" smooth="yes"/>
      <point x="623" y="966"/>
      <point x="600" y="943"/>
      <point x="600" y="914" type="curve" smooth="yes"/>
      <point x="600" y="884"/>
      <point x="623" y="861"/>
    </contour>
  </outline>
</glyph>
<glyph name="thorn" format="2">
  <advance width="1190"/>
  <unicode hex="00FE"/>
  <outline>
    <contour>
      <point x="630" y="-24" type="curve" smooth="yes"/>
      <point x="893" y="-24"/>
      <point x="1060" y="225"/>
      <point x="1060" y="556" type="curve" smooth="yes"/>
      <point x="1060" y="884"/>
      <point x="891" y="1134"/>
      <point x="630" y="1134" type="curve" smooth="yes"/>
      <point x="452" y="1134"/>
      <point x="307" y="1018"/>
      <point x="250" y="832" type="curve"/>
      <point x="244" y="832" type="line"/>
      <point x="244" y="1490" type="line"/>
      <point x="198" y="1490" type="line"/>
      <point x="198" y="-418" type="line"/>
      <point x="244" y="-418" type="line"/>
      <point x="244" y="280" type="line"/>
      <point x="250" y="280" type="line"/>
      <point x="309" y="94"/>
      <point x="450" y="-24"/>
    </contour>
    <contour>
      <point x="630" y="22" type="curve" smooth="yes"/>
      <point x="392" y="22"/>
      <point x="244" y="253"/>
      <point x="244" y="556" type="curve" smooth="yes"/>
      <point x="244" y="858"/>
      <point x="394" y="1088"/>
      <point x="630" y="1088" type="curve" smooth="yes"/>
      <point x="865" y="1088"/>
      <point x="1014" y="858"/>
      <point x="1014" y="556" type="curve" smooth="yes"/>
      <point x="1014" y="253"/>
      <point x="866" y="22"/>
    </contour>
  </outline>
</glyph>
<glyph name="idotless" format="2">
  <advance width="442"/>
  <unicode hex="0131"/>
  <anchor x="220" y="0" name="bottom"/>
  <anchor x="220" y="582" name="cross"/>
  <anchor x="244" y="0" name="ogonek"/>
  <anchor x="220" y="1118" name="top"/>
  <outline>
    <contour>
      <point x="198" y="0" type="line"/>
      <point x="244" y="0" type="line"/>
      <point x="244" y="1118" type="line"/>
      <point x="198" y="1118" type="line"/>
    </contour>
  </outline>
</glyph>
<glyph name="kgreenlandic" format="2">
  <advance width="1024"/>
  <unicode hex="0138"/>
  <outline>
    <contour>
      <point x="244" y="1118" type="line"/>
      <point x="198" y="1118" type="line"/>
      <point x="198" y="0" type="line"/>
      <point x="244" y="0" type="line"/>
    </contour>
    <contour>
      <point x="948" y="1118" type="line"/>
      <point x="884" y="1118" type="line"/>
      <point x="358" y="588" type="line"/>
      <point x="214" y="588" type="line"/>
      <point x="214" y="542" type="line"/>
      <point x="378" y="542" type="line"/>
    </contour>
    <contour>
      <point x="886" y="0" type="line"/>
      <point x="954" y="0" type="line"/>
      <point x="374" y="562" type="line"/>
      <point x="320" y="552" type="line"/>
    </contour>
  </outline>
</glyph>
<glyph name="OE" format="2">
  <advance width="1888"/>
  <unicode hex="0152"/>
  <anchor x="1332" y="0" name="bottom"/>
  <anchor x="1332" y="0" name="cedilla"/>
  <anchor x="1740" y="0" name="ogonek"/>
  <anchor x="924" y="1490" name="tonos"/>
  <anchor x="1332" y="1490" name="top"/>
  <outline>
    <contour>
      <point x="766" y="0" type="curve" smooth="yes"/>
      <point x="948" y="0" type="line"/>
      <point x="948" y="46" type="line"/>
      <point x="766" y="46" type="line" smooth="yes"/>
      <point x="423" y="46"/>
      <point x="194" y="332"/>
      <point x="194" y="744" type="curve" smooth="yes"/>
      <point x="194" y="1164"/>
      <point x="428" y="1444"/>
      <point x="766" y="1442" type="curve" smooth="yes"/>
      <point x="948" y="1442" type="line"/>
      <point x="948" y="1490" type="line"/>
      <point x="766" y="1490" type="line" smooth="yes"/>
      <point x="398" y="1490"/>
      <point x="148" y="1188"/>
      <point x="148" y="744" type="curve" smooth="yes"/>
      <point x="148" y="303"/>
      <point x="397" y="0"/>
    </contour>
    <component base="E" xOffset="692"/>
  </outline>
</glyph>
<glyph name="Btopbar" format="2">
  <advance width="1338"/>
  <unicode hex="0182"/>
  <outline>
    <contour>
      <point x="232" y="0" type="line"/>
      <point x="792" y="0" type="line" smooth="yes"/>
      <point x="1048" y="0"/>
      <point x="1208" y="155"/>
      <point x="1208" y="404" type="curve" smooth="yes"/>
      <point x="1208" y="631"/>
      <point x="1044" y="777"/>
      <point x="792" y="776" type="curve" smooth="yes"/>
      <point x="280" y="776" type="line"/>
      <point x="280" y="1442" type="line"/>
      <point x="1042" y="1442" type="line"/>
      <point x="1042" y="1490" type="line"/>
      <point x="232" y="1490" type="line"/>
    </contour>
    <contour>
      <point x="280" y="46" type="line"/>
      <point x="280" y="730" type="line"/>
      <point x="792" y="730" type="line" smooth="yes"/>
      <point x="1015" y="730"/>
      <point x="1160" y="602"/>
      <point x="1160" y="408" type="curve" smooth="yes"/>
      <point x="1160" y="180"/>
      <point x="1024" y="47"/>
      <point x="792" y="46" type="curve" smooth="yes"/>
    </contour>
  </outline>
</glyph>
<glyph name="Tonesix" format="2">
  <advance width="1419"/>
  <unicode hex="0184"/>
  <anchor x="480" y="1176" name="cross"/>
  <outline>
    <contour>
      <point x="105.952" y="988.558" type="line"/>
      <point x="393.514" y="1490" type="line"/>
      <point x="340.486" y="1490" type="line"/>
      <point x="66.048" y="1011.442" type="line"/>
    </contour>
    <component base="Softsign-cy" xOffset="137"/>
  </outline>
</glyph>
<glyph name="tonesix" format="2">
  <advance width="1269"/>
  <unicode hex="0185"/>
  <outline>
    <contour>
      <point x="139.952" y="616.558" type="line"/>
      <point x="427.514" y="1118" type="line"/>
      <point x="374.486" y="1118" type="line"/>
      <point x="100.048" y="639.442" type="line"/>
    </contour>
    <component base="softsigncyrillic" xOffset="203"/>
  </outline>
</glyph>
<glyph name="Dtopbar" format="2">
  <advance width="1210"/>
  <unicode hex="018B"/>
  <outline>
    <contour>
      <point x="1092" y="0" type="line"/>
      <point x="1092" y="1490" type="line"/>
      <point x="284" y="1490" type="line"/>
      <point x="284" y="1442" type="line"/>
      <point x="1046" y="1442" type="line"/>
      <point x="1046" y="776" type="line"/>
      <point x="534" y="776" type="line" smooth="yes"/>
      <point x="281" y="776"/>
      <point x="118" y="631"/>
      <point x="118" y="404" type="curve" smooth="yes"/>
      <point x="118" y="155"/>
      <point x="277" y="0"/>
      <point x="534" y="0" type="curve" smooth="yes"/>
    </contour>
    <contour>
      <point x="1046" y="46" type="line"/>
      <point x="534" y="46" type="line" smooth="yes"/>
      <point x="301" y="46"/>
      <point x="164" y="180"/>
      <point x="164" y="408" type="curve" smooth="yes"/>
      <point x="164" y="602"/>
      <point x="310" y="730"/>
      <point x="534" y="730" type="curve" smooth="yes"/>
      <point x="1046" y="730" type="line"/>
    </contour>
  </outline>
</glyph>
<glyph name="deltaturn" format="2">
  <advance width="954"/>
  <unicode hex="018D"/>
  <outline>
    <contour>
      <point x="770" y="-376" type="line"/>
      <point x="770" y="-344" type="line"/>
      <point x="625" y="-182"/>
      <point x="475" y="-22"/>
      <point x="352" y="104" type="curve"/>
      <point x="401" y="95"/>
      <point x="442" y="90"/>
      <point x="478" y="90" type="curve" smooth="yes"/>
      <point x="729" y="90"/>
      <point x="911" y="300"/>
      <point x="910" y="590" type="curve" smooth="yes"/>
      <point x="910" y="600" type="line" smooth="yes"/>
      <point x="910" y="932"/>
      <point x="737" y="1134"/>
      <point x="478" y="1134" type="curve" smooth="yes"/>
      <point x="218" y="1134"/>
      <point x="44" y="933"/>
      <point x="44" y="600" type="curve" smooth="yes"/>
      <point x="44" y="592" type="line" smooth="yes"/>
      <point x="44" y="425"/>
      <point x="117" y="277"/>
      <point x="286" y="104" type="curve" smooth="yes"/>
      <point x="433" y="-47"/>
      <point x="567" y="-188"/>
      <point x="700" y="-330" type="curve"/>
      <point x="168" y="-328" type="line"/>
      <point x="168" y="-376" type="line"/>
    </contour>
    <contour>
      <point x="864" y="590" type="line" smooth="yes"/>
      <point x="864" y="323"/>
      <point x="703" y="136"/>
      <point x="470" y="136" type="curve" smooth="yes"/>
      <point x="420" y="136"/>
      <point x="365" y="145"/>
      <point x="294" y="162" type="curve"/>
      <point x="150" y="321"/>
      <point x="90" y="446"/>
      <point x="90" y="592" type="curve" smooth="yes"/>
      <point x="90" y="600" type="line" smooth="yes"/>
      <point x="90" y="905"/>
      <point x="244" y="1088"/>
      <point x="478" y="1088" type="curve" smooth="yes"/>
      <point x="713" y="1088"/>
      <point x="864" y="906"/>
      <point x="864" y="600" type="curve" smooth="yes"/>
    </contour>
  </outline>
</glyph>
<glyph name="Schwa" format="2">
  <advance width="1512"/>
  <unicode hex="018F"/>
  <outline>
    <contour>
      <point x="758" y="-20" type="curve" smooth="yes"/>
      <point x="1135" y="-20"/>
      <point x="1364" y="289"/>
      <point x="1364" y="744" type="curve" smooth="yes"/>
      <point x="1364" y="1203"/>
      <point x="1116" y="1510"/>
      <point x="746" y="1510" type="curve" smooth="yes"/>
      <point x="399" y="1510"/>
      <point x="212" y="1236"/>
      <point x="176" y="1024" type="curve"/>
      <point x="223" y="1024" type="line"/>
      <point x="258" y="1227"/>
      <point x="441" y="1464"/>
      <point x="746" y="1464" type="curve" smooth="yes"/>
      <point x="1089" y="1464"/>
      <point x="1318" y="1175"/>
      <point x="1318" y="744" type="curve" smooth="yes"/>
      <point x="1318" y="319"/>
      <point x="1109" y="26"/>
      <point x="758" y="26" type="curve" smooth="yes"/>
      <point x="433" y="26"/>
      <point x="212" y="262"/>
      <point x="212" y="636" type="curve"/>
      <point x="192" y="626" type="line"/>
      <point x="1335" y="626" type="line"/>
      <point x="1335" y="672" type="line"/>
      <point x="166" y="672" type="line"/>
      <point x="166" y="628" type="line" smooth="yes"/>
      <point x="166" y="236"/>
      <point x="410" y="-20"/>
    </contour>
  </outline>
</glyph>
<glyph name="florin" format="2">
  <advance width="608"/>
  <unicode hex="0192"/>
  <outline>
    <contour>
      <point x="526" y="1074" type="line"/>
      <point x="328" y="1074" type="line"/>
      <point x="328" y="1300" type="line" smooth="yes"/>
      <point x="328" y="1431"/>
      <point x="426" y="1510"/>
      <point x="536" y="1510" type="curve" smooth="yes"/>
      <point x="566" y="1510"/>
      <point x="588" y="1505"/>
      <point x="610" y="1496" type="curve"/>
      <point x="626" y="1540" type="line"/>
      <point x="598" y="1551"/>
      <point x="572" y="1556"/>
      <point x="536" y="1556" type="curve" smooth="yes"/>
      <point x="400" y="1556"/>
      <point x="281" y="1457"/>
      <point x="280" y="1300" type="curve" smooth="yes"/>
      <point x="280" y="1074" type="line"/>
      <point x="82" y="1074" type="line"/>
      <point x="82" y="1026" type="line"/>
      <point x="280" y="1026" type="line"/>
      <point x="280" y="-162" type="line" smooth="yes"/>
      <point x="280" y="-294"/>
      <point x="182" y="-372"/>
      <point x="72" y="-372" type="curve" smooth="yes"/>
      <point x="42" y="-372"/>
      <point x="20" y="-368"/>
      <point x="-4" y="-360" type="curve"/>
      <point x="-18" y="-402" type="line"/>
      <point x="10" y="-413"/>
      <point x="36" y="-418"/>
      <point x="72" y="-418" type="curve" smooth="yes"/>
      <point x="208" y="-418"/>
      <point x="327" y="-320"/>
      <point x="328" y="-162" type="curve" smooth="yes"/>
      <point x="328" y="1026" type="line"/>
      <point x="526" y="1026" type="line"/>
    </contour>
  </outline>
</glyph>
<glyph name="Gamma1" format="2">
  <advance width="1058"/>
  <unicode hex="0194"/>
  <outline>
    <contour>
      <point x="-44" y="1490" type="line"/>
      <point x="512" y="110" type="line" smooth="yes"/>
      <point x="623" y="-167"/>
      <point x="652" y="-253"/>
      <point x="652" y="-294" type="curve" smooth="yes"/>
      <point x="652" y="-351"/>
      <point x="601" y="-396"/>
      <point x="530" y="-396" type="curve" smooth="yes"/>
      <point x="455" y="-396"/>
      <point x="406" y="-351"/>
      <point x="406" y="-294" type="curve" smooth="yes"/>
      <point x="406" y="-253"/>
      <point x="439" y="-164"/>
      <point x="542" y="92" type="curve" smooth="yes"/>
      <point x="1106" y="1490" type="line"/>
      <point x="1054" y="1490" type="line"/>
      <point x="474" y="50" type="line" smooth="yes"/>
      <point x="378" y="-188"/>
      <point x="360" y="-244"/>
      <point x="360" y="-288" type="curve" smooth="yes"/>
      <point x="360" y="-374"/>
      <point x="425" y="-442"/>
      <point x="530" y="-442" type="curve" smooth="yes"/>
      <point x="633" y="-442"/>
      <point x="698" y="-374"/>
      <point x="698" y="-288" type="curve" smooth="yes"/>
      <point x="698" y="-244"/>
      <point x="675" y="-172"/>
      <point x="578" y="72" type="curve" smooth="yes"/>
      <point x="8" y="1490" type="line"/>
    </contour>
  </outline>
</glyph>
<glyph name="hv" format="2">
  <advance width="1880"/>
  <unicode hex="0195"/>
  <outline>
    <contour>
      <point x="1228" y="-18" type="curve" smooth="yes"/>
      <point x="1535" y="-19"/>
      <point x="1681" y="329"/>
      <point x="1682" y="1016" type="curve" smooth="yes"/>
      <point x="1682" y="1118" type="line"/>
      <point x="1634" y="1118" type="line"/>
      <point x="1634" y="1032" type="line" smooth="yes"/>
      <point x="1634" y="364"/>
      <point x="1505" y="28"/>
      <point x="1228" y="28" type="curve" smooth="yes"/>
      <point x="1048" y="28"/>
      <point x="966" y="153"/>
      <point x="966" y="440" type="curve" smooth="yes"/>
      <point x="966" y="750" type="line" smooth="yes"/>
      <point x="966" y="975"/>
      <point x="809" y="1132"/>
      <point x="584" y="1132" type="curve" smooth="yes"/>
      <point x="433" y="1132"/>
      <point x="303" y="1057"/>
      <point x="250" y="940" type="curve"/>
      <point x="244" y="940" type="line"/>
      <point x="244" y="1490" type="line"/>
      <point x="198" y="1490" type="line"/>
      <point x="198" y="0" type="line"/>
      <point x="244" y="0" type="line"/>
      <point x="244" y="750" type="line" smooth="yes"/>
      <point x="244" y="945"/>
      <point x="387" y="1086"/>
      <point x="584" y="1086" type="curve" smooth="yes"/>
      <point x="783" y="1086"/>
      <point x="919" y="948"/>
      <point x="920" y="750" type="curve" smooth="yes"/>
      <point x="920" y="440" type="line" smooth="yes"/>
      <point x="920" y="128"/>
      <point x="1021" y="-19"/>
    </contour>
  </outline>
</glyph>
<glyph name="Khook" format="2">
  <advance width="1342"/>
  <unicode hex="0198"/>
  <outline>
    <contour>
      <point x="232" y="0" type="line"/>
      <point x="280" y="0" type="line"/>
      <point x="280" y="486" type="line"/>
      <point x="504" y="734" type="line"/>
      <point x="1192" y="0" type="line"/>
      <point x="1256" y="0" type="line"/>
      <point x="536" y="768" type="line"/>
      <point x="1100" y="1388" type="line" smooth="yes"/>
      <point x="1159" y="1455"/>
      <point x="1223" y="1469"/>
      <point x="1292" y="1420" type="curve"/>
      <point x="1324" y="1450" type="line"/>
      <point x="1260" y="1520"/>
      <point x="1136" y="1505"/>
      <point x="1064" y="1420" type="curve"/>
      <point x="286" y="562" type="line"/>
      <point x="280" y="562" type="line"/>
      <point x="280" y="1490" type="line"/>
      <point x="232" y="1490" type="line"/>
    </contour>
  </outline>
</glyph>
<glyph name="mcapturn" format="2">
  <advance width="1704"/>
  <unicode hex="019C"/>
  <outline>
    <contour>
      <point x="1486" y="228" type="line"/>
      <point x="1492" y="0" type="line"/>
      <point x="1534" y="0" type="line"/>
      <point x="1534" y="1490" type="line"/>
      <point x="1486" y="1490" type="line"/>
    </contour>
    <contour>
      <point x="1486" y="366" type="line"/>
      <point x="1487" y="169"/>
      <point x="1350" y="32"/>
      <point x="1182" y="32" type="curve" smooth="yes"/>
      <point x="983" y="32"/>
      <point x="876" y="169"/>
      <point x="876" y="366" type="curve" smooth="yes"/>
      <point x="876" y="1490" type="line"/>
      <point x="830" y="1490" type="line"/>
      <point x="830" y="366" type="line" smooth="yes"/>
      <point x="830" y="143"/>
      <point x="957" y="-14"/>
      <point x="1182" y="-14" type="curve" smooth="yes"/>
      <point x="1376" y="-14"/>
      <point x="1533" y="143"/>
      <point x="1518" y="366" type="curve"/>
    </contour>
    <contour>
      <point x="830" y="366" type="line"/>
      <point x="829" y="169"/>
      <point x="692" y="32"/>
      <point x="524" y="32" type="curve" smooth="yes"/>
      <point x="326" y="32"/>
      <point x="218" y="169"/>
      <point x="218" y="366" type="curve" smooth="yes"/>
      <point x="218" y="1490" type="line"/>
      <point x="172" y="1490" type="line"/>
      <point x="172" y="366" type="line" smooth="yes"/>
      <point x="172" y="143"/>
      <point x="300" y="-14"/>
      <point x="524" y="-14" type="curve" smooth="yes"/>
      <point x="719" y="-14"/>
      <point x="876" y="143"/>
      <point x="862" y="366" type="curve"/>
    </contour>
  </outline>
</glyph>
<glyph name="Ohorn" format="2">
  <advance width="1530"/>
  <unicode hex="01A0"/>
  <anchor x="766" y="0" name="bottom"/>
  <anchor x="766" y="745" name="center"/>
  <anchor x="1382" y="744" name="ogonek"/>
  <anchor x="286" y="1490" name="tonos"/>
  <anchor x="766" y="1490" name="top"/>
  <anchor x="766" y="1510" name="tophorn"/>
  <outline>
    <contour>
      <point x="765" y="1472" type="line"/>
      <point x="926" y="1470"/>
      <point x="1142" y="1444"/>
      <point x="1259" y="1444" type="curve" smooth="yes"/>
      <point x="1338" y="1444"/>
      <point x="1382" y="1488"/>
      <point x="1382" y="1567" type="curve" smooth="yes"/>
      <point x="1382" y="1698" type="line"/>
      <point x="1336" y="1698" type="line"/>
      <point x="1336" y="1567" type="line" smooth="yes"/>
      <point x="1336" y="1513"/>
      <point x="1313" y="1490"/>
      <point x="1259" y="1490" type="curve" smooth="yes"/>
      <point x="946" y="1490"/>
      <point x="926" y="1510"/>
      <point x="765" y="1510" type="curve"/>
    </contour>
    <component base="O"/>
  </outline>
</glyph>
<glyph name="ohorn" format="2">
  <advance width="1186"/>
  <unicode hex="01A1"/>
  <anchor x="594" y="0" name="bottom"/>
  <anchor x="594" y="559" name="center"/>
  <anchor x="1056" y="556" name="ogonek"/>
  <anchor x="594" y="1118" name="top"/>
  <anchor x="594" y="1134" name="tophorn"/>
  <outline>
    <contour>
      <point x="593" y="1096" type="line"/>
      <point x="706" y="1088"/>
      <point x="820" y="1076"/>
      <point x="933" y="1073" type="curve" smooth="yes"/>
      <point x="1012" y="1071"/>
      <point x="1056" y="1116"/>
      <point x="1056" y="1195" type="curve" smooth="yes"/>
      <point x="1056" y="1326" type="line"/>
      <point x="1010" y="1326" type="line"/>
      <point x="1010" y="1195" type="line" smooth="yes"/>
      <point x="1010" y="1141"/>
      <point x="987" y="1118"/>
      <point x="933" y="1118" type="curve" smooth="yes"/>
      <point x="820" y="1118"/>
      <point x="706" y="1129"/>
      <point x="593" y="1134" type="curve"/>
    </contour>
    <component base="o"/>
  </outline>
</glyph>
<glyph name="OI" format="2">
  <advance width="1582"/>
  <unicode hex="01A2"/>
  <outline>
    <contour>
      <point x="1126" y="786" type="line"/>
      <point x="1080" y="786" type="line"/>
      <point x="1080" y="184" type="line"/>
      <point x="1017" y="90"/>
      <point x="881" y="26"/>
      <point x="738" y="26" type="curve" smooth="yes"/>
      <point x="439" y="26"/>
      <point x="196" y="294"/>
      <point x="194" y="672" type="curve" smooth="yes"/>
      <point x="194" y="714" type="line"/>
      <point x="148" y="714" type="line"/>
      <point x="148" y="672" type="line" smooth="yes"/>
      <point x="148" y="269"/>
      <point x="415" y="-20"/>
      <point x="736" y="-20" type="curve" smooth="yes"/>
      <point x="897" y="-20"/>
      <point x="1044" y="51"/>
      <point x="1126" y="174" type="curve"/>
    </contour>
    <contour>
      <point x="1126" y="1330" type="line"/>
      <point x="1034" y="1444"/>
      <point x="890" y="1510"/>
      <point x="736" y="1510" type="curve" smooth="yes"/>
      <point x="400" y="1510"/>
      <point x="148" y="1199"/>
      <point x="148" y="786" type="curve" smooth="yes"/>
      <point x="148" y="702" type="line"/>
      <point x="194" y="702" type="line"/>
      <point x="194" y="786" type="line" smooth="yes"/>
      <point x="194" y="1175"/>
      <point x="428" y="1464"/>
      <point x="736" y="1464" type="curve" smooth="yes"/>
      <point x="874" y="1464"/>
      <point x="1007" y="1405"/>
      <point x="1080" y="1308" type="curve"/>
      <point x="1080" y="670" type="line"/>
      <point x="1126" y="670" type="line"/>
    </contour>
    <contour>
      <point x="1348" y="1490" type="line"/>
      <point x="1282" y="1490" type="line"/>
      <point x="1090" y="1338" type="line"/>
      <point x="1090" y="1278" type="line"/>
      <point x="1302" y="1446" type="line"/>
      <point x="1302" y="-418" type="line"/>
      <point x="1348" y="-418" type="line"/>
    </contour>
  </outline>
</glyph>
<glyph name="oi" format="2">
  <advance width="1062"/>
  <unicode hex="01A3"/>
  <outline>
    <contour>
      <point x="506" y="24" type="curve" smooth="yes"/>
      <point x="270" y="23"/>
      <point x="105" y="237"/>
      <point x="104" y="538" type="curve" smooth="yes"/>
      <point x="104" y="542" type="line" smooth="yes"/>
      <point x="104" y="873"/>
      <point x="271" y="1088"/>
      <point x="506" y="1088" type="curve" smooth="yes"/>
      <point x="580" y="1088"/>
      <point x="649" y="1068"/>
      <point x="706" y="1034" type="curve"/>
      <point x="706" y="444" type="line"/>
      <point x="752" y="444" type="line"/>
      <point x="752" y="1062" type="line"/>
      <point x="673" y="1108"/>
      <point x="595" y="1134"/>
      <point x="506" y="1134" type="curve" smooth="yes"/>
      <point x="243" y="1134"/>
      <point x="58" y="900"/>
      <point x="58" y="542" type="curve" smooth="yes"/>
      <point x="58" y="538" type="line" smooth="yes"/>
      <point x="58" y="211"/>
      <point x="243" y="-24"/>
      <point x="506" y="-24" type="curve" smooth="yes"/>
      <point x="594" y="-24"/>
      <point x="671" y="3"/>
      <point x="752" y="58" type="curve"/>
      <point x="752" y="738" type="line"/>
      <point x="706" y="738" type="line"/>
      <point x="706" y="82" type="line"/>
      <point x="649" y="44"/>
      <point x="580" y="23"/>
    </contour>
    <contour>
      <point x="1004" y="1118" type="line"/>
      <point x="940" y="1118" type="line"/>
      <point x="740" y="984" type="line"/>
      <point x="740" y="930" type="line"/>
      <point x="958" y="1074" type="line"/>
      <point x="958" y="-418" type="line"/>
      <point x="1004" y="-418" type="line"/>
    </contour>
  </outline>
</glyph>
<glyph name="YR" format="2">
  <advance width="1352"/>
  <unicode hex="01A6"/>
  <outline>
    <contour>
      <point x="110" y="1384" type="line"/>
      <point x="156" y="1384" type="line"/>
      <point x="156" y="1588" type="line"/>
      <point x="110" y="1588" type="line"/>
    </contour>
    <contour>
      <point x="110" y="1490" type="line"/>
      <point x="110" y="0" type="line"/>
      <point x="156" y="0" type="line"/>
      <point x="156" y="1442" type="line"/>
      <point x="546" y="1442" type="line" smooth="yes"/>
      <point x="768" y="1442"/>
      <point x="926" y="1293"/>
      <point x="926" y="1064" type="curve" smooth="yes"/>
      <point x="926" y="838"/>
      <point x="768" y="689"/>
      <point x="600" y="690" type="curve" smooth="yes"/>
      <point x="132" y="690" type="line"/>
      <point x="132" y="642" type="line"/>
      <point x="648" y="642" type="line"/>
      <point x="660" y="648" type="line"/>
      <point x="848" y="692"/>
      <point x="974" y="852"/>
      <point x="974" y="1064" type="curve" smooth="yes"/>
      <point x="974" y="1320"/>
      <point x="795" y="1489"/>
      <point x="546" y="1490" type="curve" smooth="yes"/>
    </contour>
    <contour>
      <point x="1176" y="-372" type="line"/>
      <point x="1224" y="-372" type="line"/>
      <point x="1224" y="-366" type="line"/>
      <point x="668" y="664" type="line"/>
      <point x="616" y="664" type="line"/>
    </contour>
  </outline>
</glyph>
<glyph name="tonetwo" format="2">
  <advance width="1010"/>
  <unicode hex="01A8"/>
  <anchor x="496" y="0" name="bottom"/>
  <anchor x="498" y="0" name="cedilla"/>
  <anchor x="492" y="1118" name="top"/>
  <outline>
    <contour>
      <point x="144" y="882" type="curve"/>
      <point x="190" y="870" type="line"/>
      <point x="235" y="1015"/>
      <point x="333" y="1088"/>
      <point x="486" y="1088" type="curve" smooth="yes"/>
      <point x="665" y="1088"/>
      <point x="786" y="989"/>
      <point x="786" y="840" type="curve" smooth="yes"/>
      <point x="786" y="724"/>
      <point x="713" y="641"/>
      <point x="562" y="603" type="curve" smooth="yes"/>
      <point x="386" y="559" type="line" smooth="yes"/>
      <point x="223" y="518"/>
      <point x="134" y="420"/>
      <point x="134" y="282" type="curve" smooth="yes"/>
      <point x="134" y="100"/>
      <point x="288" y="-24"/>
      <point x="506" y="-24" type="curve" smooth="yes"/>
      <point x="705" y="-24"/>
      <point x="835" y="78"/>
      <point x="874" y="256" type="curve"/>
      <point x="828" y="267" type="line"/>
      <point x="795" y="108"/>
      <point x="684" y="22"/>
      <point x="506" y="22" type="curve" smooth="yes"/>
      <point x="313" y="22"/>
      <point x="180" y="127"/>
      <point x="180" y="282" type="curve" smooth="yes"/>
      <point x="180" y="398"/>
      <point x="253" y="478"/>
      <point x="396" y="514" type="curve" smooth="yes"/>
      <point x="570" y="558" type="line" smooth="yes"/>
      <point x="742" y="601"/>
      <point x="832" y="701"/>
      <point x="832" y="840" type="curve" smooth="yes"/>
      <point x="832" y="1016"/>
      <point x="690" y="1134"/>
      <point x="486" y="1134" type="curve" smooth="yes"/>
      <point x="314" y="1134"/>
      <point x="198" y="1049"/>
    </contour>
  </outline>
</glyph>
<glyph name="eshlooprev" format="2">
  <advance width="910"/>
  <unicode hex="01AA"/>
  <outline>
    <contour>
      <point x="578" y="1264" type="line"/>
      <point x="578" y="-162" type="line" smooth="yes"/>
      <point x="578" y="-335"/>
      <point x="636" y="-418"/>
      <point x="752" y="-418" type="curve" smooth="yes"/>
      <point x="775" y="-418"/>
      <point x="800" y="-415"/>
      <point x="818" y="-410" type="curve"/>
      <point x="818" y="-364" type="line"/>
      <point x="799" y="-369"/>
      <point x="772" y="-372"/>
      <point x="752" y="-372" type="curve" smooth="yes"/>
      <point x="664" y="-372"/>
      <point x="625" y="-308"/>
      <point x="626" y="-162" type="curve" smooth="yes"/>
      <point x="626" y="1294" type="line"/>
    </contour>
    <contour>
      <point x="94" y="1290" type="curve" smooth="yes"/>
      <point x="92" y="1143"/>
      <point x="213" y="1024"/>
      <point x="360" y="1024" type="curve" smooth="yes"/>
      <point x="508" y="1024"/>
      <point x="626" y="1143"/>
      <point x="626" y="1290" type="curve" smooth="yes"/>
      <point x="624" y="1438"/>
      <point x="508" y="1556"/>
      <point x="360" y="1556" type="curve" smooth="yes"/>
      <point x="213" y="1556"/>
      <point x="94" y="1438"/>
    </contour>
    <contour>
      <point x="360" y="1070" type="curve" smooth="yes"/>
      <point x="239" y="1070"/>
      <point x="140" y="1169"/>
      <point x="140" y="1290" type="curve" smooth="yes"/>
      <point x="140" y="1412"/>
      <point x="239" y="1510"/>
      <point x="360" y="1510" type="curve" smooth="yes"/>
      <point x="482" y="1510"/>
      <point x="578" y="1412"/>
      <point x="578" y="1290" type="curve" smooth="yes"/>
      <point x="580" y="1169"/>
      <point x="483" y="1071"/>
    </contour>
  </outline>
</glyph>
<glyph name="thook" format="2">
  <advance width="492"/>
  <unicode hex="01AD"/>
  <anchor x="220" y="1118" name="_topr"/>
  <anchor x="342" y="0" name="bottom"/>
  <anchor x="259" y="1490" name="top"/>
  <outline>
    <contour>
      <point x="174" y="1118" type="line"/>
      <point x="174" y="213" type="line" smooth="yes"/>
      <point x="174" y="58"/>
      <point x="266" y="-41"/>
      <point x="415" y="-5" type="curve" smooth="yes"/>
      <point x="427" y="-2"/>
      <point x="440" y="1"/>
      <point x="452" y="4" type="curve"/>
      <point x="441" y="49" type="line"/>
      <point x="430" y="46"/>
      <point x="418" y="43"/>
      <point x="407" y="40" type="curve" smooth="yes"/>
      <point x="292" y="10"/>
      <point x="220" y="80"/>
      <point x="220" y="213" type="curve" smooth="yes"/>
      <point x="220" y="1118" type="line"/>
    </contour>
    <contour>
      <point x="452" y="1118" type="line"/>
      <point x="10" y="1118" type="line"/>
      <point x="10" y="1072" type="line"/>
      <point x="452" y="1072" type="line"/>
    </contour>
    <component base="_part.top_r_hook" xOffset="-24"/>
  </outline>
</glyph>
<glyph name="Uhorn" format="2">
  <advance width="1536"/>
  <unicode hex="01AF"/>
  <anchor x="736" y="0" name="bottom"/>
  <anchor x="1272" y="504" name="ogonek"/>
  <anchor x="798" y="0" name="right"/>
  <anchor x="1224" y="1490" name="rtophorn"/>
  <anchor x="736" y="1490" name="top"/>
  <outline>
    <contour>
      <point x="1258" y="1444" type="line"/>
      <point x="1375" y="1444" type="line" smooth="yes"/>
      <point x="1454" y="1444"/>
      <point x="1498" y="1488"/>
      <point x="1498" y="1567" type="curve" smooth="yes"/>
      <point x="1498" y="1698" type="line"/>
      <point x="1452" y="1698" type="line"/>
      <point x="1452" y="1567" type="line" smooth="yes"/>
      <point x="1452" y="1513"/>
      <point x="1429" y="1490"/>
      <point x="1375" y="1490" type="curve" smooth="yes"/>
      <point x="1258" y="1490" type="line"/>
    </contour>
    <component base="U"/>
  </outline>
</glyph>
<glyph name="uhorn" format="2">
  <advance width="1232"/>
  <unicode hex="01B0"/>
  <anchor x="598" y="0" name="bottom"/>
  <anchor x="998" y="0" name="ogonek"/>
  <anchor x="952" y="1118" name="rtophorn"/>
  <anchor x="598" y="1118" name="top"/>
  <outline>
    <contour>
      <point x="971" y="1072" type="line"/>
      <point x="1069" y="1072" type="line" smooth="yes"/>
      <point x="1148" y="1072"/>
      <point x="1192" y="1116"/>
      <point x="1192" y="1195" type="curve" smooth="yes"/>
      <point x="1192" y="1366" type="line"/>
      <point x="1146" y="1366" type="line"/>
      <point x="1146" y="1195" type="line" smooth="yes"/>
      <point x="1146" y="1141"/>
      <point x="1123" y="1118"/>
      <point x="1069" y="1118" type="curve" smooth="yes"/>
      <point x="971" y="1118" type="line"/>
    </contour>
    <component base="u"/>
  </outline>
</glyph>
<glyph name="Upsilon2" format="2">
  <advance width="1524"/>
  <unicode hex="01B1"/>
  <outline>
    <contour>
      <point x="152" y="728" type="curve" smooth="yes"/>
      <point x="151" y="297"/>
      <point x="412" y="-20"/>
      <point x="762" y="-20" type="curve" smooth="yes"/>
      <point x="1114" y="-20"/>
      <point x="1374" y="295"/>
      <point x="1374" y="728" type="curve" smooth="yes"/>
      <point x="1372" y="1044"/>
      <point x="1242" y="1283"/>
      <point x="952" y="1432" type="curve"/>
      <point x="952" y="1442" type="line"/>
      <point x="1374" y="1442" type="line"/>
      <point x="1374" y="1490" type="line"/>
      <point x="904" y="1490" type="line"/>
      <point x="904" y="1422" type="line"/>
      <point x="1142" y="1297"/>
      <point x="1328" y="1087"/>
      <point x="1326" y="730" type="curve" smooth="yes"/>
      <point x="1326" y="335"/>
      <point x="1100" y="28"/>
      <point x="762" y="26" type="curve" smooth="yes"/>
      <point x="426" y="26"/>
      <point x="196" y="335"/>
      <point x="198" y="730" type="curve" smooth="yes"/>
      <point x="198" y="1089"/>
      <point x="381" y="1296"/>
      <point x="620" y="1422" type="curve"/>
      <point x="620" y="1490" type="line"/>
      <point x="152" y="1490" type="line"/>
      <point x="152" y="1442" type="line"/>
      <point x="574" y="1442" type="line"/>
      <point x="574" y="1432" type="line"/>
      <point x="284" y="1283"/>
      <point x="152" y="1042"/>
    </contour>
  </outline>
</glyph>
<glyph name="Vcursive" format="2">
  <advance width="1216"/>
  <unicode hex="01B2"/>
  <outline>
    <contour>
      <point x="600" y="-24" type="curve" smooth="yes"/>
      <point x="896" y="-23"/>
      <point x="1092" y="159"/>
      <point x="1092" y="474" type="curve" smooth="yes"/>
      <point x="1092" y="1262" type="line" smooth="yes"/>
      <point x="1092" y="1427"/>
      <point x="1024" y="1510"/>
      <point x="882" y="1510" type="curve" smooth="yes"/>
      <point x="852" y="1510"/>
      <point x="825" y="1506"/>
      <point x="796" y="1496" type="curve"/>
      <point x="796" y="1450" type="line"/>
      <point x="826" y="1460"/>
      <point x="848" y="1464"/>
      <point x="878" y="1464" type="curve" smooth="yes"/>
      <point x="998" y="1464"/>
      <point x="1046" y="1404"/>
      <point x="1046" y="1262" type="curve" smooth="yes"/>
      <point x="1046" y="474" type="line" smooth="yes"/>
      <point x="1046" y="185"/>
      <point x="870" y="24"/>
      <point x="600" y="24" type="curve" smooth="yes"/>
      <point x="337" y="24"/>
      <point x="170" y="180"/>
      <point x="170" y="474" type="curve" smooth="yes"/>
      <point x="170" y="1490" type="line"/>
      <point x="124" y="1490" type="line"/>
      <point x="124" y="474" type="line" smooth="yes"/>
      <point x="124" y="154"/>
      <point x="311" y="-23"/>
    </contour>
  </outline>
</glyph>
<glyph name="Yhook" format="2">
  <advance width="1274"/>
  <unicode hex="01B3"/>
  <outline>
    <contour>
      <point x="568" y="724" type="line"/>
      <point x="602" y="724" type="line"/>
      <point x="602" y="760" type="line"/>
      <point x="568" y="760" type="line"/>
    </contour>
    <contour>
      <point x="26" y="1490" type="line"/>
      <point x="562" y="706" type="line"/>
      <point x="562" y="0" type="line"/>
      <point x="608" y="0" type="line"/>
      <point x="608" y="706" type="line"/>
      <point x="1080" y="1394" type="line" smooth="yes"/>
      <point x="1132" y="1468"/>
      <point x="1211" y="1477"/>
      <point x="1260" y="1446" type="curve"/>
      <point x="1292" y="1476" type="line"/>
      <point x="1244" y="1529"/>
      <point x="1111" y="1524"/>
      <point x="1048" y="1434" type="curve" smooth="yes"/>
      <point x="584" y="756" type="line"/>
      <point x="84" y="1490" type="line"/>
    </contour>
  </outline>
</glyph>
<glyph name="yhook" format="2">
  <advance width="1392"/>
  <unicode hex="01B4"/>
  <anchor x="758" y="0" name="bottom"/>
  <anchor x="586" y="0" name="ogonek"/>
  <anchor x="556" y="1118" name="top"/>
  <outline>
    <contour>
      <point x="965" y="1118" type="line"/>
      <point x="1014" y="1118" type="line"/>
      <point x="1077.003" y="1283.668" type="line" smooth="yes"/>
      <point x="1143" y="1458"/>
      <point x="1192" y="1510"/>
      <point x="1266" y="1510" type="curve" smooth="yes"/>
      <point x="1294.761" y="1510"/>
      <point x="1322.931" y="1503.499"/>
      <point x="1340.722" y="1494.217" type="curve"/>
      <point x="1362" y="1535" type="line"/>
      <point x="1339" y="1547"/>
      <point x="1300" y="1556"/>
      <point x="1266" y="1556" type="curve" smooth="yes"/>
      <point x="1169" y="1556"/>
      <point x="1104" y="1484"/>
      <point x="1034" y="1300" type="curve" smooth="yes"/>
    </contour>
    <component base="y"/>
  </outline>
</glyph>
<glyph name="Ezh" format="2">
  <advance width="1422"/>
  <unicode hex="01B7"/>
  <anchor x="712" y="1490" name="top"/>
  <outline>
    <contour>
      <point x="128" y="72" type="line"/>
      <point x="127" y="-230"/>
      <point x="379" y="-442"/>
      <point x="694" y="-442" type="curve" smooth="yes"/>
      <point x="1057" y="-442"/>
      <point x="1264" y="-157"/>
      <point x="1264" y="144" type="curve" smooth="yes"/>
      <point x="1264" y="492"/>
      <point x="991" y="751"/>
      <point x="590" y="768" type="curve"/>
      <point x="590" y="774" type="line"/>
      <point x="1216" y="1452" type="line"/>
      <point x="1216" y="1490" type="line"/>
      <point x="206" y="1490" type="line"/>
      <point x="206" y="1442" type="line"/>
      <point x="1168" y="1442" type="line"/>
      <point x="1168" y="1470" type="line"/>
      <point x="520" y="768" type="line"/>
      <point x="520" y="722" type="line"/>
      <point x="588" y="722" type="line" smooth="yes"/>
      <point x="958" y="705"/>
      <point x="1218" y="471"/>
      <point x="1218" y="144" type="curve" smooth="yes"/>
      <point x="1218" y="-169"/>
      <point x="996" y="-396"/>
      <point x="694" y="-396" type="curve" smooth="yes"/>
      <point x="400" y="-396"/>
      <point x="174" y="-199"/>
      <point x="174" y="72" type="curve"/>
    </contour>
  </outline>
</glyph>
<glyph name="Ezhreversed" format="2">
  <advance width="1422"/>
  <unicode hex="01B8"/>
  <anchor x="710" y="1490" name="top"/>
  <outline>
    <contour>
      <point x="1294" y="72" type="curve"/>
      <point x="1248" y="72" type="line"/>
      <point x="1248" y="-199"/>
      <point x="1022" y="-396"/>
      <point x="728" y="-396" type="curve" smooth="yes"/>
      <point x="425" y="-396"/>
      <point x="204" y="-169"/>
      <point x="204" y="144" type="curve" smooth="yes"/>
      <point x="204" y="471"/>
      <point x="463" y="705"/>
      <point x="834" y="722" type="curve" smooth="yes"/>
      <point x="902" y="722" type="line"/>
      <point x="902" y="768" type="line"/>
      <point x="254" y="1470" type="line"/>
      <point x="254" y="1442" type="line"/>
      <point x="1216" y="1442" type="line"/>
      <point x="1216" y="1490" type="line"/>
      <point x="206" y="1490" type="line"/>
      <point x="206" y="1452" type="line"/>
      <point x="832" y="774" type="line"/>
      <point x="832" y="768" type="line"/>
      <point x="431" y="751"/>
      <point x="158" y="492"/>
      <point x="158" y="144" type="curve" smooth="yes"/>
      <point x="158" y="-157"/>
      <point x="364" y="-442"/>
      <point x="728" y="-442" type="curve" smooth="yes"/>
      <point x="1042" y="-442"/>
      <point x="1295" y="-230"/>
    </contour>
  </outline>
</glyph>
<glyph name="ezhreversed" format="2">
  <advance width="1194"/>
  <unicode hex="01B9"/>
  <anchor x="582" y="1118" name="top"/>
  <outline>
    <contour>
      <point x="590" y="-392" type="curve" smooth="yes"/>
      <point x="842" y="-392"/>
      <point x="1034" y="-227"/>
      <point x="1034" y="0" type="curve"/>
      <point x="988" y="0" type="line"/>
      <point x="988" y="-200"/>
      <point x="816" y="-346"/>
      <point x="590" y="-346" type="curve" smooth="yes"/>
      <point x="339" y="-346"/>
      <point x="194" y="-165"/>
      <point x="194" y="42" type="curve" smooth="yes"/>
      <point x="194" y="287"/>
      <point x="396" y="433"/>
      <point x="668" y="433" type="curve" smooth="yes"/>
      <point x="724" y="433" type="line"/>
      <point x="724" y="478" type="line"/>
      <point x="251" y="1071" type="line"/>
      <point x="251" y="1072" type="line"/>
      <point x="972" y="1072" type="line"/>
      <point x="972" y="1118" type="line"/>
      <point x="186" y="1118" type="line"/>
      <point x="186" y="1080" type="line"/>
      <point x="669" y="475" type="line"/>
      <point x="669" y="474" type="line"/>
      <point x="362" y="474"/>
      <point x="148" y="308"/>
      <point x="148" y="42" type="curve" smooth="yes"/>
      <point x="148" y="-195"/>
      <point x="317" y="-392"/>
    </contour>
  </outline>
</glyph>
<glyph name="ezhtail" format="2">
  <advance width="1004"/>
  <unicode hex="01BA"/>
  <outline>
    <contour>
      <point x="104" y="1120" type="line" name="hr00"/>
      <point x="104" y="1072" type="line"/>
      <point x="872" y="1072" type="line"/>
      <point x="322" y="592" type="line"/>
      <point x="322" y="544" type="line"/>
      <point x="336" y="544" type="line"/>
      <point x="936" y="1066" type="line"/>
      <point x="936" y="1118" type="line"/>
    </contour>
    <contour>
      <point x="126" y="-162" type="curve" smooth="yes"/>
      <point x="126" y="-26"/>
      <point x="204" y="49"/>
      <point x="424" y="106" type="curve" smooth="yes"/>
      <point x="691" y="175"/>
      <point x="776" y="239"/>
      <point x="776" y="370" type="curve" smooth="yes"/>
      <point x="776" y="526"/>
      <point x="652" y="590"/>
      <point x="358" y="590" type="curve" smooth="yes"/>
      <point x="334" y="590" type="line"/>
      <point x="330" y="544" type="line"/>
      <point x="358" y="544" type="line" smooth="yes"/>
      <point x="625" y="544"/>
      <point x="730" y="495"/>
      <point x="730" y="370" type="curve" smooth="yes"/>
      <point x="730" y="263"/>
      <point x="657" y="212"/>
      <point x="408" y="150" type="curve" smooth="yes"/>
      <point x="173" y="91"/>
      <point x="78" y="-5"/>
      <point x="78" y="-162" type="curve" smooth="yes"/>
      <point x="78" y="-348"/>
      <point x="209" y="-442"/>
      <point x="436" y="-442" type="curve" smooth="yes"/>
      <point x="660" y="-442"/>
      <point x="815" y="-305"/>
      <point x="834" y="-94" type="curve"/>
      <point x="786" y="-94" type="line"/>
      <point x="771" y="-278"/>
      <point x="634" y="-396"/>
      <point x="436" y="-396" type="curve" smooth="yes"/>
      <point x="234" y="-396"/>
      <point x="126" y="-319"/>
    </contour>
  </outline>
</glyph>
<glyph name="glottalstopbarinv" format="2">
  <advance width="1032"/>
  <unicode hex="01BE"/>
  <outline>
    <contour>
      <point x="864" y="286" type="curve" smooth="yes"/>
      <point x="864" y="131"/>
      <point x="720" y="28"/>
      <point x="518" y="28" type="curve" smooth="yes"/>
      <point x="298" y="28"/>
      <point x="175" y="176"/>
      <point x="174" y="334" type="curve"/>
      <point x="128" y="334" type="line"/>
      <point x="128" y="150"/>
      <point x="273" y="-18"/>
      <point x="516" y="-18" type="curve" smooth="yes"/>
      <point x="748" y="-18"/>
      <point x="910" y="104"/>
      <point x="910" y="286" type="curve" smooth="yes"/>
      <point x="910" y="569"/>
      <point x="527" y="495"/>
      <point x="526" y="816" type="curve" smooth="yes"/>
      <point x="526" y="1334" type="line"/>
      <point x="480" y="1334" type="line"/>
      <point x="480" y="816" type="line" smooth="yes"/>
      <point x="480" y="468"/>
      <point x="864" y="529"/>
    </contour>
    <contour>
      <point x="774" y="1070" type="line"/>
      <point x="232" y="1070" type="line"/>
      <point x="232" y="1022" type="line"/>
      <point x="774" y="1022" type="line"/>
    </contour>
  </outline>
</glyph>
<glyph name="wynn" format="2">
  <advance width="1142"/>
  <unicode hex="01BF"/>
  <outline>
    <contour>
      <point x="190" y="952" type="line"/>
      <point x="182" y="1118" type="line"/>
      <point x="142" y="1118" type="line"/>
      <point x="142" y="-416" type="line"/>
      <point x="190" y="-416" type="line"/>
    </contour>
    <contour>
      <point x="178" y="890" type="line"/>
      <point x="285" y="1023"/>
      <point x="409" y="1088"/>
      <point x="544" y="1088" type="curve" smooth="yes"/>
      <point x="773" y="1088"/>
      <point x="912" y="919"/>
      <point x="912" y="644" type="curve" smooth="yes"/>
      <point x="912" y="594" type="line" smooth="yes"/>
      <point x="912" y="244"/>
      <point x="705" y="50"/>
      <point x="158" y="-118" type="curve"/>
      <point x="158" y="-164" type="line"/>
      <point x="723" y="-4"/>
      <point x="960" y="220"/>
      <point x="960" y="596" type="curve" smooth="yes"/>
      <point x="960" y="642" type="line" smooth="yes"/>
      <point x="960" y="943"/>
      <point x="799" y="1134"/>
      <point x="544" y="1134" type="curve" smooth="yes"/>
      <point x="400" y="1134"/>
      <point x="270" y="1068"/>
      <point x="156" y="932" type="curve"/>
    </contour>
  </outline>
</glyph>
<glyph name="uni01F6" format="2">
  <advance width="2270"/>
  <unicode hex="01F6"/>
  <outline>
    <contour>
      <point x="1656" y="-24" type="curve" smooth="yes"/>
      <point x="1897" y="-23"/>
      <point x="2071" y="104"/>
      <point x="2072" y="442" type="curve" smooth="yes"/>
      <point x="2072" y="1146" type="line"/>
      <point x="2024" y="1146" type="line"/>
      <point x="2024" y="442" type="line" smooth="yes"/>
      <point x="2024" y="159"/>
      <point x="1900" y="24"/>
      <point x="1656" y="24" type="curve" smooth="yes"/>
      <point x="1412" y="24"/>
      <point x="1274" y="159"/>
      <point x="1274" y="442" type="curve" smooth="yes"/>
      <point x="1274" y="1490" type="line"/>
      <point x="1228" y="1490" type="line"/>
      <point x="1228" y="768" type="line"/>
      <point x="280" y="768" type="line"/>
      <point x="280" y="1490" type="line"/>
      <point x="232" y="1490" type="line"/>
      <point x="232" y="0" type="line"/>
      <point x="280" y="0" type="line"/>
      <point x="280" y="722" type="line"/>
      <point x="1228" y="722" type="line"/>
      <point x="1228" y="442" type="line" smooth="yes"/>
      <point x="1228" y="118"/>
      <point x="1404" y="-23"/>
    </contour>
  </outline>
</glyph>
<glyph name="uni01F7" format="2">
  <advance width="980"/>
  <unicode hex="01F7"/>
  <outline>
    <contour>
      <point x="102" y="1490" type="line"/>
      <point x="56" y="1490" type="line"/>
      <point x="56" y="-418" type="line"/>
      <point x="102" y="-418" type="line"/>
    </contour>
    <contour>
      <point x="70" y="-136" type="line"/>
      <point x="620" y="-14"/>
      <point x="922" y="328"/>
      <point x="922" y="856" type="curve" smooth="yes"/>
      <point x="922" y="872" type="line" smooth="yes"/>
      <point x="922" y="1308"/>
      <point x="756" y="1510"/>
      <point x="424" y="1510" type="curve" smooth="yes"/>
      <point x="289" y="1510"/>
      <point x="161" y="1476"/>
      <point x="68" y="1412" type="curve"/>
      <point x="90" y="1370" type="line"/>
      <point x="178" y="1431"/>
      <point x="297" y="1464"/>
      <point x="424" y="1464" type="curve" smooth="yes"/>
      <point x="723" y="1464"/>
      <point x="874" y="1284"/>
      <point x="874" y="876" type="curve" smooth="yes"/>
      <point x="874" y="854" type="line" smooth="yes"/>
      <point x="874" y="353"/>
      <point x="596" y="37"/>
      <point x="70" y="-90" type="curve"/>
    </contour>
  </outline>
</glyph>
<glyph name="uni021C" format="2">
  <advance width="1210"/>
  <unicode hex="021C"/>
  <outline>
    <contour>
      <point x="204" y="372" type="line"/>
      <point x="702" y="508"/>
      <point x="1054" y="805"/>
      <point x="1054" y="1124" type="curve" smooth="yes"/>
      <point x="1054" y="1352"/>
      <point x="874" y="1510"/>
      <point x="610" y="1510" type="curve" smooth="yes"/>
      <point x="330" y="1510"/>
      <point x="132" y="1340"/>
      <point x="130" y="1116" type="curve"/>
      <point x="178" y="1116" type="line"/>
      <point x="176" y="1312"/>
      <point x="358" y="1464"/>
      <point x="610" y="1464" type="curve" smooth="yes"/>
      <point x="846" y="1464"/>
      <point x="1006" y="1329"/>
      <point x="1008" y="1128" type="curve" smooth="yes"/>
      <point x="1011" y="834"/>
      <point x="682" y="559"/>
      <point x="204" y="418" type="curve"/>
    </contour>
    <contour>
      <point x="826" y="718" type="line"/>
      <point x="959" y="654"/>
      <point x="1032" y="517"/>
      <point x="1032" y="316" type="curve" smooth="yes"/>
      <point x="1032" y="-15"/>
      <point x="832" y="-188"/>
      <point x="204" y="-388" type="curve"/>
      <point x="204" y="-436" type="line"/>
      <point x="864" y="-230"/>
      <point x="1080" y="-41"/>
      <point x="1080" y="318" type="curve" smooth="yes"/>
      <point x="1080" y="532"/>
      <point x="1003" y="672"/>
      <point x="856" y="754" type="curve"/>
    </contour>
  </outline>
</glyph>
<glyph name="uni021D" format="2">
  <advance width="1030"/>
  <unicode hex="021D"/>
  <outline>
    <contour>
      <point x="194" y="264" type="line"/>
      <point x="575" y="308"/>
      <point x="870" y="533"/>
      <point x="870" y="818" type="curve" smooth="yes"/>
      <point x="870" y="1007"/>
      <point x="744" y="1134"/>
      <point x="532" y="1134" type="curve" smooth="yes"/>
      <point x="317" y="1134"/>
      <point x="146" y="1003"/>
      <point x="146" y="792" type="curve"/>
      <point x="192" y="792" type="line"/>
      <point x="190" y="975"/>
      <point x="344" y="1088"/>
      <point x="532" y="1088" type="curve" smooth="yes"/>
      <point x="719" y="1088"/>
      <point x="820" y="979"/>
      <point x="824" y="824" type="curve" smooth="yes"/>
      <point x="828" y="560"/>
      <point x="553" y="353"/>
      <point x="194" y="312" type="curve"/>
    </contour>
    <contour>
      <point x="692" y="494" type="line"/>
      <point x="790" y="422"/>
      <point x="844" y="305"/>
      <point x="844" y="140" type="curve" smooth="yes"/>
      <point x="844" y="-189"/>
      <point x="639" y="-363"/>
      <point x="194" y="-388" type="curve"/>
      <point x="194" y="-436" type="line"/>
      <point x="671" y="-404"/>
      <point x="892" y="-214"/>
      <point x="890" y="142" type="curve" smooth="yes"/>
      <point x="890" y="320"/>
      <point x="834" y="441"/>
      <point x="726" y="526" type="curve"/>
    </contour>
  </outline>
</glyph>
<glyph name="uni0220" format="2">
  <advance width="1062"/>
  <unicode hex="0220"/>
  <outline>
    <contour>
      <point x="968" y="-418" type="line"/>
      <point x="968" y="946" type="line" smooth="yes"/>
      <point x="968" y="1367"/>
      <point x="793" y="1510"/>
      <point x="478" y="1510" type="curve" smooth="yes"/>
      <point x="327" y="1510"/>
      <point x="208" y="1476"/>
      <point x="114" y="1412" type="curve"/>
      <point x="136" y="1370" type="line"/>
      <point x="228" y="1433"/>
      <point x="340" y="1464"/>
      <point x="482" y="1464" type="curve" smooth="yes"/>
      <point x="772" y="1464"/>
      <point x="921" y="1342"/>
      <point x="920" y="950" type="curve" smooth="yes"/>
      <point x="920" y="-418" type="line"/>
    </contour>
    <contour>
      <point x="148" y="1490" type="line"/>
      <point x="102" y="1490" type="line"/>
      <point x="102" y="0" type="line"/>
      <point x="148" y="0" type="line"/>
    </contour>
  </outline>
</glyph>
<glyph name="uni0222" format="2">
  <advance width="1158"/>
  <unicode hex="0222"/>
  <outline>
    <contour>
      <point x="562" y="830" type="line" smooth="yes"/>
      <point x="225" y="831"/>
      <point x="58" y="681"/>
      <point x="58" y="406" type="curve" smooth="yes"/>
      <point x="58" y="124"/>
      <point x="241" y="-20"/>
      <point x="574" y="-20" type="curve" smooth="yes"/>
      <point x="586" y="-20" type="line" smooth="yes"/>
      <point x="915" y="-20"/>
      <point x="1100" y="124"/>
      <point x="1100" y="406" type="curve" smooth="yes"/>
      <point x="1100" y="680"/>
      <point x="932" y="831"/>
      <point x="596" y="830" type="curve" smooth="yes"/>
    </contour>
    <contour>
      <point x="596" y="784" type="line" smooth="yes"/>
      <point x="906" y="784"/>
      <point x="1054" y="650"/>
      <point x="1054" y="406" type="curve" smooth="yes"/>
      <point x="1054" y="153"/>
      <point x="892" y="26"/>
      <point x="586" y="26" type="curve" smooth="yes"/>
      <point x="572" y="26" type="line" smooth="yes"/>
      <point x="265" y="26"/>
      <point x="104" y="154"/>
      <point x="104" y="406" type="curve" smooth="yes"/>
      <point x="104" y="652"/>
      <point x="249" y="784"/>
      <point x="562" y="784" type="curve" smooth="yes"/>
    </contour>
    <contour>
      <point x="562" y="830" type="line" smooth="yes"/>
      <point x="279" y="831"/>
      <point x="126" y="940"/>
      <point x="126" y="1166" type="curve" smooth="yes"/>
      <point x="126" y="1334"/>
      <point x="211" y="1433"/>
      <point x="336" y="1460" type="curve"/>
      <point x="336" y="1510" type="line"/>
      <point x="183" y="1478"/>
      <point x="78" y="1360"/>
      <point x="78" y="1166" type="curve" smooth="yes"/>
      <point x="78" y="912"/>
      <point x="256" y="784"/>
      <point x="562" y="784" type="curve" smooth="yes"/>
      <point x="596" y="784" type="line" smooth="yes"/>
      <point x="903" y="784"/>
      <point x="1080" y="915"/>
      <point x="1080" y="1166" type="curve" smooth="yes"/>
      <point x="1080" y="1371"/>
      <point x="959" y="1492"/>
      <point x="794" y="1518" type="curve"/>
      <point x="794" y="1470" type="line"/>
      <point x="934" y="1449"/>
      <point x="1032" y="1344"/>
      <point x="1032" y="1166" type="curve" smooth="yes"/>
      <point x="1032" y="941"/>
      <point x="876" y="831"/>
      <point x="598" y="830" type="curve" smooth="yes"/>
    </contour>
  </outline>
</glyph>
<glyph name="uni0223" format="2">
  <advance width="1212"/>
  <unicode hex="0223"/>
  <outline>
    <contour>
      <point x="562" y="830" type="line" smooth="yes"/>
      <point x="232" y="829"/>
      <point x="58" y="685"/>
      <point x="58" y="412" type="curve" smooth="yes"/>
      <point x="58" y="136"/>
      <point x="245" y="-20"/>
      <point x="574" y="-20" type="curve" smooth="yes"/>
      <point x="640" y="-20" type="line" smooth="yes"/>
      <point x="967" y="-20"/>
      <point x="1154" y="137"/>
      <point x="1154" y="412" type="curve" smooth="yes"/>
      <point x="1154" y="684"/>
      <point x="979" y="829"/>
      <point x="650" y="830" type="curve" smooth="yes"/>
    </contour>
    <contour>
      <point x="650" y="782" type="line" smooth="yes"/>
      <point x="951" y="783"/>
      <point x="1106" y="656"/>
      <point x="1106" y="412" type="curve" smooth="yes"/>
      <point x="1106" y="164"/>
      <point x="941" y="26"/>
      <point x="640" y="26" type="curve" smooth="yes"/>
      <point x="572" y="26" type="line" smooth="yes"/>
      <point x="271" y="26"/>
      <point x="104" y="164"/>
      <point x="104" y="412" type="curve" smooth="yes"/>
      <point x="104" y="658"/>
      <point x="258" y="783"/>
      <point x="562" y="782" type="curve" smooth="yes"/>
    </contour>
    <contour>
      <point x="666" y="830" type="curve" smooth="yes"/>
      <point x="546" y="830" type="line" smooth="yes"/>
      <point x="266" y="830"/>
      <point x="110" y="957"/>
      <point x="110" y="1188" type="curve" smooth="yes"/>
      <point x="110" y="1361"/>
      <point x="183" y="1468"/>
      <point x="322" y="1498" type="curve"/>
      <point x="322" y="1548" type="line"/>
      <point x="154" y="1513"/>
      <point x="64" y="1387"/>
      <point x="64" y="1188" type="curve" smooth="yes"/>
      <point x="64" y="932"/>
      <point x="241" y="783"/>
      <point x="546" y="782" type="curve" smooth="yes"/>
      <point x="664" y="782" type="line" smooth="yes"/>
      <point x="969" y="782"/>
      <point x="1148" y="932"/>
      <point x="1148" y="1188" type="curve" smooth="yes"/>
      <point x="1148" y="1395"/>
      <point x="1045" y="1527"/>
      <point x="862" y="1556" type="curve"/>
      <point x="862" y="1508" type="line"/>
      <point x="1017" y="1484"/>
      <point x="1102" y="1371"/>
      <point x="1102" y="1188" type="curve" smooth="yes"/>
      <point x="1102" y="959"/>
      <point x="944" y="829"/>
    </contour>
  </outline>
</glyph>
<glyph name="zhook" format="2">
  <advance width="1072"/>
  <unicode hex="0225"/>
  <outline>
    <contour>
      <point x="926" y="-186" type="line"/>
      <point x="972" y="-186" type="line"/>
      <point x="972" y="-156" type="line" smooth="yes"/>
      <point x="972" y="-29"/>
      <point x="900" y="46"/>
      <point x="774" y="46" type="curve" smooth="yes"/>
      <point x="216" y="46" type="line"/>
      <point x="216" y="52" type="line"/>
      <point x="884" y="1070" type="line"/>
      <point x="884" y="1118" type="line"/>
      <point x="200" y="1118" type="line"/>
      <point x="200" y="1072" type="line"/>
      <point x="827" y="1072" type="line"/>
      <point x="827" y="1066" type="line"/>
      <point x="158" y="46" type="line"/>
      <point x="158" y="0" type="line"/>
      <point x="770" y="0" type="line" smooth="yes"/>
      <point x="883" y="0"/>
      <point x="926" y="-52"/>
      <point x="926" y="-182" type="curve" smooth="yes"/>
    </contour>
  </outline>
</glyph>
<glyph name="jdotless" format="2">
  <advance width="448"/>
  <unicode hex="0237"/>
  <anchor x="510" y="0" name="_right"/>
  <anchor x="198" y="-442" name="bottom"/>
  <anchor x="226" y="628" name="cross"/>
  <anchor x="227" y="1118" name="top"/>
  <outline>
    <contour>
      <point x="204" y="1118" type="line"/>
      <point x="204" y="-162" type="line" smooth="yes"/>
      <point x="204" y="-293"/>
      <point x="105" y="-372"/>
      <point x="-6" y="-372" type="curve" smooth="yes"/>
      <point x="-24" y="-372" type="line"/>
      <point x="-24" y="-418" type="line"/>
      <point x="-6" y="-418" type="line" smooth="yes"/>
      <point x="131" y="-418"/>
      <point x="250" y="-320"/>
      <point x="250" y="-162" type="curve" smooth="yes"/>
      <point x="250" y="1118" type="line"/>
    </contour>
  </outline>
</glyph>
<glyph name="uni0239" format="2">
  <advance width="1748"/>
  <unicode hex="0239"/>
  <outline>
    <contour>
      <point x="854" y="-416" type="line"/>
      <point x="900" y="-416" type="line"/>
      <point x="900" y="920" type="line"/>
      <point x="894" y="1118" type="line"/>
      <point x="862" y="1118" type="line"/>
      <point x="854" y="922" type="line"/>
    </contour>
    <contour>
      <point x="80" y="552" type="line" smooth="yes"/>
      <point x="80" y="198"/>
      <point x="246" y="-24"/>
      <point x="484" y="-24" type="curve" smooth="yes"/>
      <point x="636" y="-24"/>
      <point x="778" y="64"/>
      <point x="868" y="202" type="curve"/>
      <point x="868" y="910" type="line"/>
      <point x="780" y="1047"/>
      <point x="636" y="1134"/>
      <point x="484" y="1134" type="curve" smooth="yes"/>
      <point x="246" y="1134"/>
      <point x="80" y="911"/>
      <point x="80" y="556" type="curve" smooth="yes"/>
    </contour>
    <contour>
      <point x="126" y="556" type="line" smooth="yes"/>
      <point x="127" y="882"/>
      <point x="263" y="1088"/>
      <point x="478" y="1088" type="curve" smooth="yes"/>
      <point x="619" y="1088"/>
      <point x="772" y="999"/>
      <point x="854" y="864" type="curve"/>
      <point x="854" y="248" type="line"/>
      <point x="769" y="113"/>
      <point x="620" y="24"/>
      <point x="478" y="24" type="curve" smooth="yes"/>
      <point x="267" y="24"/>
      <point x="127" y="228"/>
      <point x="126" y="552" type="curve" smooth="yes"/>
    </contour>
    <contour>
      <point x="1668" y="556" type="line" smooth="yes"/>
      <point x="1668" y="911"/>
      <point x="1503" y="1134"/>
      <point x="1264" y="1134" type="curve" smooth="yes"/>
      <point x="1113" y="1134"/>
      <point x="969" y="1047"/>
      <point x="880" y="910" type="curve"/>
      <point x="880" y="202" type="line"/>
      <point x="970" y="64"/>
      <point x="1113" y="-24"/>
      <point x="1264" y="-24" type="curve" smooth="yes"/>
      <point x="1503" y="-24"/>
      <point x="1668" y="198"/>
      <point x="1668" y="552" type="curve" smooth="yes"/>
    </contour>
    <contour>
      <point x="1622" y="552" type="line" smooth="yes"/>
      <point x="1622" y="228"/>
      <point x="1481" y="24"/>
      <point x="1270" y="24" type="curve" smooth="yes"/>
      <point x="1128" y="24"/>
      <point x="979" y="113"/>
      <point x="894" y="248" type="curve"/>
      <point x="894" y="864" type="line"/>
      <point x="977" y="999"/>
      <point x="1129" y="1088"/>
      <point x="1272" y="1088" type="curve" smooth="yes"/>
      <point x="1485" y="1088"/>
      <point x="1622" y="882"/>
      <point x="1622" y="556" type="curve" smooth="yes"/>
    </contour>
  </outline>
</glyph>
<glyph name="uni023A" format="2">
  <advance width="1310"/>
  <unicode hex="023A"/>
  <anchor x="655" y="0" name="bottom"/>
  <anchor x="1244" y="0" name="ogonek"/>
  <anchor x="566" y="1490" name="tonos"/>
  <anchor x="655" y="1490" name="top"/>
  <outline>
    <contour>
      <point x="990" y="1678" type="line"/>
      <point x="940" y="1678" type="line"/>
      <point x="276" y="-190" type="line"/>
      <point x="326" y="-190" type="line"/>
    </contour>
    <component base="A"/>
  </outline>
</glyph>
<glyph name="Cstroke" format="2">
  <advance width="1480"/>
  <unicode hex="023B"/>
  <anchor x="766" y="0" name="cedilla"/>
  <anchor x="760" y="745" name="center"/>
  <anchor x="766" y="1490" name="top"/>
  <anchor x="1336" y="1024" name="topr"/>
  <outline>
    <contour>
      <point x="366" y="-190" type="line"/>
      <point x="416" y="-190" type="line"/>
      <point x="1140" y="1678" type="line"/>
      <point x="1090" y="1678" type="line"/>
    </contour>
    <component base="C"/>
  </outline>
</glyph>
<glyph name="cstroke" format="2">
  <advance width="1095"/>
  <unicode hex="023C"/>
  <anchor x="594" y="0" name="bottom"/>
  <anchor x="594" y="0" name="cedilla"/>
  <anchor x="594" y="559" name="center"/>
  <anchor x="594" y="1118" name="top"/>
  <anchor x="970" y="899" name="topr"/>
  <outline>
    <contour>
      <point x="195.537" y="-418" type="line"/>
      <point x="244.463" y="-418" type="line"/>
      <point x="952" y="1536" type="line"/>
      <point x="904" y="1536" type="line"/>
    </contour>
    <component base="c"/>
  </outline>
</glyph>
<glyph name="uni023E" format="2">
  <advance width="1262"/>
  <unicode hex="023E"/>
  <anchor x="631" y="0" name="bottom"/>
  <anchor x="654" y="0" name="bottomr"/>
  <anchor x="631" y="0" name="cedilla"/>
  <anchor x="630" y="768" name="cross"/>
  <anchor x="654" y="0" name="cyrtic"/>
  <anchor x="642" y="0" name="right"/>
  <anchor x="630" y="1490" name="top"/>
  <outline>
    <contour>
      <point x="246" y="-190" type="line"/>
      <point x="294" y="-190" type="line"/>
      <point x="1014" y="1678" type="line"/>
      <point x="966" y="1678" type="line"/>
    </contour>
    <component base="T"/>
  </outline>
</glyph>
<glyph name="uni023F" format="2">
  <advance width="1010"/>
  <unicode hex="023F"/>
  <anchor x="518" y="0" name="bottom"/>
  <anchor x="516" y="0" name="cedilla"/>
  <anchor x="136" y="256" name="rthook"/>
  <anchor x="518" y="1118" name="top"/>
  <outline>
    <contour>
      <point x="217" y="161" type="curve" name="hr00"/>
      <point x="181" y="142" type="line"/>
      <point x="430" y="-290" type="line" smooth="yes"/>
      <point x="482" y="-380"/>
      <point x="534" y="-418"/>
      <point x="606" y="-418" type="curve" smooth="yes"/>
      <point x="649" y="-418"/>
      <point x="691" y="-403"/>
      <point x="756" y="-354" type="curve"/>
      <point x="734" y="-314" type="line"/>
      <point x="679" y="-356"/>
      <point x="641" y="-372"/>
      <point x="604" y="-372" type="curve" smooth="yes"/>
      <point x="509" y="-372"/>
      <point x="492" y="-319"/>
    </contour>
    <component base="s"/>
  </outline>
</glyph>
<glyph name="uni0240" format="2">
  <advance width="1072"/>
  <unicode hex="0240"/>
  <outline>
    <contour>
      <point x="158" y="0" type="line"/>
      <point x="216" y="0" type="line"/>
      <point x="216" y="52" type="line"/>
      <point x="884" y="1070" type="line"/>
      <point x="884" y="1118" type="line"/>
      <point x="200" y="1118" type="line"/>
      <point x="200" y="1072" type="line"/>
      <point x="827" y="1072" type="line"/>
      <point x="827" y="1066" type="line"/>
      <point x="158" y="46" type="line"/>
    </contour>
    <contour>
      <point x="895" y="-418" type="curve" smooth="yes"/>
      <point x="922" y="-418"/>
      <point x="954" y="-412"/>
      <point x="985" y="-398" type="curve"/>
      <point x="966" y="-356" type="line"/>
      <point x="940" y="-368"/>
      <point x="918" y="-372"/>
      <point x="895" y="-372" type="curve" smooth="yes"/>
      <point x="798" y="-372"/>
      <point x="738" y="-266"/>
      <point x="634" y="-150" type="curve" smooth="yes"/>
      <point x="549" y="-52"/>
      <point x="433" y="46"/>
      <point x="245" y="46" type="curve" smooth="yes"/>
      <point x="191" y="46" type="line"/>
      <point x="191" y="0" type="line"/>
      <point x="245" y="0" type="line" smooth="yes"/>
      <point x="414" y="0"/>
      <point x="517" y="-86"/>
      <point x="600" y="-180" type="curve" smooth="yes"/>
      <point x="700" y="-293"/>
      <point x="771" y="-418"/>
    </contour>
  </outline>
</glyph>
<glyph name="uni0241" format="2">
  <advance width="1032"/>
  <unicode hex="0241"/>
  <outline>
    <contour>
      <point x="474" y="396" type="line" name="hr00"/>
      <point x="474" y="350" type="line"/>
      <point x="492" y="350" type="line"/>
      <point x="780" y="350"/>
      <point x="943" y="515"/>
      <point x="942" y="812" type="curve" smooth="yes"/>
      <point x="942" y="1054" type="line" smooth="yes"/>
      <point x="942" y="1341"/>
      <point x="788" y="1510"/>
      <point x="526" y="1510" type="curve" smooth="yes"/>
      <point x="274" y="1510"/>
      <point x="105" y="1365"/>
      <point x="90" y="1138" type="curve"/>
      <point x="136" y="1138" type="line"/>
      <point x="147" y="1336"/>
      <point x="298" y="1462"/>
      <point x="526" y="1462" type="curve" smooth="yes"/>
      <point x="764" y="1462"/>
      <point x="896" y="1316"/>
      <point x="896" y="1054" type="curve" smooth="yes"/>
      <point x="896" y="812" type="line" smooth="yes"/>
      <point x="896" y="537"/>
      <point x="754" y="394"/>
      <point x="482" y="396" type="curve"/>
    </contour>
    <contour>
      <point x="512" y="396" type="line"/>
      <point x="466" y="396" type="line"/>
      <point x="466" y="0" type="line"/>
      <point x="512" y="0" type="line"/>
    </contour>
  </outline>
</glyph>
<glyph name="uni0242" format="2">
  <advance width="1002"/>
  <unicode hex="0242"/>
  <outline>
    <contour>
      <point x="152" y="712" type="curve"/>
      <point x="198" y="712" type="line"/>
      <point x="203" y="963"/>
      <point x="321" y="1088"/>
      <point x="508" y="1088" type="curve" smooth="yes"/>
      <point x="699" y="1088"/>
      <point x="806" y="958"/>
      <point x="806" y="734" type="curve" smooth="yes"/>
      <point x="806" y="516"/>
      <point x="706" y="388"/>
      <point x="520" y="390" type="curve"/>
      <point x="512" y="390" type="line" name="hr00"/>
      <point x="512" y="344" type="line"/>
      <point x="530" y="344" type="line"/>
      <point x="733" y="344"/>
      <point x="852" y="495"/>
      <point x="852" y="734" type="curve" smooth="yes"/>
      <point x="852" y="983"/>
      <point x="725" y="1134"/>
      <point x="508" y="1134" type="curve" smooth="yes"/>
      <point x="294" y="1134"/>
      <point x="158" y="991"/>
    </contour>
    <contour>
      <point x="504" y="390" type="line"/>
      <point x="504" y="0" type="line"/>
      <point x="550" y="0" type="line"/>
      <point x="550" y="390" type="line"/>
    </contour>
  </outline>
</glyph>
<glyph name="uni0244" format="2">
  <advance width="1480"/>
  <unicode hex="0244"/>
  <anchor x="698" y="0" name="bottom"/>
  <anchor x="1234" y="504" name="ogonek"/>
  <anchor x="760" y="0" name="right"/>
  <anchor x="1186" y="1490" name="rtophorn"/>
  <anchor x="698" y="1490" name="top"/>
  <outline>
    <contour>
      <point x="1484" y="876" type="line"/>
      <point x="-2" y="876" type="line"/>
      <point x="-2" y="830" type="line"/>
      <point x="1484" y="830" type="line"/>
    </contour>
    <component base="U" xOffset="-38"/>
  </outline>
</glyph>
<glyph name="uni0245" format="2">
  <advance width="1370"/>
  <unicode hex="0245"/>
  <outline>
    <contour>
      <point x="1200" y="0" type="line"/>
      <point x="1250" y="0" type="line"/>
      <point x="718" y="1490" type="line"/>
      <point x="664" y="1490" type="line"/>
      <point x="680" y="1454" type="line"/>
    </contour>
    <contour>
      <point x="690" y="1456" type="line"/>
      <point x="702" y="1490" type="line"/>
      <point x="654" y="1490" type="line"/>
      <point x="120" y="0" type="line"/>
      <point x="170" y="0" type="line"/>
    </contour>
  </outline>
</glyph>
<glyph name="uni0246" format="2">
  <advance width="1196"/>
  <unicode hex="0246"/>
  <anchor x="640" y="0" name="bottom"/>
  <anchor x="640" y="0" name="cedilla"/>
  <anchor x="1048" y="0" name="ogonek"/>
  <anchor x="232" y="1490" name="tonos"/>
  <anchor x="640" y="1490" name="top"/>
  <outline>
    <contour>
      <point x="366" y="-190" type="line"/>
      <point x="408" y="-190" type="line"/>
      <point x="948" y="1678" type="line"/>
      <point x="904" y="1678" type="line"/>
    </contour>
    <component base="E"/>
  </outline>
</glyph>
<glyph name="uni0247" format="2">
  <advance width="1204"/>
  <unicode hex="0247"/>
  <anchor x="622" y="0" name="bottom"/>
  <anchor x="626" y="0" name="cedilla"/>
  <anchor x="1036" y="198" name="ogonek"/>
  <anchor x="622" y="1118" name="top"/>
  <outline>
    <contour>
      <point x="130" y="-418" type="line"/>
      <point x="184" y="-418" type="line"/>
      <point x="1054" y="1490" type="line"/>
      <point x="1006" y="1490" type="line"/>
    </contour>
    <component base="e" xOffset="32"/>
  </outline>
</glyph>
<glyph name="uni024C" format="2">
  <advance width="1270"/>
  <unicode hex="024C"/>
  <anchor x="648" y="0" name="bottom"/>
  <anchor x="628" y="1490" name="top"/>
  <outline>
    <contour>
      <point x="250" y="642" type="line"/>
      <point x="250" y="690" type="line"/>
      <point x="32" y="690" type="line"/>
      <point x="32" y="642" type="line"/>
    </contour>
    <component base="R" xOffset="2"/>
  </outline>
</glyph>
<glyph name="uni024E" format="2">
  <advance width="1248"/>
  <unicode hex="024E"/>
  <anchor x="656" y="0" name="bottom"/>
  <anchor x="656" y="438" name="cross"/>
  <anchor x="680" y="0" name="ogonek"/>
  <anchor x="66" y="1490" name="tonos"/>
  <anchor x="656" y="1490" name="top"/>
  <outline>
    <contour>
      <point x="1256" y="1174" type="line"/>
      <point x="-6" y="1174" type="line"/>
      <point x="-6" y="1128" type="line"/>
      <point x="1256" y="1128" type="line"/>
    </contour>
    <component base="Y"/>
  </outline>
</glyph>
<glyph name="uni024F" format="2">
  <advance width="1114"/>
  <unicode hex="024F"/>
  <anchor x="758" y="0" name="bottom"/>
  <anchor x="586" y="0" name="ogonek"/>
  <anchor x="556" y="1118" name="top"/>
  <outline>
    <contour>
      <point x="968" y="808" type="line" name="hr00"/>
      <point x="146" y="808" type="line"/>
      <point x="146" y="762" type="line"/>
      <point x="968" y="762" type="line"/>
    </contour>
    <component base="y"/>
  </outline>
</glyph>
<glyph name="bhook" format="2">
  <advance width="1190"/>
  <unicode hex="0253"/>
  <anchor x="244" y="1118" name="_topr"/>
  <anchor x="630" y="0" name="bottom"/>
  <anchor x="339" y="1490" name="top"/>
  <outline>
    <contour>
      <point x="630" y="-24" type="curve" smooth="yes"/>
      <point x="893" y="-24"/>
      <point x="1060" y="225"/>
      <point x="1060" y="556" type="curve" smooth="yes"/>
      <point x="1060" y="884"/>
      <point x="891" y="1134"/>
      <point x="630" y="1134" type="curve" smooth="yes"/>
      <point x="452" y="1134"/>
      <point x="307" y="1018"/>
      <point x="250" y="832" type="curve"/>
      <point x="244" y="832" type="line"/>
      <point x="244" y="1118" type="line"/>
      <point x="198" y="1118" type="line"/>
      <point x="198" y="0" type="line"/>
      <point x="244" y="0" type="line"/>
      <point x="244" y="280" type="line"/>
      <point x="250" y="280" type="line"/>
      <point x="309" y="94"/>
      <point x="450" y="-24"/>
    </contour>
    <contour>
      <point x="630" y="22" type="curve" smooth="yes"/>
      <point x="392" y="22"/>
      <point x="244" y="253"/>
      <point x="244" y="556" type="curve" smooth="yes"/>
      <point x="244" y="858"/>
      <point x="394" y="1088"/>
      <point x="630" y="1088" type="curve" smooth="yes"/>
      <point x="865" y="1088"/>
      <point x="1014" y="858"/>
      <point x="1014" y="556" type="curve" smooth="yes"/>
      <point x="1014" y="253"/>
      <point x="866" y="22"/>
    </contour>
    <component base="_part.top_r_hook"/>
  </outline>
</glyph>
<glyph name="erev" format="2">
  <advance width="1036"/>
  <unicode hex="0258"/>
  <outline>
    <contour>
      <point x="486" y="-20" type="curve" smooth="yes"/>
      <point x="754" y="-20"/>
      <point x="934" y="185"/>
      <point x="934" y="538" type="curve" smooth="yes"/>
      <point x="934" y="542" type="line" smooth="yes"/>
      <point x="934" y="888"/>
      <point x="752" y="1134"/>
      <point x="494" y="1134" type="curve" smooth="yes"/>
      <point x="255" y="1134"/>
      <point x="102" y="924"/>
      <point x="102" y="590" type="curve" smooth="yes"/>
      <point x="102" y="544" type="line"/>
      <point x="910" y="544" type="line"/>
      <point x="910" y="590" type="line"/>
      <point x="148" y="590" type="line"/>
      <point x="148" y="594" type="line" smooth="yes"/>
      <point x="148" y="899"/>
      <point x="276" y="1088"/>
      <point x="494" y="1088" type="curve" smooth="yes"/>
      <point x="719" y="1088"/>
      <point x="887" y="865"/>
      <point x="888" y="552" type="curve" smooth="yes"/>
      <point x="888" y="546" type="line" smooth="yes"/>
      <point x="888" y="212"/>
      <point x="731" y="26"/>
      <point x="486" y="26" type="curve" smooth="yes"/>
      <point x="332" y="26"/>
      <point x="214" y="100"/>
      <point x="152" y="220" type="curve"/>
      <point x="104" y="210" type="line"/>
      <point x="172" y="68"/>
      <point x="311" y="-20"/>
    </contour>
  </outline>
</glyph>
